<svg width="48" height="48" viewBox="0 0 48 48" fill="none" xmlns="http://www.w3.org/2000/svg">
<path d="M17.6814 10.4858C17.93 10.4859 18.1731 10.4123 18.3799 10.2743C18.5867 10.1362 18.7479 9.93998 18.8432 9.71031C18.9385 9.48064 18.9635 9.22787 18.915 8.98399C18.8666 8.74011 18.747 8.51606 18.5712 8.34019C18.3954 8.16432 18.1715 8.04453 17.9276 7.99597C17.6838 7.9474 17.431 7.97225 17.2012 8.06737C16.9715 8.16249 16.7752 8.3236 16.637 8.53033C16.4988 8.73706 16.4251 8.98011 16.4251 9.22876C16.425 9.39379 16.4574 9.55723 16.5205 9.70973C16.5836 9.86223 16.6761 10.0008 16.7928 10.1175C16.9094 10.2343 17.048 10.3269 17.2004 10.3901C17.3529 10.4532 17.5163 10.4858 17.6814 10.4858Z" fill="#FF6633"/>
<path d="M21.7021 10.4858C21.9507 10.4859 22.1938 10.4123 22.4007 10.2743C22.6075 10.1362 22.7687 9.93998 22.864 9.71031C22.9592 9.48064 22.9842 9.22787 22.9358 8.98399C22.8874 8.74011 22.7677 8.51606 22.592 8.34019C22.4162 8.16432 22.1922 8.04453 21.9484 7.99597C21.7045 7.9474 21.4517 7.97225 21.222 8.06737C20.9923 8.16249 20.7959 8.3236 20.6577 8.53033C20.5196 8.73706 20.4459 8.98011 20.4459 9.22876C20.4458 9.39379 20.4782 9.55723 20.5413 9.70973C20.6044 9.86223 20.6969 10.0008 20.8135 10.1175C20.9302 10.2343 21.0687 10.3269 21.2212 10.3901C21.3736 10.4532 21.5371 10.4858 21.7021 10.4858Z" fill="#FF6633"/>
<path d="M25.7251 10.4858C25.9737 10.4859 26.2168 10.4123 26.4237 10.2743C26.6305 10.1362 26.7917 9.93998 26.887 9.71031C26.9822 9.48064 27.0072 9.22787 26.9588 8.98399C26.9104 8.74011 26.7907 8.51606 26.615 8.34019C26.4392 8.16432 26.2152 8.04453 25.9714 7.99597C25.7275 7.9474 25.4747 7.97225 25.245 8.06737C25.0153 8.16249 24.8189 8.3236 24.6807 8.53033C24.5426 8.73706 24.4689 8.98011 24.4689 9.22876C24.4688 9.39379 24.5012 9.55723 24.5643 9.70973C24.6274 9.86223 24.7199 10.0008 24.8365 10.1175C24.9532 10.2343 25.0917 10.3269 25.2442 10.3901C25.3966 10.4532 25.5601 10.4858 25.7251 10.4858Z" fill="#FF6633"/>
<path d="M42.6061 4.46326H13.7821L12.2821 5.96326V13.0958H9.5071L8.0071 14.5958V18.8183H5.2666L3.7666 20.3183V41.9588L5.2666 43.4588H31.3186L32.8186 41.9588V37.7355H35.5629L37.0629 36.2355V31.407H42.6061L44.1061 29.907V5.96326L42.6061 4.46326ZM41.1061 7.46326V10.9965H15.2821V7.46326H41.1061ZM12.2821 16.0958V19.0005H11.0071V16.0958H12.2821ZM8.0071 21.8183V24.7238H6.7666V21.8183H8.0071ZM29.8186 40.4588H6.7666V27.7238H8.01085V36.2355L9.51085 37.7355H29.8186V40.4588ZM34.0629 34.7355H11.0109V22.0005H12.2859V29.907L13.7859 31.407H34.0629V34.7355ZM15.2821 28.407V13.9965H41.1061V28.407H15.2821Z" fill="#FF6633"/>
</svg>
