<svg width="740" height="420" viewBox="0 0 740 420" fill="none" xmlns="http://www.w3.org/2000/svg">
<g clip-path="url(#clip0_1893_283)">
<path fill-rule="evenodd" clip-rule="evenodd" d="M432.689 20.3873C387.217 4.93749 337.68 6.54444 293.305 24.9088C248.929 43.2732 212.743 77.1426 191.487 120.207C170.231 163.272 165.355 212.596 177.767 258.989C190.179 305.382 219.032 345.682 258.952 372.38C298.872 399.078 347.136 410.354 394.753 404.108C442.37 397.861 486.093 374.517 517.776 338.426C549.459 302.335 566.941 255.956 566.967 207.931V207.931C567.025 173.157 557.883 138.987 540.469 108.887L540.469 108.887C516.467 67.2902 478.161 35.8372 432.689 20.3873ZM292.854 23.8202C337.493 5.34659 387.326 3.73008 433.068 19.2719C478.811 34.8136 517.344 66.4536 541.489 108.298C559.007 138.577 568.204 172.951 568.145 207.933C568.119 256.243 550.532 302.897 518.661 339.203C486.79 375.509 442.807 398.992 394.906 405.276C347.006 411.559 298.455 400.216 258.297 373.359C218.14 346.502 189.114 305.963 176.629 259.294C164.143 212.624 169.048 163.007 190.431 119.686C211.813 76.3649 248.215 42.2939 292.854 23.8202Z" fill="url(#paint0_linear_1893_283)" stroke="url(#paint1_linear_1893_283)" stroke-miterlimit="10"/>
<path opacity="0.4" fill-rule="evenodd" clip-rule="evenodd" d="M542.735 310.287L540.157 309.607L540.458 308.468L541.353 308.704L541.244 307.817L542.414 307.673L542.735 310.287ZM540.814 304.316L540.384 300.815L541.553 300.672L541.983 304.173L540.814 304.316ZM533.513 306.633L536.986 307.55L536.685 308.689L533.213 307.772L533.513 306.633ZM539.954 297.315L539.524 293.814L540.693 293.67L541.123 297.171L539.954 297.315ZM564.042 251.033L563.035 249.555L564.009 248.892L565.016 250.37L564.042 251.033ZM539.093 290.313L538.663 286.812L539.832 286.668L540.263 290.169L539.093 290.313ZM526.569 304.799L530.041 305.716L529.74 306.855L526.268 305.938L526.569 304.799ZM496.054 364.68L493.938 365.114L493.701 363.96L494.429 363.811L493.958 363.285L494.836 362.499L495.201 362.908L495.314 362.332L496.47 362.559L496.054 364.68ZM495.996 358.859L496.678 355.386L497.834 355.612L497.152 359.086L495.996 358.859ZM561.021 246.597L559.007 243.64L559.981 242.977L561.995 245.934L561.021 246.597ZM538.233 283.311L537.803 279.81L538.972 279.667L539.402 283.168L538.233 283.311ZM497.36 351.912L498.041 348.439L499.197 348.666L498.516 352.139L497.36 351.912ZM486.773 365.382L490.237 364.671L490.474 365.825L487.01 366.536L486.773 365.382ZM491.649 360.705L489.339 358.126L490.217 357.34L492.526 359.92L491.649 360.705ZM498.723 344.966L499.405 341.493L500.561 341.72L499.879 345.193L498.723 344.966ZM519.624 302.964L523.096 303.881L522.795 305.02L519.323 304.103L519.624 302.964ZM537.373 276.31L536.942 272.809L538.112 272.665L538.542 276.166L537.373 276.31ZM556.993 240.683L554.979 237.725L555.953 237.062L557.967 240.019L556.993 240.683ZM500.087 338.02L500.769 334.546L501.925 334.773L501.243 338.247L500.087 338.02ZM479.845 366.804L483.309 366.093L483.546 367.247L480.082 367.958L479.845 366.804ZM501.45 331.073L502.132 327.6L503.288 327.827L502.606 331.3L501.45 331.073ZM536.512 269.308L536.082 265.807L537.251 265.663L537.681 269.164L536.512 269.308ZM487.03 355.546L484.721 352.967L485.599 352.181L487.908 354.76L487.03 355.546ZM502.814 324.127L503.496 320.654L504.652 320.881L503.97 324.354L502.814 324.127ZM512.679 301.13L516.151 302.047L515.851 303.186L512.378 302.269L512.679 301.13ZM567.172 209.128L568.855 209.659L568.501 210.783L566.817 210.252L567.172 209.128ZM472.917 368.226L476.381 367.515L476.618 368.669L473.154 369.38L472.917 368.226ZM552.965 234.768L550.951 231.81L551.925 231.147L553.939 234.105L552.965 234.768ZM504.178 317.18L504.859 313.707L506.015 313.934L505.334 317.407L504.178 317.18ZM535.652 262.306L535.221 258.805L536.391 258.662L536.821 262.163L535.652 262.306ZM505.541 310.234L506.223 306.761L507.379 306.988L506.697 310.461L505.541 310.234ZM482.412 350.387L480.102 347.807L480.98 347.022L483.289 349.601L482.412 350.387ZM560.439 207.003L563.805 208.065L563.451 209.189L560.084 208.126L560.439 207.003ZM465.989 369.647L469.453 368.936L469.69 370.09L466.226 370.801L465.989 369.647ZM508.031 299.902L505.734 299.295L505.433 300.434L507.365 300.944L506.905 303.288L508.061 303.515L508.506 301.246L508.906 301.351L509.207 300.212L508.734 300.087L508.743 300.041L508.031 299.902ZM534.791 255.305L534.361 251.804L535.53 251.66L535.961 255.161L534.791 255.305ZM548.938 228.853L546.924 225.896L547.897 225.233L549.911 228.19L548.938 228.853ZM508.268 296.341L508.95 292.868L510.106 293.095L509.424 296.568L508.268 296.341ZM533.931 248.303L533.501 244.802L534.67 244.658L535.1 248.159L533.931 248.303ZM509.632 289.395L510.314 285.922L511.47 286.149L510.788 289.622L509.632 289.395ZM477.793 345.228L475.484 342.648L476.362 341.862L478.671 344.442L477.793 345.228ZM459.061 371.069L462.525 370.358L462.762 371.512L459.298 372.223L459.061 371.069ZM553.705 204.877L557.072 205.94L556.717 207.064L553.351 206.001L553.705 204.877ZM510.996 282.449L511.677 278.975L512.833 279.202L512.152 282.676L510.996 282.449ZM498.789 297.461L502.262 298.378L501.961 299.517L498.489 298.6L498.789 297.461ZM544.91 222.938L542.896 219.981L543.869 219.318L545.883 222.275L544.91 222.938ZM565.122 184.068L566.732 183.51L567.118 184.623L565.508 185.181L565.122 184.068ZM533.07 241.301L532.64 237.8L533.81 237.657L534.24 241.158L533.07 241.301ZM512.359 275.502L513.041 272.029L514.197 272.256L513.515 275.729L512.359 275.502ZM452.134 372.491L455.597 371.78L455.834 372.934L452.37 373.645L452.134 372.491ZM513.723 268.556L514.405 265.083L515.561 265.31L514.879 268.783L513.723 268.556ZM473.175 340.069L470.865 337.489L471.743 336.703L474.052 339.283L473.175 340.069ZM558.68 186.302L561.901 185.185L562.287 186.298L559.066 187.415L558.68 186.302ZM532.21 234.3L531.78 230.799L532.949 230.655L533.379 234.156L532.21 234.3ZM546.972 202.752L550.339 203.815L549.984 204.938L546.617 203.875L546.972 202.752ZM515.086 261.609L515.768 258.136L516.924 258.363L516.242 261.836L515.086 261.609ZM491.845 295.626L495.317 296.543L495.016 297.682L491.544 296.765L491.845 295.626ZM540.882 217.024L538.868 214.066L539.841 213.403L541.855 216.36L540.882 217.024ZM445.206 373.912L448.67 373.202L448.906 374.356L445.442 375.066L445.206 373.912ZM516.45 254.663L517.132 251.19L518.288 251.417L517.606 254.89L516.45 254.663ZM552.239 188.536L555.46 187.419L555.846 188.532L552.625 189.649L552.239 188.536ZM531.35 227.298L530.919 223.797L532.089 223.653L532.519 227.154L531.35 227.298ZM468.556 334.909L466.247 332.33L467.125 331.544L469.434 334.124L468.556 334.909ZM517.814 247.717L518.495 244.244L519.651 244.47L518.97 247.944L517.814 247.717ZM540.238 200.627L543.605 201.689L543.25 202.813L539.884 201.75L540.238 200.627ZM545.798 190.77L549.019 189.653L549.405 190.766L546.184 191.883L545.798 190.77ZM519.177 240.77L519.859 237.297L521.015 237.524L520.333 240.997L519.177 240.77ZM536.854 211.109L534.84 208.151L535.813 207.488L537.827 210.446L536.854 211.109ZM438.278 375.334L441.742 374.623L441.979 375.777L438.515 376.488L438.278 375.334ZM484.9 293.792L488.372 294.709L488.071 295.848L484.599 294.931L484.9 293.792ZM530.489 220.296L530.059 216.795L531.228 216.652L531.659 220.153L530.489 220.296ZM520.541 233.824L521.223 230.351L522.379 230.578L521.697 234.051L520.541 233.824ZM422.605 402.767L420.118 401.74L420.568 400.651L421.356 400.977L421.323 400.153L422.501 400.107L422.605 402.767ZM463.938 329.75L461.629 327.17L462.506 326.385L464.816 328.964L463.938 329.75ZM539.357 193.003L542.577 191.887L542.963 193L539.743 194.116L539.357 193.003ZM521.904 226.878L522.586 223.404L523.742 223.631L523.06 227.105L521.904 226.878ZM529.629 213.295L529.199 209.794L530.368 209.65L530.798 213.151L529.629 213.295ZM431.35 376.756L434.814 376.045L435.051 377.199L431.587 377.91L431.35 376.756ZM533.505 198.501L536.872 199.564L536.517 200.687L533.15 199.625L533.505 198.501ZM532.826 205.194L530.812 202.237L531.785 201.573L533.799 204.531L532.826 205.194ZM523.268 219.931L523.95 216.458L525.106 216.685L524.424 220.158L523.268 219.931ZM421.186 396.67L421.049 393.187L422.226 393.141L422.363 396.624L421.186 396.67ZM477.955 291.957L481.427 292.874L481.127 294.013L477.654 293.096L477.955 291.957ZM532.916 195.237L536.136 194.12L536.522 195.233L533.302 196.35L532.916 195.237ZM528.768 206.293L528.338 202.792L529.508 202.648L529.938 206.149L528.768 206.293ZM524.631 212.985L525.313 209.512L526.469 209.739L525.788 213.212L524.631 212.985ZM414.018 397.947L417.293 399.299L416.844 400.388L413.569 399.036L414.018 397.947ZM558.025 152.028L559.061 150.483L560.039 151.139L559.004 152.684L558.025 152.028ZM459.319 324.591L457.01 322.011L457.888 321.225L460.197 323.805L459.319 324.591ZM420.911 389.704L420.774 386.22L421.951 386.174L422.089 389.657L420.911 389.704ZM553.884 158.206L555.955 155.117L556.933 155.773L554.863 158.862L553.884 158.206ZM424.422 378.178L427.886 377.467L428.123 378.621L424.659 379.332L424.422 378.178ZM549.743 164.385L551.813 161.296L552.792 161.952L550.721 165.041L549.743 164.385ZM525.995 206.038L526.677 202.565L527.833 202.792L527.151 206.265L525.995 206.038ZM545.602 170.564L547.672 167.475L548.651 168.13L546.58 171.22L545.602 170.564ZM541.46 176.743L543.531 173.653L544.509 174.309L542.439 177.399L541.46 176.743ZM537.319 182.921L539.39 179.832L540.368 180.488L538.298 183.577L537.319 182.921ZM528.194 199.256L528.515 199.319L528.535 199.214L528.737 199.189L528.798 199.279L528.972 199.16L529.077 199.148L529.071 199.093L529.771 198.616L529.721 198.542L529.784 198.562L530.138 197.439L530.063 197.415L529.695 196.354L529.014 196.59L529.147 195.759L528.218 195.611L528.216 195.606L528.208 195.609L527.983 195.573L527.963 195.7L527.111 196.015L527.363 196.693L526.69 196.564L526.468 197.721L526.812 197.787L526.473 198.028L527.155 198.989L527.415 198.804L527.359 199.092L527.897 199.198L527.908 199.291L528.194 199.256ZM533.178 189.1L535.248 186.011L536.227 186.667L534.156 189.756L533.178 189.1ZM531.107 192.19L532.086 192.845L530.479 195.242L529.501 194.586L531.107 192.19ZM471.01 290.123L474.483 291.04L474.182 292.179L470.709 291.262L471.01 290.123ZM420.536 380.178L420.637 382.737L421.814 382.691L421.677 379.208L421.029 379.233L420.958 378.888L417.494 379.599L417.731 380.753L420.536 380.178ZM528.558 191.967L529.133 188.361L530.296 188.547L529.722 192.153L528.558 191.967ZM520.618 202.186L523.545 200.107L524.228 201.068L521.3 203.147L520.618 202.186ZM407.469 395.243L410.744 396.595L410.294 397.684L407.019 396.331L407.469 395.243ZM454.701 319.432L452.392 316.852L453.269 316.066L455.579 318.646L454.701 319.432ZM420.362 375.771L420.225 372.288L421.402 372.241L421.539 375.724L420.362 375.771ZM525.884 192.698L524.657 189.382L525.762 188.973L526.989 192.289L525.884 192.698ZM529.708 184.756L530.282 181.15L531.446 181.335L530.871 184.941L529.708 184.756ZM514.763 206.345L517.691 204.266L518.373 205.226L515.446 207.305L514.763 206.345ZM519.896 195.26L523.293 195.912L523.071 197.069L519.674 196.417L519.896 195.26ZM464.065 288.288L467.538 289.205L467.237 290.345L463.764 289.427L464.065 288.288ZM530.857 177.544L531.432 173.938L532.595 174.123L532.021 177.729L530.857 177.544ZM410.566 381.021L414.03 380.31L414.267 381.464L410.803 382.175L410.566 381.021ZM420.088 368.804L419.95 365.321L421.127 365.275L421.265 368.758L420.088 368.804ZM508.909 210.503L511.836 208.424L512.518 209.384L509.591 211.463L508.909 210.503ZM450.082 314.272L447.773 311.693L448.651 310.907L450.96 313.487L450.082 314.272ZM400.919 392.538L404.194 393.89L403.744 394.979L400.47 393.627L400.919 392.538ZM523.43 186.065L522.202 182.748L523.307 182.339L524.535 185.656L523.43 186.065ZM532.007 170.332L532.582 166.726L533.745 166.911L533.17 170.517L532.007 170.332ZM503.054 214.661L505.981 212.582L506.663 213.542L503.736 215.622L503.054 214.661ZM419.813 361.838L419.676 358.355L420.853 358.308L420.99 361.791L419.813 361.838ZM513.101 193.955L516.499 194.608L516.276 195.765L512.879 195.112L513.101 193.955ZM533.156 163.12L533.731 159.514L534.895 159.7L534.32 163.305L533.156 163.12ZM403.638 382.443L407.102 381.732L407.339 382.886L403.875 383.597L403.638 382.443ZM457.121 286.454L460.593 287.371L460.292 288.51L456.82 287.593L457.121 286.454ZM497.199 218.819L500.126 216.74L500.809 217.701L497.881 219.78L497.199 218.819ZM534.306 155.908L534.881 152.302L536.044 152.488L535.469 156.094L534.306 155.908ZM419.538 354.871L419.401 351.388L420.578 351.342L420.715 354.825L419.538 354.871ZM520.975 179.432L519.748 176.115L520.853 175.706L522.08 179.023L520.975 179.432ZM445.464 309.113L443.155 306.534L444.032 305.748L446.342 308.327L445.464 309.113ZM394.37 389.834L397.644 391.186L397.195 392.275L393.92 390.923L394.37 389.834ZM491.344 222.978L494.272 220.898L494.954 221.859L492.027 223.938L491.344 222.978ZM535.456 148.696L536.03 145.09L537.194 145.276L536.619 148.882L535.456 148.696ZM396.71 383.864L400.174 383.154L400.411 384.308L396.947 385.018L396.71 383.864ZM506.307 192.651L509.704 193.303L509.482 194.46L506.085 193.808L506.307 192.651ZM419.264 347.905L419.126 344.422L420.304 344.375L420.441 347.858L419.264 347.905ZM485.49 227.136L488.417 225.057L489.099 226.017L486.172 228.096L485.49 227.136ZM536.605 141.485L537.18 137.879L538.343 138.064L537.769 141.67L536.605 141.485ZM518.521 172.798L517.293 169.482L518.398 169.073L519.626 172.389L518.521 172.798ZM450.176 284.619L453.648 285.537L453.347 286.676L449.875 285.758L450.176 284.619ZM418.989 340.938L418.852 337.455L420.029 337.409L420.166 340.892L418.989 340.938ZM440.845 303.954L438.536 301.374L439.414 300.589L441.723 303.168L440.845 303.954ZM537.755 134.273L538.33 130.667L539.493 130.852L538.918 134.458L537.755 134.273ZM389.782 385.286L393.246 384.575L393.483 385.729L390.019 386.44L389.782 385.286ZM479.635 231.294L482.562 229.215L483.244 230.175L480.317 232.254L479.635 231.294ZM387.82 387.129L391.095 388.482L390.645 389.57L387.37 388.218L387.82 387.129ZM499.513 191.346L502.91 191.999L502.688 193.156L499.291 192.503L499.513 191.346ZM538.904 127.061L539.479 123.455L540.643 123.64L540.068 127.246L538.904 127.061ZM516.066 166.165L514.839 162.848L515.944 162.439L517.171 165.756L516.066 166.165ZM418.714 333.972L418.577 330.489L419.754 330.442L419.892 333.925L418.714 333.972ZM473.78 235.452L476.707 233.373L477.39 234.334L474.462 236.413L473.78 235.452ZM443.231 282.785L446.703 283.702L446.402 284.841L442.93 283.924L443.231 282.785ZM540.054 119.849L540.629 116.243L541.792 116.429L541.217 120.034L540.054 119.849ZM384.282 386.415L386.318 385.997L386.555 387.151L383.091 387.862L382.855 386.708L383.428 386.59L380.821 385.514L381.27 384.425L384.545 385.777L384.282 386.415ZM467.925 239.61L470.853 237.531L471.535 238.492L468.608 240.571L467.925 239.61ZM436.227 298.795L433.918 296.215L434.796 295.429L437.105 298.009L436.227 298.795ZM418.44 327.005L418.303 323.522L419.48 323.476L419.617 326.959L418.44 327.005ZM540.5 110.965L540.242 110.868L540.656 109.765L542.73 110.545L542.367 112.823L541.204 112.637L541.322 111.893L540.683 112.169L540.215 111.088L540.5 110.965ZM492.718 190.042L496.116 190.694L495.894 191.851L492.496 191.199L492.718 190.042ZM513.612 159.532L512.384 156.215L513.489 155.806L514.717 159.123L513.612 159.532ZM462.071 243.769L464.998 241.689L465.68 242.65L462.753 244.729L462.071 243.769ZM418.165 320.039L418.028 316.556L419.205 316.509L419.342 319.992L418.165 320.039ZM375.927 388.13L379.391 387.419L379.627 388.573L376.163 389.284L375.927 388.13ZM533.72 113.895L536.968 112.492L537.435 113.573L534.188 114.977L533.72 113.895ZM436.286 280.95L439.758 281.868L439.458 283.007L435.985 282.089L436.286 280.95ZM456.216 247.927L459.143 245.848L459.825 246.808L456.898 248.887L456.216 247.927ZM431.609 293.635L429.299 291.056L430.177 290.27L432.486 292.85L431.609 293.635ZM511.157 152.898L509.93 149.581L511.035 149.173L512.262 152.489L511.157 152.898ZM534.161 107.325L537.409 108.545L536.994 109.648L533.747 108.428L534.161 107.325ZM417.891 313.072L417.753 309.589L418.93 309.543L419.068 313.026L417.891 313.072ZM374.721 381.721L377.996 383.073L377.546 384.162L374.271 382.809L374.721 381.721ZM485.924 188.738L489.321 189.39L489.099 190.547L485.702 189.894L485.924 188.738ZM450.361 252.085L453.289 250.006L453.971 250.966L451.043 253.046L450.361 252.085ZM527.226 116.702L530.473 115.299L530.94 116.38L527.693 117.784L527.226 116.702ZM368.999 389.551L372.463 388.84L372.7 389.994L369.236 390.705L368.999 389.551ZM417.616 306.106L417.479 302.623L418.656 302.576L418.793 306.059L417.616 306.106ZM444.506 256.243L447.434 254.164L448.116 255.125L445.189 257.204L444.506 256.243ZM429.341 279.116L432.814 280.033L432.513 281.172L429.04 280.255L429.341 279.116ZM508.703 146.265L507.475 142.948L508.58 142.539L509.807 145.856L508.703 146.265ZM426.99 288.476L424.681 285.897L425.559 285.111L427.868 287.69L426.99 288.476ZM520.731 119.509L523.978 118.106L524.446 119.187L521.198 120.591L520.731 119.509ZM527.667 104.884L530.914 106.105L530.5 107.207L527.252 105.987L527.667 104.884ZM438.652 260.401L441.579 258.322L442.261 259.283L439.334 261.362L438.652 260.401ZM362.071 390.973L365.535 390.262L365.772 391.416L362.308 392.127L362.071 390.973ZM479.13 187.433L482.527 188.085L482.305 189.242L478.908 188.59L479.13 187.433ZM368.171 379.016L371.446 380.368L370.996 381.457L367.722 380.105L368.171 379.016ZM417.341 299.139L417.204 295.656L418.381 295.61L418.519 299.093L417.341 299.139ZM432.797 264.56L435.724 262.481L436.406 263.441L433.479 265.52L432.797 264.56ZM514.236 122.317L517.483 120.913L517.951 121.994L514.703 123.398L514.236 122.317ZM506.248 139.631L505.021 136.315L506.126 135.906L507.353 139.223L506.248 139.631ZM417.067 292.173L416.929 288.69L418.107 288.643L418.244 292.126L417.067 292.173ZM422.396 277.281L425.869 278.199L425.568 279.338L422.096 278.42L422.396 277.281ZM422.372 283.317L420.062 280.737L420.94 279.952L423.249 282.531L422.372 283.317ZM355.143 392.395L358.607 391.684L358.844 392.838L355.38 393.549L355.143 392.395ZM426.942 268.718L429.87 266.639L430.552 267.599L427.624 269.678L426.942 268.718ZM521.172 102.444L524.419 103.664L524.005 104.767L520.757 103.546L521.172 102.444ZM472.336 186.129L475.733 186.781L475.511 187.938L472.113 187.286L472.336 186.129ZM507.741 125.124L510.988 123.72L511.456 124.802L508.208 126.205L507.741 125.124ZM361.622 376.312L364.896 377.664L364.447 378.753L361.172 377.401L361.622 376.312ZM416.792 285.206L416.655 281.723L417.832 281.677L417.969 285.16L416.792 285.206ZM421.087 272.876L424.015 270.797L424.697 271.757L421.77 273.837L421.087 272.876ZM503.794 132.998L502.566 129.681L503.671 129.273L504.898 132.589L503.794 132.998ZM348.215 393.816L351.679 393.106L351.916 394.26L348.452 394.97L348.215 393.816ZM418.404 276.227L418.924 276.364L418.623 277.503L418.516 277.475L417.753 278.158L417.69 278.088L417.695 278.193L416.517 278.24L416.51 278.054L416.39 278.202L415.843 277.756L415.73 277.815L415.595 277.555L415.476 277.458L415.518 277.407L415.188 276.769L415.743 276.482L415.174 276.195L415.705 275.143L416.259 275.422L416.159 274.845L417.32 274.645L417.459 275.453L418.16 274.955L418.842 275.916L418.404 276.227ZM501.246 127.931L504.494 126.527L504.961 127.609L501.713 129.012L501.246 127.931ZM514.677 100.003L517.924 101.223L517.51 102.326L514.262 101.106L514.677 100.003ZM465.541 184.824L468.938 185.476L468.716 186.633L465.319 185.981L465.541 184.824ZM411.058 282.879L413.267 280.168L414.181 280.913L411.972 283.623L411.058 282.879ZM501.339 126.365L500.112 123.048L501.217 122.639L502.444 125.956L501.339 126.365ZM406.641 288.299L408.85 285.589L409.763 286.333L407.554 289.043L406.641 288.299ZM355.072 373.607L358.347 374.96L357.897 376.048L354.622 374.696L355.072 373.607ZM408.874 280.035L412.031 278.402L412.572 279.448L409.415 281.082L408.874 280.035ZM402.223 293.72L404.432 291.009L405.345 291.754L403.136 294.464L402.223 293.72ZM494.751 130.738L497.999 129.334L498.466 130.416L495.219 131.819L494.751 130.738ZM341.287 395.238L344.751 394.527L344.988 395.681L341.524 396.392L341.287 395.238ZM415.564 271.385L414.969 267.926L416.13 267.726L416.725 271.186L415.564 271.385ZM397.805 299.14L400.014 296.43L400.927 297.174L398.718 299.884L397.805 299.14ZM393.387 304.561L395.596 301.85L396.509 302.595L394.3 305.305L393.387 304.561ZM409.313 271.918L412.509 273.531L411.978 274.582L408.783 272.97L409.313 271.918ZM388.969 309.981L391.178 307.271L392.091 308.015L389.882 310.725L388.969 309.981ZM402.56 283.302L405.717 281.669L406.258 282.715L403.101 284.349L402.56 283.302ZM458.747 183.52L462.144 184.172L461.922 185.329L458.525 184.677L458.747 183.52ZM488.256 133.545L491.504 132.142L491.971 133.223L488.724 134.627L488.256 133.545ZM498.885 119.731L497.657 116.415L498.762 116.006L499.989 119.323L498.885 119.731ZM508.182 97.5625L511.429 98.7828L511.015 99.8856L507.768 98.6653L508.182 97.5625ZM384.551 315.402L386.76 312.691L387.673 313.436L385.464 316.146L384.551 315.402ZM414.374 264.466L413.779 261.006L414.94 260.807L415.535 264.266L414.374 264.466ZM380.133 320.822L382.342 318.112L383.255 318.856L381.046 321.566L380.133 320.822ZM334.359 396.66L337.823 395.949L338.06 397.103L334.596 397.814L334.359 396.66ZM348.522 370.903L351.797 372.255L351.348 373.344L348.073 371.992L348.522 370.903ZM375.715 326.243L377.924 323.532L378.838 324.277L376.629 326.987L375.715 326.243ZM396.246 286.569L399.403 284.936L399.944 285.982L396.787 287.616L396.246 286.569ZM371.297 331.663L373.506 328.953L374.42 329.697L372.211 332.407L371.297 331.663ZM481.761 136.352L485.009 134.949L485.476 136.03L482.229 137.434L481.761 136.352ZM366.88 337.084L369.089 334.373L370.002 335.118L367.793 337.828L366.88 337.084ZM413.184 257.547L412.589 254.087L413.75 253.887L414.345 257.347L413.184 257.547ZM496.43 113.098L495.203 109.781L496.308 109.373L497.535 112.689L496.43 113.098ZM402.921 268.694L406.117 270.306L405.587 271.358L402.391 269.745L402.921 268.694ZM362.462 342.504L364.671 339.794L365.584 340.538L363.375 343.248L362.462 342.504ZM451.953 182.215L455.35 182.867L455.128 184.024L451.73 183.372L451.953 182.215ZM327.431 398.082L330.895 397.371L331.132 398.525L327.668 399.236L327.431 398.082ZM358.044 347.925L360.253 345.214L361.166 345.959L358.957 348.669L358.044 347.925ZM501.687 95.1219L504.935 96.3422L504.52 97.445L501.273 96.2248L501.687 95.1219ZM389.931 289.836L393.088 288.203L393.63 289.249L390.473 290.882L389.931 289.836ZM353.626 353.345L355.835 350.635L356.748 351.379L354.539 354.089L353.626 353.345ZM475.267 139.159L478.514 137.756L478.981 138.837L475.734 140.241L475.267 139.159ZM342.771 368.528L345.248 369.551L344.798 370.64L341.994 369.482L341.285 370.351L340.372 369.607L342.581 366.896L343.494 367.641L342.771 368.528ZM349.208 358.766L351.417 356.055L352.33 356.8L350.121 359.51L349.208 358.766ZM411.994 250.627L411.399 247.167L412.56 246.968L413.155 250.427L411.994 250.627ZM344.79 364.186L346.999 361.476L347.912 362.22L345.703 364.93L344.79 364.186ZM493.975 106.465L492.748 103.148L493.853 102.739L495.08 106.056L493.975 106.465ZM383.617 293.103L386.774 291.47L387.316 292.516L384.158 294.149L383.617 293.103ZM320.504 399.503L323.967 398.792L324.204 399.946L320.74 400.657L320.504 399.503ZM335.954 375.027L338.163 372.317L339.077 373.061L336.868 375.771L335.954 375.027ZM468.772 141.967L472.019 140.563L472.487 141.644L469.239 143.048L468.772 141.967ZM396.53 265.469L399.726 267.081L399.195 268.133L395.999 266.521L396.53 265.469ZM445.158 180.911L448.555 181.563L448.333 182.72L444.936 182.068L445.158 180.911ZM331.536 380.447L333.745 377.737L334.659 378.482L332.45 381.192L331.536 380.447ZM495.192 92.6814L498.44 93.9017L498.025 95.0045L494.778 93.7842L495.192 92.6814ZM410.804 243.708L410.209 240.248L411.37 240.048L411.965 243.508L410.804 243.708ZM327.119 385.868L329.328 383.158L330.241 383.902L328.032 386.612L327.119 385.868ZM377.303 296.37L380.46 294.736L381.001 295.783L377.844 297.416L377.303 296.37ZM335.423 365.494L338.698 366.846L338.248 367.935L334.974 366.583L335.423 365.494ZM322.701 391.289L324.91 388.578L325.823 389.323L323.614 392.033L322.701 391.289ZM491.521 99.8314L490.294 96.5147L491.399 96.1058L492.626 99.4225L491.521 99.8314ZM462.277 144.774L465.524 143.37L465.992 144.452L462.744 145.855L462.277 144.774ZM318.283 396.709L320.492 393.999L321.405 394.743L319.196 397.453L318.283 396.709ZM316.927 400.237L317.04 400.214L317.276 401.368L315.12 401.811L314.05 399.874L315.081 399.304L315.52 400.099L316.074 399.419L316.987 400.164L316.927 400.237ZM409.614 236.788L409.019 233.329L410.18 233.129L410.775 236.589L409.614 236.788ZM370.989 299.637L374.146 298.003L374.687 299.05L371.53 300.683L370.989 299.637ZM438.364 179.606L441.761 180.258L441.539 181.415L438.142 180.763L438.364 179.606ZM390.138 262.244L393.334 263.857L392.803 264.909L389.608 263.296L390.138 262.244ZM489.314 90.4725L491.945 91.4611L491.531 92.5639L489.855 91.9342L490.171 92.7892L489.066 93.198L488.396 91.386L488.283 91.3436L488.332 91.2134L487.839 89.8813L488.944 89.4725L489.314 90.4725ZM455.782 147.581L459.029 146.177L459.497 147.259L456.249 148.662L455.782 147.581ZM364.674 302.904L367.832 301.27L368.373 302.317L365.216 303.95L364.674 302.904ZM328.874 362.79L332.148 364.142L331.699 365.231L328.424 363.879L328.874 362.79ZM408.424 229.869L407.828 226.409L408.989 226.21L409.585 229.669L408.424 229.869ZM312.328 396.759L310.607 393.644L311.638 393.074L313.359 396.189L312.328 396.759ZM449.287 150.388L452.535 148.984L453.002 150.066L449.754 151.469L449.287 150.388ZM431.57 178.302L434.967 178.954L434.745 180.111L431.347 179.459L431.57 178.302ZM358.36 306.17L361.517 304.537L362.059 305.583L358.902 307.217L358.36 306.17ZM383.746 259.02L386.942 260.632L386.412 261.684L383.216 260.072L383.746 259.02ZM486.612 86.5647L485.385 83.248L486.49 82.8391L487.717 86.1558L486.612 86.5647ZM482.203 87.8002L485.45 89.0205L485.036 90.1233L481.788 88.903L482.203 87.8002ZM407.233 222.95L406.638 219.49L407.799 219.29L408.394 222.75L407.233 222.95ZM308.885 390.53L307.164 387.415L308.195 386.845L309.916 389.96L308.885 390.53ZM442.792 153.195L446.04 151.792L446.507 152.873L443.26 154.277L442.792 153.195ZM322.324 360.085L325.599 361.438L325.149 362.526L321.874 361.174L322.324 360.085ZM352.046 309.437L355.203 307.804L355.745 308.85L352.587 310.484L352.046 309.437ZM406.043 216.03L405.448 212.57L406.609 212.371L407.204 215.83L406.043 216.03ZM424.775 176.997L428.172 177.65L427.95 178.807L424.553 178.154L424.775 176.997ZM484.157 79.9313L482.93 76.6146L484.035 76.2058L485.262 79.5225L484.157 79.9313ZM436.297 156.002L439.545 154.599L440.012 155.68L436.765 157.084L436.297 156.002ZM345.732 312.704L348.889 311.071L349.43 312.117L346.273 313.751L345.732 312.704ZM377.355 255.795L380.551 257.407L380.02 258.459L376.824 256.847L377.355 255.795ZM475.708 85.3596L478.955 86.5799L478.541 87.6827L475.293 86.4624L475.708 85.3596ZM305.442 384.3L303.721 381.185L304.752 380.615L306.473 383.73L305.442 384.3ZM404.853 209.111L404.258 205.651L405.419 205.451L406.014 208.911L404.853 209.111ZM315.774 357.381L319.049 358.733L318.6 359.822L315.325 358.47L315.774 357.381ZM339.418 315.971L342.575 314.338L343.116 315.384L339.959 317.017L339.418 315.971ZM429.802 158.809L433.05 157.406L433.517 158.487L430.27 159.891L429.802 158.809ZM481.703 73.2979L480.476 69.9813L481.58 69.5724L482.808 72.8891L481.703 73.2979ZM417.981 175.693L421.378 176.345L421.156 177.502L417.759 176.85L417.981 175.693ZM403.663 202.191L403.068 198.732L404.229 198.532L404.824 201.992L403.663 202.191ZM469.213 82.9191L472.46 84.1393L472.046 85.2422L468.799 84.0219L469.213 82.9191ZM370.963 252.57L374.159 254.183L373.628 255.235L370.433 253.622L370.963 252.57ZM301.999 378.07L300.278 374.955L301.309 374.385L303.03 377.5L301.999 378.07ZM333.103 319.238L336.261 317.605L336.802 318.651L333.645 320.284L333.103 319.238ZM423.308 161.617L426.555 160.213L427.022 161.294L423.775 162.698L423.308 161.617ZM479.248 66.6646L478.021 63.3479L479.126 62.9391L480.353 66.2557L479.248 66.6646ZM309.225 354.677L312.5 356.029L312.05 357.118L308.775 355.765L309.225 354.677ZM326.789 322.505L329.946 320.871L330.488 321.918L327.331 323.551L326.789 322.505ZM402.473 195.272L401.878 191.812L403.039 191.613L403.634 195.072L402.473 195.272ZM411.187 174.388L414.584 175.041L414.362 176.198L410.964 175.545L411.187 174.388ZM416.813 164.424L420.06 163.02L420.528 164.102L417.28 165.505L416.813 164.424ZM298.556 371.841L296.835 368.726L297.866 368.156L299.587 371.271L298.556 371.841ZM462.718 80.4785L465.966 81.6988L465.551 82.8016L462.304 81.5813L462.718 80.4785ZM364.572 249.346L367.767 250.958L367.237 252.01L364.041 250.398L364.572 249.346ZM476.794 60.0312L475.567 56.7145L476.671 56.3057L477.899 59.6224L476.794 60.0312ZM320.475 325.772L323.632 324.138L324.174 325.185L321.016 326.818L320.475 325.772ZM401.283 188.353L400.688 184.893L401.849 184.693L402.444 188.153L401.283 188.353ZM410.318 167.231L413.565 165.827L414.033 166.909L410.785 168.312L410.318 167.231ZM302.675 351.972L305.95 353.324L305.5 354.413L302.226 353.061L302.675 351.972ZM404.392 173.084L407.789 173.736L407.567 174.893L404.17 174.241L404.392 173.084ZM314.161 329.039L317.318 327.405L317.859 328.452L314.702 330.085L314.161 329.039ZM295.113 365.611L293.392 362.496L294.423 361.926L296.144 365.041L295.113 365.611ZM474.339 53.3979L473.112 50.0812L474.217 49.6723L475.444 52.989L474.339 53.3979ZM400.093 181.433L399.498 177.973L400.659 177.774L401.254 181.233L400.093 181.433ZM403.823 170.038L407.07 168.634L407.538 169.716L404.29 171.119L403.823 170.038ZM456.223 78.0379L459.471 79.2582L459.056 80.361L455.809 79.1407L456.223 78.0379ZM358.18 246.121L361.376 247.733L360.845 248.785L357.649 247.173L358.18 246.121ZM307.847 332.306L311.004 330.672L311.545 331.718L308.388 333.352L307.847 332.306ZM296.126 349.268L299.4 350.62L298.951 351.709L295.676 350.357L296.126 349.268ZM400.972 172.554L401.043 172.523L400.576 171.442L400.476 171.484L400.543 171.357L399.58 170.854L399.58 170.851L399.576 170.852L399.499 170.811L399.472 170.863L398.409 170.978L398.602 172.766L398.902 174.514L400.064 174.314L399.91 173.423L400.773 173.589L400.972 172.554ZM291.67 359.381L289.949 356.266L290.98 355.696L292.701 358.811L291.67 359.381ZM471.885 46.7645L470.658 43.4478L471.762 43.039L472.99 46.3557L471.885 46.7645ZM401.17 167.611L402.841 164.411L403.885 164.956L402.214 168.156L401.17 167.611ZM404.512 161.21L406.183 158.01L407.227 158.555L405.556 161.755L404.512 161.21ZM301.532 335.572L304.69 333.939L305.231 334.985L302.074 336.619L301.532 335.572ZM407.854 154.809L409.525 151.609L410.569 152.154L408.898 155.355L407.854 154.809ZM411.196 148.409L412.867 145.208L413.911 145.754L412.24 148.954L411.196 148.409ZM414.538 142.008L416.209 138.808L417.254 139.353L415.582 142.553L414.538 142.008ZM450.409 75.8531L452.976 76.8176L452.561 77.9204L449.86 76.9052L449.003 78.5457L447.959 78.0004L449.63 74.8L450.674 75.3453L450.409 75.8531ZM417.88 135.607L419.551 132.407L420.596 132.952L418.925 136.152L417.88 135.607ZM421.222 129.206L422.893 126.006L423.938 126.551L422.267 129.752L421.222 129.206ZM424.564 122.806L426.235 119.605L427.28 120.151L425.609 123.351L424.564 122.806ZM427.906 116.405L429.578 113.205L430.622 113.75L428.951 116.95L427.906 116.405ZM351.788 242.897L354.984 244.509L354.453 245.561L351.258 243.948L351.788 242.897ZM431.249 110.004L432.92 106.804L433.964 107.349L432.293 110.549L431.249 110.004ZM398.027 167.439L397.645 163.899L398.816 163.773L399.198 167.312L398.027 167.439ZM434.591 103.603L436.262 100.403L437.306 100.948L435.635 104.149L434.591 103.603ZM437.933 97.2026L439.604 94.0023L440.648 94.5475L438.977 97.7479L437.933 97.2026ZM441.275 90.8019L442.946 87.6015L443.99 88.1468L442.319 91.3472L441.275 90.8019ZM444.617 84.4012L446.288 81.2008L447.332 81.7461L445.661 84.9464L444.617 84.4012ZM295.218 338.839L298.375 337.206L298.917 338.252L295.76 339.886L295.218 338.839ZM451.301 71.5997L452.972 68.3993L454.016 68.9446L452.345 72.1449L451.301 71.5997ZM289.576 346.563L292.851 347.916L292.401 349.004L289.126 347.652L289.576 346.563ZM454.643 65.1989L456.314 61.9986L457.358 62.5438L455.687 65.7442L454.643 65.1989ZM469.277 39.7172L469.056 40.1412L468.011 39.5959L468.298 39.0472L467.735 39.1426L467.538 37.9811L469.752 37.6061L470.535 39.7223L469.43 40.1312L469.277 39.7172ZM457.985 58.7982L459.656 55.5978L460.7 56.1431L459.029 59.3434L457.985 58.7982ZM461.327 52.3974L462.998 49.1971L464.043 49.7423L462.372 52.9427L461.327 52.3974ZM288.227 353.151L286.506 350.037L287.537 349.467L289.258 352.582L288.227 353.151ZM464.669 45.9967L466.34 42.7963L467.385 43.3416L465.714 46.542L464.669 45.9967ZM270.522 382.681C270.308 382.557 270.093 382.433 269.879 382.308L270.472 381.29C270.685 381.414 270.898 381.537 271.111 381.661L270.522 382.681ZM397.263 160.36L396.881 156.821L398.052 156.695L398.434 160.234L397.263 160.36ZM288.904 342.106L292.061 340.473L292.602 341.519L289.445 343.152L288.904 342.106ZM443.234 73.1567L446.481 74.377L446.067 75.4798L442.819 74.2595L443.234 73.1567ZM268.597 381.555C268.383 381.429 268.17 381.302 267.958 381.175L267.505 380.905L268.398 378.943L269.47 379.43L269.014 380.433C269.075 380.469 269.136 380.505 269.197 380.541L268.597 381.555ZM269.746 375.977L271.094 373.011L272.167 373.499L270.818 376.464L269.746 375.977ZM345.397 239.672L348.592 241.284L348.062 242.336L344.866 240.724L345.397 239.672ZM272.442 370.045L273.791 367.079L274.863 367.567L273.515 370.533L272.442 370.045ZM460.607 39.1548L464.072 38.5679L464.269 39.7295L460.804 40.3163L460.607 39.1548ZM275.139 364.114L276.487 361.148L277.56 361.635L276.211 364.601L275.139 364.114ZM396.499 153.282L396.117 149.743L397.288 149.616L397.67 153.156L396.499 153.282ZM277.836 358.182L279.184 355.216L280.256 355.704L278.908 358.669L277.836 358.182ZM285.837 345.019L286.301 345.211L285.852 346.3L285.767 346.265L285.815 346.352L284.784 346.922L284.49 346.39L284.301 346.806L283.229 346.319L283.65 345.391L282.555 344.94L282.884 344.14L282.858 344.109L282.917 344.06L283.003 343.851L283.113 343.896L283.761 343.353L284.199 343.876L284.417 343.183L285.541 343.536L285.425 343.906L285.747 343.74L286.288 344.786L285.837 345.019ZM280.532 352.25L281.88 349.284L282.953 349.772L281.605 352.738L280.532 352.25ZM285.497 339.742L286.577 336.302L287.701 336.655L286.621 340.095L285.497 339.742ZM436.739 70.7162L439.986 71.9364L439.572 73.0393L436.324 71.819L436.739 70.7162ZM395.735 146.204L395.353 142.665L396.524 142.538L396.906 146.077L395.735 146.204ZM287.657 332.862L288.737 329.421L289.861 329.774L288.781 333.214L287.657 332.862ZM453.676 40.3285L457.141 39.7416L457.338 40.9032L453.873 41.4901L453.676 40.3285ZM339.005 236.447L342.201 238.06L341.67 239.111L338.474 237.499L339.005 236.447ZM289.818 325.981L290.898 322.54L292.022 322.893L290.942 326.334L289.818 325.981ZM280.599 341.412L278.341 338.716L279.244 337.959L281.503 340.656L280.599 341.412ZM276.363 341.115L279.683 342.483L279.234 343.572L275.914 342.204L276.363 341.115ZM291.978 319.1L293.058 315.66L294.182 316.012L293.102 319.453L291.978 319.1ZM394.971 139.125L394.589 135.586L395.76 135.46L396.142 138.999L394.971 139.125ZM294.138 312.219L295.218 308.779L296.342 309.132L295.262 312.572L294.138 312.219ZM446.745 41.5022L450.21 40.9154L450.407 42.0769L446.942 42.6638L446.745 41.5022ZM296.298 305.338L297.378 301.898L298.502 302.251L297.422 305.691L296.298 305.338ZM430.244 68.2756L433.491 69.4959L433.077 70.5987L429.83 69.3784L430.244 68.2756ZM298.458 298.457L299.539 295.017L300.663 295.37L299.582 298.81L298.458 298.457ZM394.207 132.047L393.824 128.508L394.996 128.382L395.378 131.921L394.207 132.047ZM332.613 233.223L335.809 234.835L335.278 235.887L332.083 234.274L332.613 233.223ZM276.082 336.019L273.824 333.322L274.727 332.566L276.985 335.262L276.082 336.019ZM300.619 291.577L301.699 288.136L302.823 288.489L301.743 291.929L300.619 291.577ZM269.722 338.379L273.043 339.747L272.594 340.836L269.274 339.468L269.722 338.379ZM302.779 284.696L303.859 281.255L304.983 281.608L303.903 285.049L302.779 284.696ZM439.814 42.676L443.279 42.0891L443.476 43.2506L440.01 43.8375L439.814 42.676ZM393.442 124.969L393.06 121.43L394.232 121.303L394.614 124.842L393.442 124.969ZM304.939 277.815L306.019 274.375L307.143 274.727L306.063 278.168L304.939 277.815ZM423.749 65.835L426.996 67.0553L426.582 68.1581L423.335 66.9378L423.749 65.835ZM307.099 270.934L308.179 267.494L309.303 267.847L308.223 271.287L307.099 270.934ZM326.222 229.998L329.417 231.61L328.887 232.662L325.691 231.05L326.222 229.998ZM309.259 264.053L310.34 260.613L311.464 260.966L310.383 264.406L309.259 264.053ZM271.565 330.625L269.306 327.929L270.21 327.172L272.468 329.869L271.565 330.625ZM432.883 43.8497L436.348 43.2628L436.545 44.4244L433.079 45.0112L432.883 43.8497ZM392.678 117.89L392.296 114.351L393.468 114.225L393.85 117.764L392.678 117.89ZM311.42 257.172L312.5 253.732L313.624 254.085L312.544 257.525L311.42 257.172ZM263.082 335.643L266.402 337.011L265.953 338.1L262.633 336.732L263.082 335.643ZM313.58 250.292L314.66 246.851L315.784 247.204L314.704 250.644L313.58 250.292ZM417.254 63.3944L420.502 64.6147L420.087 65.7175L416.84 64.4972L417.254 63.3944ZM315.74 243.411L316.82 239.97L317.944 240.323L316.864 243.764L315.74 243.411ZM391.914 110.812L391.532 107.273L392.704 107.147L393.086 110.686L391.914 110.812ZM425.952 45.0234L429.417 44.4365L429.614 45.5981L426.148 46.185L425.952 45.0234ZM317.9 236.53L318.98 233.09L320.104 233.442L319.024 236.883L317.9 236.53ZM267.048 325.232L264.789 322.535L265.692 321.779L267.951 324.475L267.048 325.232ZM323.026 228.386L322.495 229.437L321.517 228.944L321.184 230.002L320.06 229.649L320.103 229.512L320.023 229.566L319.373 228.583L319.498 228.5L319.311 228.478L319.451 227.308L321.335 227.533L323.026 228.386ZM256.442 332.907L259.762 334.275L259.313 335.364L255.993 333.996L256.442 332.907ZM391.15 103.734L390.768 100.195L391.94 100.068L392.322 103.607L391.15 103.734ZM313.513 232.46L316.443 230.522L317.093 231.504L314.163 233.442L313.513 232.46ZM410.759 60.9538L414.007 62.1741L413.592 63.2769L410.345 62.0566L410.759 60.9538ZM419.021 46.1971L422.486 45.6103L422.683 46.7718L419.217 47.3587L419.021 46.1971ZM262.53 319.838L260.272 317.142L261.175 316.385L263.434 319.082L262.53 319.838ZM312.324 226.457L315.888 226.882L315.748 228.052L312.185 227.627L312.324 226.457ZM390.386 96.6556L390.004 93.1165L391.176 92.9901L391.558 96.5292L390.386 96.6556ZM307.654 236.336L310.583 234.398L311.233 235.381L308.304 237.319L307.654 236.336ZM249.801 330.171L253.121 331.539L252.673 332.629L249.352 331.261L249.801 330.171ZM301.794 240.213L304.724 238.275L305.374 239.257L302.444 241.195L301.794 240.213ZM412.09 47.3709L415.555 46.784L415.752 47.9455L412.286 48.5324L412.09 47.3709ZM389.622 89.5773L389.24 86.0382L390.411 85.9118L390.793 89.4509L389.622 89.5773ZM404.265 58.5133L407.512 59.7336L407.098 60.8364L403.85 59.6161L404.265 58.5133ZM258.013 314.445L255.755 311.748L256.658 310.992L258.916 313.688L258.013 314.445ZM295.935 244.089L298.864 242.151L299.514 243.134L296.585 245.072L295.935 244.089ZM305.198 225.606L308.761 226.032L308.621 227.202L305.058 226.776L305.198 225.606ZM388.858 82.499L388.476 78.9599L389.647 78.8335L390.029 82.3726L388.858 82.499ZM405.159 48.5446L408.624 47.9577L408.821 49.1193L405.355 49.7061L405.159 48.5446ZM243.161 327.435L246.481 328.803L246.032 329.893L242.712 328.525L243.161 327.435ZM290.075 247.966L293.005 246.028L293.655 247.01L290.725 248.948L290.075 247.966ZM397.77 56.0727L401.017 57.293L400.603 58.3958L397.355 57.1755L397.77 56.0727ZM419.917 19.1977L421.181 17.9855L421.996 18.8358L420.732 20.048L419.917 19.1977ZM388.094 75.4208L387.712 71.8816L388.883 71.7552L389.265 75.2943L388.094 75.4208ZM284.216 251.842L287.145 249.904L287.796 250.887L284.866 252.825L284.216 251.842ZM253.496 309.051L251.237 306.354L252.14 305.598L254.399 308.295L253.496 309.051ZM298.071 224.756L301.635 225.181L301.495 226.351L297.932 225.925L298.071 224.756ZM414.861 24.0466L417.389 21.6222L418.204 22.4724L415.676 24.8969L414.861 24.0466ZM398.228 49.7183L401.693 49.1314L401.89 50.293L398.424 50.8799L398.228 49.7183ZM278.356 255.719L281.286 253.781L281.936 254.763L279.006 256.702L278.356 255.719ZM409.805 28.8956L412.333 26.4711L413.148 27.3214L410.62 29.7458L409.805 28.8956ZM236.52 324.7L239.84 326.067L239.392 327.157L236.071 325.789L236.52 324.7ZM387.33 68.3425L386.948 64.8033L388.119 64.6769L388.501 68.216L387.33 68.3425ZM404.749 33.7445L407.277 31.32L408.092 32.1703L405.564 34.5948L404.749 33.7445ZM391.275 53.6321L394.522 54.8524L394.108 55.9552L390.86 54.7349L391.275 53.6321ZM272.497 259.596L275.427 257.657L276.077 258.64L273.147 260.578L272.497 259.596ZM248.979 303.658L246.72 300.961L247.623 300.204L249.882 302.901L248.979 303.658ZM391.296 50.892L394.762 50.3052L394.959 51.4667L391.493 52.0536L391.296 50.892ZM290.945 223.905L294.508 224.33L294.369 225.5L290.805 225.075L290.945 223.905ZM399.693 38.5934L402.221 36.169L403.036 37.0192L400.508 39.4437L399.693 38.5934ZM386.566 61.2642L386.184 57.725L387.355 57.5986L387.737 61.1378L386.566 61.2642ZM394.637 43.4423L397.165 41.0179L397.98 41.8682L395.452 44.2926L394.637 43.4423ZM266.637 263.472L269.567 261.534L270.217 262.516L267.287 264.455L266.637 263.472ZM229.88 321.964L233.2 323.332L232.751 324.421L229.431 323.053L229.88 321.964ZM389.581 48.2913L392.109 45.8668L392.924 46.7171L390.396 49.1415L389.581 48.2913ZM387.986 52.3964L388.027 52.4118L388.001 52.4824L388.028 52.6405L387.936 52.656L387.613 53.5146L386.885 53.241L386.973 54.0595L385.802 54.1859L385.744 53.6455L385.362 54.0298L384.749 53.4211L384.693 53.4386L384.66 53.3323L384.526 53.1998L384.596 53.1291L384.474 52.7358L384.322 52.7172L384.363 52.381L384.342 52.3138L384.373 52.3044L384.465 51.5478L384.658 51.5714L385.041 50.9493L385.438 51.1938L385.375 50.7499L386.541 50.5849L386.619 51.132L387.053 50.7157L387.791 51.4856L387.831 51.4789L387.841 51.5374L387.868 51.566L387.849 51.5846L387.986 52.3964ZM260.778 267.349L263.708 265.41L264.358 266.393L261.428 268.331L260.778 267.349ZM244.461 298.264L242.203 295.567L243.106 294.811L245.365 297.508L244.461 298.264ZM283.819 223.054L287.382 223.48L287.242 224.649L283.679 224.224L283.819 223.054ZM379.516 58.2466L382.021 55.7232L382.857 56.5531L380.353 59.0765L379.516 58.2466ZM254.918 271.225L257.848 269.287L258.498 270.269L255.568 272.208L254.918 271.225ZM374.507 63.2933L377.012 60.7699L377.848 61.5999L375.343 64.1233L374.507 63.2933ZM384.898 47.3786L384.421 44.0072L385.588 43.8422L386.064 47.2136L384.898 47.3786ZM377.626 54.4064L380.984 53.3601L381.335 54.4849L377.976 55.5311L377.626 54.4064ZM223.239 319.228L226.56 320.596L226.111 321.685L222.791 320.317L223.239 319.228ZM369.497 68.3401L372.002 65.8167L372.838 66.6467L370.333 69.17L369.497 68.3401ZM249.059 275.102L251.989 273.163L252.639 274.146L249.709 276.084L249.059 275.102ZM377.253 50.6655L380.859 51.1067L380.716 52.276L377.11 51.8349L377.253 50.6655ZM379.182 47.3405L382.111 49.1449L381.494 50.148L378.564 48.3435L379.182 47.3405ZM239.944 292.871L237.686 290.174L238.589 289.417L240.847 292.114L239.944 292.871ZM276.692 222.204L280.255 222.629L280.116 223.799L276.553 223.373L276.692 222.204ZM364.487 73.3868L366.992 70.8635L367.828 71.6934L365.324 74.2168L364.487 73.3868ZM383.944 40.6358L383.467 37.2645L384.634 37.0995L385.111 40.4708L383.944 40.6358ZM243.199 278.978L246.129 277.04L246.779 278.023L243.849 279.961L243.199 278.978ZM370.91 56.4989L374.268 55.4526L374.618 56.5774L371.26 57.6236L370.91 56.4989ZM359.478 78.4336L361.983 75.9102L362.819 76.7402L360.314 79.2636L359.478 78.4336ZM354.468 83.4804L356.973 80.957L357.809 81.7869L355.304 84.3103L354.468 83.4804ZM237.34 282.855L240.27 280.917L240.92 281.899L237.99 283.837L237.34 282.855ZM382.991 33.8931L382.514 30.5217L383.68 30.3567L384.157 33.7281L382.991 33.8931ZM216.599 316.492L219.919 317.86L219.47 318.949L216.15 317.581L216.599 316.492ZM370.041 49.7832L373.647 50.2244L373.504 51.3937L369.898 50.9526L370.041 49.7832ZM349.459 88.5271L351.963 86.0038L352.799 86.8337L350.295 89.3571L349.459 88.5271ZM373.323 43.7316L376.253 45.536L375.635 46.5391L372.706 44.7346L373.323 43.7316ZM233.618 285.317L233.168 284.78L234.072 284.024L236.33 286.721L235.427 287.477L234.379 286.226L232.13 287.714L231.48 286.731L233.618 285.317ZM364.194 58.5914L367.552 57.5451L367.902 58.6699L364.544 59.7162L364.194 58.5914ZM269.566 221.353L273.129 221.778L272.989 222.948L269.426 222.523L269.566 221.353ZM344.449 93.5739L346.954 91.0505L347.79 91.8805L345.285 94.4038L344.449 93.5739ZM382.037 27.1504L381.56 23.779L382.726 23.614L383.203 26.9854L382.037 27.1504ZM339.439 98.6206L341.944 96.0973L342.78 96.9272L340.275 99.4506L339.439 98.6206ZM334.43 103.667L336.934 101.144L337.771 101.974L335.266 104.497L334.43 103.667ZM225.621 290.608L228.551 288.67L229.201 289.652L226.271 291.59L225.621 290.608ZM357.477 60.6839L360.835 59.6376L361.186 60.7624L357.828 61.8087L357.477 60.6839ZM362.83 48.9009L366.436 49.342L366.292 50.5114L362.686 50.0702L362.83 48.9009ZM209.959 313.756L213.279 315.124L212.83 316.213L209.51 314.845L209.959 313.756ZM367.465 40.1227L370.394 41.9272L369.776 42.9302L366.847 41.1258L367.465 40.1227ZM329.42 108.714L331.925 106.191L332.761 107.021L330.256 109.544L329.42 108.714ZM230.91 282.083L228.651 279.387L229.554 278.63L231.813 281.327L230.91 282.083ZM262.439 220.502L266.003 220.928L265.863 222.097L262.3 221.672L262.439 220.502ZM381.083 20.4076L380.606 17.0363L381.773 16.8713L382.25 20.2427L381.083 20.4076ZM219.761 294.484L222.691 292.546L223.341 293.529L220.411 295.467L219.761 294.484ZM324.41 113.761L326.915 111.238L327.751 112.067L325.246 114.591L324.41 113.761ZM350.761 62.7764L354.119 61.7302L354.47 62.8549L351.112 63.9012L350.761 62.7764ZM319.401 118.808L321.905 116.284L322.742 117.114L320.237 119.638L319.401 118.808ZM213.902 298.361L216.832 296.423L217.482 297.405L214.552 299.343L213.902 298.361ZM379.959 12.4606L380.129 13.6649L381.296 13.4999L380.989 11.3335L380.505 11.3085C379.637 11.2638 378.769 11.2248 377.902 11.1915L377.857 12.3687C378.557 12.3956 379.258 12.4262 379.959 12.4606ZM314.391 123.854L316.896 121.331L317.732 122.161L315.227 124.684L314.391 123.854ZM355.618 48.0186L359.224 48.4597L359.081 49.6291L355.475 49.1879L355.618 48.0186ZM203.318 311.02L206.638 312.388L206.19 313.477L202.869 312.109L203.318 311.02ZM361.606 36.5138L364.535 38.3183L363.918 39.3213L360.988 37.5169L361.606 36.5138ZM226.392 276.69L224.134 273.993L225.037 273.237L227.296 275.933L226.392 276.69ZM255.313 219.651L258.876 220.077L258.737 221.247L255.173 220.821L255.313 219.651ZM309.381 128.901L311.886 126.378L312.722 127.208L310.217 129.731L309.381 128.901ZM208.042 302.237L210.972 300.299L211.622 301.282L208.692 303.22L208.042 302.237ZM344.045 64.8689L347.403 63.8227L347.753 64.9474L344.395 65.9937L344.045 64.8689ZM304.372 133.948L306.877 131.425L307.713 132.255L305.208 134.778L304.372 133.948ZM299.362 138.995L301.867 136.471L302.703 137.301L300.198 139.825L299.362 138.995ZM202.183 306.114L205.113 304.176L205.763 305.158L202.833 307.097L202.183 306.114ZM348.406 47.1362L352.012 47.5774L351.869 48.7468L348.263 48.3056L348.406 47.1362ZM294.352 144.041L296.857 141.518L297.693 142.348L295.189 144.871L294.352 144.041ZM372.678 12.2379C371.815 12.2274 370.952 12.2226 370.089 12.2234L370.087 11.0453C370.956 11.0445 371.824 11.0493 372.693 11.0599L372.678 12.2379ZM337.329 66.9614L340.687 65.9152L341.037 67.04L337.679 68.0862L337.329 66.9614ZM222.778 270.54L221.875 271.296L219.617 268.6L220.52 267.843L222.778 270.54ZM199.365 309.391L199.998 309.652L199.549 310.741L197.524 309.907L197.525 307.74L198.703 307.74L198.703 308.417L199.253 308.052L199.903 309.035L199.365 309.391ZM248.187 218.801L251.75 219.226L251.61 220.396L248.047 219.971L248.187 218.801ZM355.747 32.9049L358.677 34.7094L358.059 35.7125L355.13 33.908L355.747 32.9049ZM291.389 147.027L291.848 146.565L292.684 147.395L291.366 148.722L289.712 149.58L289.17 148.534L289.603 148.31L289.135 148.122L289.574 147.029L290.241 147.296L290.118 146.629L291.277 146.416L291.389 147.027ZM197.525 304.194L197.526 300.648L198.704 300.648L198.703 304.194L197.525 304.194ZM330.612 69.054L333.97 68.0077L334.321 69.1325L330.963 70.1787L330.612 69.054ZM282.88 151.798L286.025 150.166L286.567 151.212L283.422 152.843L282.88 151.798ZM289.487 143.191L288.855 139.754L290.014 139.541L290.645 142.979L289.487 143.191ZM341.194 46.2539L344.8 46.6951L344.657 47.8644L341.051 47.4233L341.194 46.2539ZM217.358 265.903L215.099 263.206L216.003 262.45L218.261 265.146L217.358 265.903ZM241.06 217.95L244.623 218.375L244.484 219.545L240.92 219.12L241.06 217.95ZM349.889 29.2961L352.818 31.1005L352.2 32.1036L349.271 30.2991L349.889 29.2961ZM282.941 144.365L286.257 145.697L285.818 146.79L282.502 145.458L282.941 144.365ZM197.526 297.102L197.527 293.556L198.705 293.556L198.704 297.102L197.526 297.102ZM276.59 155.061L279.735 153.429L280.277 154.475L277.133 156.106L276.59 155.061ZM323.896 71.1465L327.254 70.1002L327.605 71.225L324.247 72.2713L323.896 71.1465ZM288.224 136.316L287.592 132.878L288.751 132.666L289.383 136.103L288.224 136.316ZM197.527 290.01L197.528 286.464L198.706 286.465L198.705 290.01L197.527 290.01ZM270.3 158.324L273.445 156.692L273.988 157.738L270.843 159.37L270.3 158.324ZM333.982 45.3716L337.588 45.8127L337.445 46.9821L333.839 46.541L333.982 45.3716ZM212.841 260.509L210.582 257.812L211.485 257.056L213.744 259.753L212.841 260.509ZM233.934 217.099L237.497 217.525L237.357 218.695L233.794 218.269L233.934 217.099ZM317.18 73.239L320.538 72.1927L320.888 73.3175L317.53 74.3638L317.18 73.239ZM344.03 25.6872L346.959 27.4916L346.342 28.4947L343.412 26.6903L344.03 25.6872ZM286.961 129.441L286.329 126.003L287.488 125.79L288.12 129.228L286.961 129.441ZM276.307 141.701L279.624 143.033L279.185 144.126L275.868 142.794L276.307 141.701ZM197.528 282.919L197.529 279.373L198.707 279.373L198.706 282.919L197.528 282.919ZM264.01 161.587L267.155 159.955L267.698 161.001L264.553 162.633L264.01 161.587ZM197.529 275.827L197.53 272.281L198.708 272.281L198.707 275.827L197.529 275.827ZM310.464 75.3315L313.822 74.2853L314.172 75.41L310.814 76.4563L310.464 75.3315ZM285.698 122.565L285.067 119.128L286.225 118.915L286.857 122.353L285.698 122.565ZM326.77 44.4893L330.376 44.9304L330.233 46.0998L326.627 45.6586L326.77 44.4893ZM257.721 164.85L260.866 163.218L261.408 164.264L258.263 165.896L257.721 164.85ZM208.323 255.116L206.065 252.419L206.968 251.663L209.227 254.359L208.323 255.116ZM226.807 216.249L230.37 216.674L230.231 217.844L226.668 217.419L226.807 216.249ZM338.171 22.0783L341.101 23.8828L340.483 24.8858L337.553 23.0814L338.171 22.0783ZM269.673 139.036L272.99 140.369L272.551 141.462L269.234 140.13L269.673 139.036ZM197.53 268.735L197.531 265.189L198.709 265.189L198.708 268.735L197.53 268.735ZM284.435 115.69L283.804 112.252L284.962 112.04L285.594 115.477L284.435 115.69ZM303.747 77.424L307.105 76.3778L307.456 77.5025L304.098 78.5488L303.747 77.424ZM251.431 168.113L254.576 166.482L255.118 167.527L251.973 169.159L251.431 168.113ZM197.531 261.643L197.532 258.097L198.71 258.098L198.709 261.643L197.531 261.643ZM319.558 43.6069L323.164 44.0481L323.021 45.2175L319.415 44.7763L319.558 43.6069ZM203.806 249.722L201.548 247.025L202.451 246.269L204.709 248.966L203.806 249.722ZM219.681 215.398L223.244 215.823L223.104 216.993L219.541 216.568L219.681 215.398ZM245.141 171.376L248.286 169.745L248.829 170.79L245.684 172.422L245.141 171.376ZM283.172 108.815L282.541 105.377L283.7 105.164L284.331 108.602L283.172 108.815ZM332.313 18.4694L335.242 20.2739L334.624 21.2769L331.695 19.4725L332.313 18.4694ZM297.031 79.5165L300.389 78.4703L300.74 79.5951L297.382 80.6413L297.031 79.5165ZM263.04 136.372L266.356 137.704L265.917 138.798L262.601 137.465L263.04 136.372ZM197.532 254.552L197.533 251.006L198.711 251.006L198.71 254.552L197.532 254.552ZM238.851 174.639L241.996 173.008L242.539 174.054L239.394 175.685L238.851 174.639ZM281.909 101.939L281.278 98.5017L282.437 98.2888L283.068 101.726L281.909 101.939ZM197.533 247.46L197.534 243.914L198.712 243.914L198.711 247.46L197.533 247.46ZM312.347 42.7246L315.953 43.1658L315.809 44.3351L312.204 43.894L312.347 42.7246ZM290.315 81.6091L293.673 80.5628L294.023 81.6876L290.665 82.7338L290.315 81.6091ZM199.289 244.329L197.03 241.632L197.934 240.875L200.192 243.572L199.289 244.329ZM212.554 214.547L216.118 214.973L215.978 216.142L212.415 215.717L212.554 214.547ZM329.383 16.665L328.765 17.6681L327.638 16.9735L326.55 17.7689L325.855 16.818L327.582 15.5551L329.383 16.665ZM232.562 177.902L235.707 176.271L236.249 177.317L233.104 178.948L232.562 177.902ZM256.406 133.708L259.723 135.04L259.284 136.133L255.967 134.801L256.406 133.708ZM197.534 240.368L197.535 236.822L198.713 236.822L198.712 240.368L197.534 240.368ZM280.646 95.064L280.015 91.6263L281.174 91.4135L281.805 94.8512L280.646 95.064ZM283.599 83.7016L286.957 82.6553L287.307 83.7801L283.949 84.8263L283.599 83.7016ZM320.226 20.9344L323.04 18.8762L323.736 19.8271L320.921 21.8854L320.226 20.9344ZM226.272 181.166L229.417 179.534L229.959 180.58L226.814 182.211L226.272 181.166ZM305.135 41.8423L308.741 42.2834L308.598 43.4528L304.992 43.0117L305.135 41.8423ZM197.535 233.276L197.536 229.73L198.714 229.731L198.713 233.276L197.535 233.276ZM194.772 238.935L192.513 236.238L193.416 235.482L195.675 238.179L194.772 238.935ZM205.428 213.697L208.991 214.122L208.852 215.292L205.288 214.866L205.428 213.697ZM314.597 25.0509L317.411 22.9927L318.107 23.9436L315.292 26.0019L314.597 25.0509ZM278.832 85.1866L278.752 84.751L279.911 84.5381L279.965 84.8336L280.24 84.7478L280.591 85.8726L280.179 86.0008L280.542 87.9758L279.384 88.1886L279.047 86.3538L277.233 86.9189L276.882 85.7941L278.832 85.1866ZM219.982 184.429L223.127 182.797L223.67 183.843L220.525 185.474L219.982 184.429ZM249.772 131.044L253.089 132.376L252.65 133.469L249.333 132.137L249.772 131.044ZM197.536 226.184L197.537 222.639L198.715 222.639L198.714 226.185L197.536 226.184ZM308.968 29.1674L311.782 27.1092L312.478 28.0601L309.663 30.1183L308.968 29.1674ZM278.121 81.3133L277.489 77.8756L278.648 77.6628L279.279 81.1004L278.121 81.3133ZM297.923 40.96L301.529 41.4011L301.386 42.5705L297.78 42.1293L297.923 40.96ZM190.254 233.542L187.996 230.845L188.899 230.088L191.158 232.785L190.254 233.542ZM198.302 212.846L201.865 213.271L201.725 214.441L198.162 214.016L198.302 212.846ZM303.339 33.2839L306.153 31.2257L306.849 32.1766L304.034 34.2348L303.339 33.2839ZM213.692 187.692L216.837 186.06L217.38 187.106L214.235 188.738L213.692 187.692ZM197.537 219.093L197.538 215.547L198.716 215.547L198.715 219.093L197.537 219.093ZM270.166 87.8866L273.524 86.8403L273.875 87.9651L270.517 89.0114L270.166 87.8866ZM297.71 37.4004L300.524 35.3421L301.22 36.2931L298.405 38.3513L297.71 37.4004ZM243.139 128.38L246.455 129.712L246.016 130.805L242.7 129.473L243.139 128.38ZM197.538 212.001L197.539 208.455L198.717 208.455L198.716 212.001L197.538 212.001ZM207.403 190.955L210.548 189.323L211.09 190.369L207.945 192.001L207.403 190.955ZM276.858 74.4379L276.226 71.0003L277.385 70.7874L278.016 74.2251L276.858 74.4379ZM263.45 89.9791L266.808 88.9329L267.158 90.0576L263.8 91.1039L263.45 89.9791ZM293.57 40.4274L294.895 39.4586L295.59 40.4096L294.207 41.4217L294.174 41.6882L293.89 41.6534L292.776 42.4678L292.081 41.5169L292.18 41.4442L290.568 41.247L290.711 40.0776L293.57 40.4274ZM185.737 228.148L183.479 225.451L184.382 224.695L186.64 227.392L185.737 228.148ZM191.175 211.995L194.738 212.421L194.599 213.59L191.035 213.165L191.175 211.995ZM197.539 204.909L197.54 201.363L198.718 201.363L198.717 204.909L197.539 204.909ZM201.113 194.218L204.258 192.586L204.8 193.632L201.655 195.264L201.113 194.218ZM286.451 45.6334L289.266 43.5751L289.961 44.5261L287.147 46.5843L286.451 45.6334ZM275.595 67.5626L274.963 64.1249L276.122 63.9121L276.754 67.3498L275.595 67.5626ZM256.734 92.0716L260.092 91.0254L260.442 92.1502L257.084 93.1964L256.734 92.0716ZM236.505 125.716L239.822 127.048L239.383 128.141L236.066 126.809L236.505 125.716ZM197.541 196.071L197.541 194.272L198.719 194.272L198.718 197.818L197.54 197.817L197.54 197.399L195.366 198.527L194.823 197.481L197.541 196.071ZM280.822 49.7499L283.637 47.6916L284.332 48.6426L281.518 50.7008L280.822 49.7499ZM283.499 39.1953L287.105 39.6365L286.962 40.8059L283.356 40.3647L283.499 39.1953ZM274.332 60.6873L273.701 57.2496L274.859 57.0367L275.491 60.4744L274.332 60.6873ZM184.049 211.145L187.612 211.57L187.472 212.74L183.909 212.314L184.049 211.145ZM181.22 222.754L178.961 220.058L179.865 219.301L182.123 221.998L181.22 222.754ZM275.193 53.8663L278.008 51.8081L278.703 52.759L275.889 54.8173L275.193 53.8663ZM197.541 190.726L197.542 187.18L198.72 187.18L198.719 190.726L197.541 190.726ZM250.017 94.1641L253.376 93.1179L253.726 94.2426L250.368 95.2889L250.017 94.1641ZM188.533 200.744L191.678 199.113L192.221 200.158L189.076 201.79L188.533 200.744ZM269.564 57.9828L272.379 55.9246L273.074 56.8755L270.26 58.9338L269.564 57.9828ZM229.871 123.052L233.188 124.384L232.749 125.477L229.432 124.145L229.871 123.052ZM273.069 53.8119L272.438 50.3742L273.596 50.1614L274.228 53.5991L273.069 53.8119ZM197.542 183.634L197.543 180.088L198.721 180.088L198.72 183.634L197.542 183.634ZM182.244 204.007L185.388 202.376L185.931 203.422L182.786 205.053L182.244 204.007ZM276.287 38.313L279.893 38.7542L279.75 39.9235L276.144 39.4824L276.287 38.313ZM176.922 210.294L180.486 210.719L180.346 211.889L176.783 211.464L176.922 210.294ZM176.703 217.361L174.444 214.664L175.347 213.908L177.606 216.604L176.703 217.361ZM263.935 62.0993L266.75 60.0411L267.445 60.992L264.631 63.0503L263.935 62.0993ZM243.301 96.2567L246.659 95.2104L247.01 96.3352L243.652 97.3814L243.301 96.2567ZM197.543 176.542L197.544 172.996L198.722 172.996L198.721 176.542L197.543 176.542ZM271.806 46.9366L271.175 43.4989L272.333 43.2861L272.965 46.7237L271.806 46.9366ZM258.306 66.2158L261.121 64.1576L261.816 65.1085L259.002 67.1668L258.306 66.2158ZM175.954 207.27L179.099 205.639L179.641 206.685L176.496 208.316L175.954 207.27ZM236.585 98.3492L239.943 97.3029L240.293 98.4277L236.935 99.4739L236.585 98.3492ZM223.238 120.387L226.554 121.72L226.115 122.813L222.799 121.481L223.238 120.387ZM197.544 169.45L197.545 165.905L198.723 165.905L198.722 169.451L197.544 169.45ZM252.677 70.3323L255.492 68.2741L256.187 69.225L253.373 71.2832L252.677 70.3323ZM272.681 37.8718L272.538 39.0412L271.531 38.918L271.702 39.8484L270.543 40.0612L270.083 37.5539L272.681 37.8718ZM173.307 209.862L173.359 209.868L173.35 209.945L173.351 209.948L173.349 209.949L173.219 211.038L172.913 211.002L173.089 211.211L172.185 211.967L170.585 210.056L172.809 208.902L173.307 209.862ZM247.048 74.4488L249.863 72.3906L250.558 73.3415L247.744 75.3997L247.048 74.4488ZM197.545 162.359L197.546 158.813L198.724 158.813L198.723 162.359L197.545 162.359ZM229.869 100.442L233.227 99.3954L233.577 100.52L230.219 101.566L229.869 100.442ZM241.419 78.5653L244.234 76.507L244.929 77.458L242.115 79.5162L241.419 78.5653ZM216.604 117.723L219.921 119.055L219.482 120.149L216.165 118.817L216.604 117.723ZM197.546 155.267L197.547 151.721L198.725 151.721L198.724 155.267L197.546 155.267ZM235.79 82.6818L238.605 80.6235L239.3 81.5744L236.485 83.6327L235.79 82.6818ZM223.152 102.534L226.511 101.488L226.861 102.613L223.503 103.659L223.152 102.534ZM197.547 148.175L197.548 144.629L198.726 144.629L198.725 148.175L197.547 148.175ZM230.161 86.7983L232.976 84.74L233.671 85.691L230.856 87.7492L230.161 86.7983ZM209.97 115.059L213.287 116.391L212.848 117.484L209.531 116.152L209.97 115.059ZM216.436 104.627L219.794 103.58L220.145 104.705L216.787 105.751L216.436 104.627ZM197.548 141.083L197.549 137.537L198.727 137.538L198.727 141.084L197.548 141.083ZM224.532 90.9147L227.346 88.8565L228.042 89.8074L225.227 91.8657L224.532 90.9147ZM218.903 95.0312L221.717 92.973L222.413 93.9239L219.598 95.9822L218.903 95.0312ZM197.549 133.992L197.55 130.446L198.728 130.446L198.728 133.992L197.549 133.992ZM209.72 106.719L213.078 105.673L213.429 106.798L210.07 107.844L209.72 106.719ZM213.274 99.1477L216.088 97.0895L216.784 98.0404L213.969 100.099L213.274 99.1477ZM203.337 112.395L206.653 113.727L206.214 114.82L202.897 113.488L203.337 112.395ZM197.55 126.9L197.551 123.354L198.729 123.354L198.729 126.9L197.55 126.9ZM207.645 103.264L210.459 101.206L211.155 102.157L208.34 104.215L207.645 103.264ZM203.004 108.812L206.362 107.765L206.712 108.89L203.354 109.936L203.004 108.812ZM197.551 119.808L197.552 116.262L198.73 116.262L198.73 119.808L197.551 119.808ZM202.016 107.381L204.83 105.322L205.526 106.273L202.711 108.332L202.016 107.381ZM199.897 111.014L200.02 111.063L199.581 112.156L198.731 111.815L198.731 112.717L197.552 112.716L197.553 110.644L199.201 109.439L199.533 109.893L199.646 109.858L199.748 110.187L199.897 110.39L199.827 110.441L199.996 110.983L199.897 111.014Z" fill="#911475"/>
<path d="M571.034 207.503C571.034 209.301 569.576 210.758 567.779 210.758C565.981 210.758 564.524 209.301 564.524 207.503C564.524 205.705 565.981 204.248 567.779 204.248C569.576 204.248 571.034 205.705 571.034 207.503Z" fill="#CE2F55"/>
<path d="M173.584 207.343C173.584 209.141 172.127 210.598 170.329 210.598C168.532 210.598 167.074 209.141 167.074 207.343C167.074 205.545 168.532 204.088 170.329 204.088C172.127 204.088 173.584 205.545 173.584 207.343Z" fill="#CE2F55"/>
<path d="M267.975 382.112C266.418 381.213 265.885 379.222 266.784 377.665C267.683 376.109 269.673 375.575 271.23 376.474C272.787 377.373 273.32 379.364 272.422 380.92C271.523 382.477 269.532 383.011 267.975 382.112Z" fill="#CE2F55"/>
<path d="M466.529 38.2075C464.972 37.3087 464.438 35.318 465.337 33.7612C466.236 32.2044 468.227 31.671 469.784 32.5698C471.34 33.4686 471.874 35.4593 470.975 37.0161C470.076 38.573 468.086 39.1064 466.529 38.2075Z" fill="#CE2F55"/>
<path d="M271.233 38.2086C269.677 39.1074 267.686 38.574 266.787 37.0172C265.888 35.4604 266.422 33.4697 267.978 32.5708C269.535 31.672 271.526 32.2054 272.425 33.7622C273.324 35.3191 272.79 37.3097 271.233 38.2086Z" fill="#CE2F55"/>
<path d="M496.378 364.668C494.821 365.566 492.83 365.033 491.932 363.476C491.033 361.919 491.566 359.929 493.123 359.03C494.68 358.131 496.67 358.664 497.569 360.221C498.468 361.778 497.935 363.769 496.378 364.668Z" fill="#CE2F55"/>
<path d="M369.548 314.752C430.251 314.752 479.46 265.543 479.46 204.84C479.46 144.137 430.251 94.928 369.548 94.928C308.846 94.928 259.637 144.137 259.637 204.84C259.637 265.543 308.846 314.752 369.548 314.752Z" fill="#FBAD41" fill-opacity="0.8" stroke="#FEDFBA" stroke-width="50.2573"/>
<path d="M368.788 326.245C436.116 326.245 490.61 271.579 490.61 204.251C490.61 136.924 436.116 82.2577 368.788 82.2577C301.46 82.2577 246.966 136.924 246.966 204.251C246.966 271.579 301.46 326.245 368.788 326.245Z" stroke="#FEE1BD" stroke-opacity="0.36" stroke-width="55.4924"/>
<path d="M472.791 146.588C482.958 164.292 488.345 184.335 488.421 204.747H434.226C434.169 183.614 431.177 163.773 425.958 146.588H472.791Z" fill="#FF6633" stroke="#CE2F55" stroke-width="1.25"/>
<path d="M306.074 204.747H251.88C251.956 184.335 257.342 164.292 267.509 146.588H314.342C309.124 163.773 306.132 183.614 306.074 204.747Z" fill="#FFCD89" stroke="#CE2F55" stroke-width="1.25"/>
<path d="M429.328 307.727C414.554 316.256 398.148 321.462 381.25 323.04C389.03 320.525 396.304 315.4 402.81 308.208C412.228 297.795 420.071 283.014 425.565 265.393H472.043C461.698 282.947 446.985 297.534 429.328 307.727L429.64 308.269L429.328 307.727Z" fill="#FF6633" stroke="#CE2F55" stroke-width="1.25"/>
<path d="M337.479 308.208C343.984 315.4 351.259 320.525 359.038 323.04C342.14 321.462 325.734 316.256 310.961 307.727L310.648 308.269L310.961 307.727C293.303 297.534 278.59 282.947 268.245 265.393H314.724C320.217 283.014 328.06 297.795 337.479 308.208Z" fill="#FFCD89" stroke="#CE2F55" stroke-width="1.25"/>
<path d="M370.845 205.982H432.956C432.95 220.378 431.476 234.736 428.558 248.834C427.449 254.136 426.135 259.246 424.642 264.126H370.845V205.982Z" fill="#F6821F" stroke="#CE2F55" stroke-width="1.25"/>
<path d="M311.73 248.833C308.812 234.736 307.339 220.378 307.333 205.982H369.443V264.126H315.646C314.153 259.246 312.84 254.136 311.73 248.833Z" fill="#FBAD41" stroke="#CE2F55" stroke-width="1.25"/>
<path d="M370.845 87.1933C382.111 87.4013 392.712 93.2277 401.881 103.364C411.079 113.53 418.799 127.998 424.243 145.333H370.845V87.1933Z" fill="#F6821F" stroke="#CE2F55" stroke-width="1.25"/>
<path d="M369.443 87.1933V145.333H316.046C321.49 127.998 329.21 113.53 338.408 103.364C347.577 93.2277 358.178 87.4013 369.443 87.1933Z" fill="#FBAD41" stroke="#CE2F55" stroke-width="1.25"/>
<path d="M401.742 307.369C392.569 317.508 381.965 323.338 370.693 323.546V265.393H424.115C418.666 282.728 410.942 297.199 401.742 307.369Z" fill="#F6821F" stroke="#CE2F55" stroke-width="1.25"/>
<path d="M369.593 265.393V323.546C358.322 323.338 347.717 317.508 338.545 307.369C329.344 297.199 321.621 282.728 316.172 265.393H369.593Z" fill="#FBAD41" stroke="#CE2F55" stroke-width="1.25"/>
<path d="M432.793 204.747H370.684V146.59L424.481 146.588C429.717 163.73 432.735 183.579 432.793 204.747Z" fill="#F6821F" stroke="#CE2F55" stroke-width="1.25"/>
<path d="M369.602 146.59V204.747H307.493C307.551 183.579 310.569 163.73 315.805 146.588L369.602 146.59Z" fill="#FBAD41" stroke="#CE2F55" stroke-width="1.25"/>
<path d="M429.163 103.007L429.163 103.007C446.82 113.197 461.534 127.782 471.88 145.334H425.403C419.916 127.712 412.072 112.934 402.652 102.525C396.146 95.3352 388.87 90.213 381.09 87.6989C397.987 89.2762 414.391 94.4804 429.163 103.007Z" fill="#FF6633" stroke="#CE2F55" stroke-width="1.25"/>
<path d="M268.41 145.334C278.756 127.782 293.47 113.197 311.128 103.007L311.128 103.007C325.9 94.4804 342.304 89.2762 359.2 87.6989C351.42 90.213 344.145 95.3352 337.638 102.525C328.218 112.934 320.375 127.712 314.888 145.334H268.41Z" fill="#FFCD89" stroke="#CE2F55" stroke-width="1.25"/>
<path d="M488.408 205.982C488.332 226.391 482.945 246.43 472.778 264.129H425.968C431.163 246.945 434.155 227.117 434.212 205.982H488.408Z" fill="#FF6633" stroke="#CE2F55" stroke-width="1.25"/>
<path d="M306.07 205.982C306.128 227.117 309.119 246.945 314.314 264.129H267.505C257.337 246.43 251.952 226.391 251.876 205.982H306.07Z" fill="#FFCD89" stroke="#CE2F55" stroke-width="1.25"/>
<path d="M379.883 87.7216C378.367 87.2895 376.833 86.9575 375.282 86.7294C376.86 86.7956 378.436 86.8932 380.011 87.0224L379.883 87.7216ZM360.379 87.0408C361.954 86.9086 363.531 86.8079 365.109 86.7388C363.559 86.9698 362.024 87.3047 360.507 87.7397L360.379 87.0408ZM359.79 323.518L359.926 322.822C361.285 323.236 362.659 323.57 364.047 323.82C362.625 323.745 361.206 323.644 359.79 323.518ZM380.601 323.538C379.181 323.661 377.762 323.759 376.343 323.831C377.731 323.583 379.106 323.252 380.466 322.84L380.601 323.538Z" fill="#CE2F55" stroke="#CE2F55" stroke-width="1.25"/>
<path d="M325.789 174.148H411.729V246.01H325.789V174.148Z" fill="#F6821F"/>
<path d="M425.358 148.855L425.368 148.856L429.055 149.403L433.732 155.121V200.648C433.732 231.975 419.586 255.364 405.086 271.114C390.578 286.875 375.77 294.924 374.634 295.519L374.622 295.525L372.726 296.547H367.845L365.959 295.531C365.921 295.51 365.873 295.483 365.819 295.453L365.209 296.544L365.819 295.453L365.817 295.452C363.864 294.361 349.1 286.117 334.85 270.399C320.603 254.684 306.917 231.554 306.991 200.651V200.648V155.183L311.672 149.403L315.355 148.856L315.355 148.856L315.368 148.854C333.335 146.002 349.996 137.239 363.008 123.813L363.045 123.774L363.079 123.732L366.255 119.836H374.263L377.532 123.745L377.562 123.78L377.594 123.813C390.639 137.264 407.346 146.029 425.358 148.855ZM334.336 210.11L333.508 210.95L334.298 211.826L359.926 240.209L360.84 241.221L361.769 240.223L406.166 192.527L406.968 191.666L406.156 190.813L397.461 181.677L396.545 180.716L395.641 181.687L360.993 218.89L345.035 201.146L344.147 200.159L343.215 201.104L334.336 210.11Z" fill="url(#paint2_linear_1893_283)" stroke="#F6821F" stroke-width="2.5"/>
</g>
<defs>
<linearGradient id="paint0_linear_1893_283" x1="176.744" y1="41.9892" x2="575.67" y2="49.3342" gradientUnits="userSpaceOnUse">
<stop stop-color="#911475"/>
<stop offset="0.386361" stop-color="#CE2F55"/>
<stop offset="0.969707" stop-color="#FF6633"/>
</linearGradient>
<linearGradient id="paint1_linear_1893_283" x1="176.744" y1="41.9892" x2="575.67" y2="49.3342" gradientUnits="userSpaceOnUse">
<stop stop-color="#911475"/>
<stop offset="0.386361" stop-color="#CE2F55"/>
<stop offset="0.969707" stop-color="#FF6633"/>
</linearGradient>
<linearGradient id="paint2_linear_1893_283" x1="403.555" y1="150.978" x2="361.54" y2="227.481" gradientUnits="userSpaceOnUse">
<stop stop-color="#E0EDFF"/>
<stop offset="1" stop-color="white"/>
</linearGradient>
<clipPath id="clip0_1893_283">
<rect width="740" height="420" fill="white"/>
</clipPath>
</defs>
</svg>
