<svg width="48" height="48" viewBox="0 0 48 48" fill="none" xmlns="http://www.w3.org/2000/svg">
<path d="M10.875 16.125C11.7448 16.125 12.45 15.4199 12.45 14.55C12.45 13.6802 11.7448 12.975 10.875 12.975C10.0052 12.975 9.3 13.6802 9.3 14.55C9.3 15.4199 10.0052 16.125 10.875 16.125Z" fill="#FF6633"/>
<path d="M15.9 16.125C16.7698 16.125 17.475 15.4199 17.475 14.55C17.475 13.6802 16.7698 12.975 15.9 12.975C15.0302 12.975 14.325 13.6802 14.325 14.55C14.325 15.4199 15.0302 16.125 15.9 16.125Z" fill="#FF6633"/>
<path d="M20.925 16.125C21.7948 16.125 22.5 15.4199 22.5 14.55C22.5 13.6802 21.7948 12.975 20.925 12.975C20.0552 12.975 19.35 13.6802 19.35 14.55C19.35 15.4199 20.0552 16.125 20.925 16.125Z" fill="#FF6633"/>
<path d="M42 8.925H6L4.5 10.425V40.35L6 41.85H42L43.5 40.35V10.425L42 8.925ZM40.5 11.925V17.1H7.5V11.925H40.5ZM7.5 38.85V20.1H40.5V38.85H7.5Z" fill="#FF6633"/>
<path d="M29.7 27.45L30 27.3L28.875 25.35L25.05 27.75L25.125 23.175H22.875L22.95 27.75L19.125 25.35L18 27.3L21.975 29.475L18 31.65L19.125 33.6L22.95 31.2L22.875 35.7H25.125L25.05 31.2L28.875 33.6L30 31.65L26.025 29.475L29.7 27.45Z" fill="#FF6633"/>
</svg>
