<svg width="48" height="48" viewBox="0 0 48 48" fill="none" xmlns="http://www.w3.org/2000/svg">
<path d="M32.487 31.0177C32.5927 30.999 32.6985 30.9825 32.8027 30.9607C33.1777 30.8857 33.5527 30.7942 33.9195 30.6855C33.9855 30.6667 34.0492 30.642 34.1145 30.6217C34.4235 30.5252 34.729 30.4175 35.031 30.2985C35.1405 30.2555 35.2492 30.2112 35.3572 30.1657C35.6482 30.042 35.9347 29.9092 36.2167 29.7652C36.288 29.7292 36.36 29.697 36.4305 29.6595C36.7732 29.4772 37.1055 29.2777 37.4355 29.0647C37.5195 29.01 37.6005 28.9507 37.683 28.8945C37.936 28.7215 38.1835 28.5395 38.4255 28.3485C38.5155 28.2772 38.6055 28.2075 38.694 28.1332C39.0007 27.8775 39.3015 27.6082 39.588 27.3255C41.6206 25.308 42.9479 22.6885 43.3726 19.8563C43.7973 17.0241 43.2967 14.1304 41.9452 11.6055L39.5602 11.25L33.0832 17.7202L30.2835 14.9205L36.7537 8.4435L36.3945 6.0585C33.9982 4.7884 31.2725 4.27671 28.5787 4.59127C25.885 4.90582 23.3505 6.03178 21.3113 7.81981C19.2722 9.60784 17.8247 11.9735 17.1608 14.603C16.497 17.2326 16.6481 20.0018 17.5942 22.5435L4.63123 35.5095V37.6305L10.3687 43.368H12.4897L25.4595 30.405C25.8045 30.5332 26.154 30.642 26.505 30.7402C26.6175 30.7717 26.73 30.7972 26.8432 30.8257C27.0862 30.8865 27.33 30.9427 27.5752 30.99C27.7042 31.015 27.8332 31.0377 27.9622 31.0582C28.203 31.0972 28.4437 31.128 28.6852 31.1542C28.8067 31.167 28.9275 31.182 29.049 31.1917C29.3545 31.2157 29.6595 31.229 29.964 31.2315C30.0112 31.2315 30.0577 31.2375 30.105 31.2375H30.1245C30.51 31.2375 30.894 31.215 31.2772 31.1812C31.3897 31.1715 31.5022 31.158 31.614 31.1452C31.907 31.1122 32.198 31.0697 32.487 31.0177ZM11.43 40.1865L7.81348 36.57L21.171 23.2117L20.727 22.2607C19.8838 20.4522 19.5799 18.4389 19.8514 16.462C20.123 14.4851 20.9586 12.6283 22.2581 11.1141C23.5577 9.5998 25.2662 8.49218 27.179 7.92384C29.0918 7.3555 31.1279 7.35052 33.0435 7.9095L27.1012 13.8577V15.975L32.0212 20.895H34.1415L40.0897 14.9527C40.6495 16.8681 40.6454 18.9042 40.0778 20.8172C39.5103 22.7302 38.4034 24.4392 36.8897 25.7394C35.376 27.0396 33.5196 27.8759 31.5428 28.1483C29.5661 28.4207 27.5527 28.1176 25.7437 27.2752L24.7927 26.8312L11.43 40.1865Z" fill="#FF6633"/>
</svg>
