<svg width="48" height="48" viewBox="0 0 48 48" fill="none" xmlns="http://www.w3.org/2000/svg">
<path d="M36.75 18.8843C35.6176 18.8862 34.516 19.2538 33.6094 19.9324C32.7027 20.6109 32.0395 21.5641 31.7183 22.65C31.08 22.656 30.4433 22.659 29.8043 22.668C23.6085 22.7573 17.76 22.8398 14.8455 19.968C13.6058 18.7455 12.927 16.9958 12.7815 14.643C13.9866 14.2764 15.0197 13.4886 15.6923 12.4236C16.3649 11.3585 16.6321 10.0871 16.4452 8.84144C16.2583 7.59573 15.6298 6.45874 14.6743 5.63795C13.7188 4.81715 12.5 4.36726 11.2403 4.37038C9.98069 4.37349 8.76416 4.82941 7.81272 5.65492C6.86128 6.48044 6.23837 7.62052 6.05764 8.86714C5.87692 10.1138 6.15043 11.3838 6.82828 12.4455C7.50613 13.5072 8.54311 14.2898 9.75001 14.6505V33.3555C8.54152 33.7158 7.50309 34.4991 6.82461 35.5621C6.14614 36.6251 5.87295 37.8968 6.05501 39.1446C6.23707 40.3925 6.86221 41.5331 7.81611 42.3579C8.77002 43.1828 9.98895 43.6367 11.25 43.6367C12.5111 43.6367 13.73 43.1828 14.6839 42.3579C15.6378 41.5331 16.263 40.3925 16.445 39.1446C16.6271 37.8968 16.3539 36.6251 15.6754 35.5621C14.9969 34.4991 13.9585 33.7158 12.75 33.3555V22.1055C15.9585 25.2555 21.0405 25.692 26.6453 25.692C27.6953 25.692 28.7678 25.6763 29.847 25.6613C30.4725 25.6523 31.098 25.6493 31.722 25.6433C32.0018 26.5755 32.5351 27.4116 33.2626 28.0582C33.99 28.7048 34.8829 29.1365 35.8415 29.305C36.8 29.4735 37.7866 29.3722 38.691 29.0125C39.5953 28.6528 40.3819 28.0487 40.9628 27.2678C41.5437 26.4869 41.8961 25.5599 41.9806 24.5903C42.0652 23.6207 41.8785 22.6467 41.4415 21.777C41.0045 20.9073 40.3343 20.1763 39.5059 19.6655C38.6774 19.1547 37.7233 18.8842 36.75 18.8843ZM9.00001 9.61578C9.00001 9.17077 9.13197 8.73575 9.37921 8.36574C9.62644 7.99573 9.97784 7.70734 10.389 7.53705C10.8001 7.36675 11.2525 7.32219 11.689 7.40901C12.1254 7.49582 12.5263 7.71012 12.841 8.02478C13.1557 8.33945 13.37 8.74036 13.4568 9.17682C13.5436 9.61328 13.499 10.0657 13.3287 10.4768C13.1584 10.8879 12.8701 11.2393 12.5 11.4866C12.13 11.7338 11.695 11.8658 11.25 11.8658C10.6533 11.8658 10.081 11.6287 9.65902 11.2068C9.23706 10.7848 9.00001 10.2125 9.00001 9.61578ZM13.5 38.3843C13.5 38.8293 13.3681 39.2643 13.1208 39.6343C12.8736 40.0043 12.5222 40.2927 12.1111 40.463C11.6999 40.6333 11.2475 40.6779 10.8111 40.591C10.3746 40.5042 9.97369 40.2899 9.65902 39.9753C9.34435 39.6606 9.13006 39.2597 9.04325 38.8232C8.95643 38.3868 9.00099 37.9344 9.17128 37.5232C9.34158 37.1121 9.62997 36.7607 9.99998 36.5135C10.37 36.2662 10.805 36.1343 11.25 36.1343C11.8467 36.1343 12.419 36.3713 12.841 36.7933C13.263 37.2152 13.5 37.7875 13.5 38.3843ZM36.75 26.3843C36.305 26.3843 35.87 26.2523 35.5 26.0051C35.13 25.7578 34.8416 25.4064 34.6713 24.9953C34.501 24.5842 34.4564 24.1318 34.5432 23.6953C34.6301 23.2589 34.8444 22.858 35.159 22.5433C35.4737 22.2286 35.8746 22.0143 36.3111 21.9275C36.7475 21.8407 37.1999 21.8852 37.611 22.0555C38.0222 22.2258 38.3736 22.5142 38.6208 22.8842C38.868 23.2543 39 23.6893 39 24.1343C39 24.4297 38.9418 24.7223 38.8287 24.9953C38.7157 25.2683 38.5499 25.5163 38.341 25.7253C38.1321 25.9342 37.884 26.0999 37.611 26.213C37.3381 26.3261 37.0455 26.3843 36.75 26.3843Z" fill="#FF6633"/>
</svg>
