<svg width="740" height="420" viewBox="0 0 740 420" fill="none" xmlns="http://www.w3.org/2000/svg">
<rect x="118" y="72" width="505" height="276" fill="white"/>
<rect x="128" y="236" width="486" height="102" fill="#F6821F" fill-opacity="0.2"/>
<rect x="128" y="126" width="116.07" height="101.94" fill="#F6821F" fill-opacity="0.1"/>
<rect x="251" y="126" width="116.07" height="101.94" fill="#F6821F" fill-opacity="0.1"/>
<rect x="375" y="126" width="116.07" height="101.94" fill="#F6821F" fill-opacity="0.1"/>
<rect x="498" y="126" width="116.07" height="101.94" fill="#F6821F" fill-opacity="0.1"/>
<path d="M118 72H622.638V118H118V72Z" fill="url(#paint0_linear_1893_132)"/>
<path d="M260.256 95.4289C259.898 92.8437 257.909 91.3438 255.33 91.3438C252.29 91.3438 250 93.5596 250 97.321C250 101.077 252.261 103.298 255.33 103.298C258.097 103.298 259.932 101.509 260.256 99.2869L258.131 99.2755C257.864 100.639 256.75 101.406 255.358 101.406C253.472 101.406 252.119 99.9914 252.119 97.321C252.119 94.696 253.46 93.2358 255.364 93.2358C256.778 93.2358 257.886 94.0369 258.131 95.4289H260.256Z" fill="white"/>
<path d="M264.452 91.502H262.395V103.138H264.452V91.502Z" fill="white"/>
<path d="M270.674 103.31C273.231 103.31 274.856 101.509 274.856 98.8101C274.856 96.1056 273.231 94.2988 270.674 94.2988C268.117 94.2988 266.492 96.1056 266.492 98.8101C266.492 101.509 268.117 103.31 270.674 103.31ZM270.685 101.662C269.27 101.662 268.577 100.401 268.577 98.8044C268.577 97.2079 269.27 95.9294 270.685 95.9294C272.077 95.9294 272.77 97.2079 272.77 98.8044C272.77 100.401 272.077 101.662 270.685 101.662Z" fill="white"/>
<path d="M282.464 99.4689C282.464 100.799 281.515 101.458 280.606 101.458C279.617 101.458 278.958 100.759 278.958 99.6507V94.4121H276.901V99.9689C276.901 102.066 278.095 103.253 279.811 103.253C281.117 103.253 282.038 102.566 282.436 101.588H282.526V103.139H284.521V94.4121H282.464V99.4689Z" fill="white"/>
<path d="M290.174 103.292C291.674 103.292 292.351 102.4 292.674 101.763H292.799V103.138H294.822V91.502H292.76V95.8543H292.674C292.362 95.2236 291.72 94.2975 290.18 94.2975C288.163 94.2975 286.578 95.877 286.578 98.7861C286.578 101.661 288.118 103.292 290.174 103.292ZM290.748 101.604C289.39 101.604 288.674 100.411 288.674 98.7747C288.674 97.1497 289.379 95.985 290.748 95.985C292.072 95.985 292.799 97.0816 292.799 98.7747C292.799 100.468 292.061 101.604 290.748 101.604Z" fill="white"/>
<path d="M301.734 94.4115H299.922V93.724C299.922 93.0422 300.206 92.6615 300.973 92.6615C301.297 92.6615 301.57 92.7354 301.74 92.7865L302.155 91.1956C301.888 91.1047 301.303 90.957 300.592 90.957C299.075 90.957 297.865 91.8263 297.865 93.5876V94.4115H296.575V96.0024H297.865V103.139H299.922V96.0024H301.734V94.4115Z" fill="white"/>
<path d="M305.702 91.502H303.645V103.138H305.702V91.502Z" fill="white"/>
<path d="M310.628 103.316C311.998 103.316 312.816 102.674 313.191 101.941H313.259V103.14H315.236V97.2988C315.236 94.9919 313.356 94.2988 311.691 94.2988C309.856 94.2988 308.447 95.1169 307.992 96.7079L309.912 96.9806C310.117 96.384 310.697 95.8726 311.702 95.8726C312.657 95.8726 313.18 96.3613 313.18 97.2192V97.2533C313.18 97.8442 312.56 97.8726 311.02 98.0374C309.327 98.2192 307.708 98.7249 307.708 100.691C307.708 102.407 308.964 103.316 310.628 103.316ZM311.162 101.804C310.305 101.804 309.691 101.412 309.691 100.657C309.691 99.8669 310.378 99.5374 311.299 99.4067C311.839 99.3329 312.918 99.1965 313.185 98.9806V100.009C313.185 100.981 312.401 101.804 311.162 101.804Z" fill="white"/>
<path d="M317.605 103.139H319.661V98.0087C319.661 96.9007 320.497 96.1166 321.627 96.1166C321.974 96.1166 322.406 96.1791 322.582 96.236V94.3439C322.394 94.3098 322.07 94.2871 321.843 94.2871C320.843 94.2871 320.008 94.8553 319.69 95.8666H319.599V94.4121H317.605V103.139Z" fill="white"/>
<path d="M327.753 103.31C329.787 103.31 331.184 102.316 331.548 100.799L329.628 100.583C329.349 101.322 328.667 101.708 327.781 101.708C326.451 101.708 325.571 100.833 325.554 99.3385H331.633V98.7079C331.633 95.6454 329.792 94.2988 327.645 94.2988C325.145 94.2988 323.514 96.134 323.514 98.8272C323.514 101.566 325.122 103.31 327.753 103.31ZM325.559 97.9522C325.622 96.8385 326.446 95.901 327.673 95.901C328.855 95.901 329.65 96.7647 329.662 97.9522H325.559Z" fill="white"/>
<path d="M343.232 97.4453H337.993V99.1385H343.232V97.4453Z" fill="white"/>
<path d="M353.998 103.138C357.543 103.138 359.646 100.945 359.646 97.3088C359.646 93.6838 357.543 91.502 354.078 91.502H350.055V103.138H353.998ZM352.163 101.314V93.3259H353.958C356.322 93.3259 357.555 94.6441 357.555 97.3088C357.555 99.985 356.322 101.314 353.896 101.314H352.163Z" fill="white"/>
<path d="M365.721 103.31C367.755 103.31 369.153 102.316 369.517 100.799L367.596 100.583C367.318 101.322 366.636 101.708 365.75 101.708C364.42 101.708 363.539 100.833 363.522 99.3385H369.602V98.7079C369.602 95.6454 367.761 94.2988 365.613 94.2988C363.113 94.2988 361.483 96.134 361.483 98.8272C361.483 101.566 363.091 103.31 365.721 103.31ZM363.528 97.9522C363.591 96.8385 364.414 95.901 365.642 95.901C366.824 95.901 367.619 96.7647 367.63 97.9522H363.528Z" fill="white"/>
<path d="M376.062 94.4115H374.25V93.724C374.25 93.0422 374.534 92.6615 375.301 92.6615C375.625 92.6615 375.898 92.7354 376.068 92.7865L376.483 91.1956C376.216 91.1047 375.631 90.957 374.92 90.957C373.403 90.957 372.193 91.8263 372.193 93.5876V94.4115H370.903V96.0024H372.193V103.139H374.25V96.0024H376.062V94.4115Z" fill="white"/>
<path d="M377.973 103.138H380.03V94.4111H377.973V103.138ZM379.007 93.1725C379.661 93.1725 380.195 92.6725 380.195 92.0588C380.195 91.4395 379.661 90.9395 379.007 90.9395C378.348 90.9395 377.814 91.4395 377.814 92.0588C377.814 92.6725 378.348 93.1725 379.007 93.1725Z" fill="white"/>
<path d="M384.502 98.026C384.502 96.7647 385.263 96.0374 386.349 96.0374C387.411 96.0374 388.047 96.7363 388.047 97.901V103.14H390.104V97.5829C390.11 95.4919 388.917 94.2988 387.116 94.2988C385.809 94.2988 384.911 94.9238 384.513 95.8954H384.411V94.4124H382.445V103.14H384.502V98.026Z" fill="white"/>
<path d="M392.495 103.138H394.552V94.4111H392.495V103.138ZM393.529 93.1725C394.183 93.1725 394.717 92.6725 394.717 92.0588C394.717 91.4395 394.183 90.9395 393.529 90.9395C392.87 90.9395 392.336 91.4395 392.336 92.0588C392.336 92.6725 392.87 93.1725 393.529 93.1725Z" fill="white"/>
<path d="M399.024 98.026C399.024 96.7647 399.785 96.0374 400.87 96.0374C401.933 96.0374 402.569 96.7363 402.569 97.901V103.14H404.626V97.5829C404.632 95.4919 403.439 94.2988 401.637 94.2988C400.331 94.2988 399.433 94.9238 399.035 95.8954H398.933V94.4124H396.967V103.14H399.024V98.026Z" fill="white"/>
<path d="M410.812 106.594C413.17 106.594 414.909 105.515 414.909 103.282V94.4124H412.881V95.8556H412.767C412.455 95.2249 411.801 94.2988 410.261 94.2988C408.244 94.2988 406.659 95.8783 406.659 98.7476C406.659 101.594 408.244 103.015 410.256 103.015C411.75 103.015 412.449 102.214 412.767 101.572H412.869V103.225C412.869 104.509 412.017 105.037 410.847 105.037C409.608 105.037 409.062 104.452 408.812 103.941L406.96 104.39C407.335 105.611 408.591 106.594 410.812 106.594ZM410.83 101.401C409.472 101.401 408.756 100.344 408.756 98.7363C408.756 97.151 409.46 95.9863 410.83 95.9863C412.153 95.9863 412.881 97.0829 412.881 98.7363C412.881 100.401 412.142 101.401 410.83 101.401Z" fill="white"/>
<path d="M425.944 94.4112H424.222V92.3203H422.165V94.4112H420.927V96.0021H422.165V100.854C422.154 102.496 423.347 103.303 424.893 103.258C425.478 103.241 425.881 103.127 426.103 103.053L425.756 101.445C425.643 101.474 425.41 101.525 425.154 101.525C424.637 101.525 424.222 101.343 424.222 100.514V96.0021H425.944V94.4112Z" fill="white"/>
<path d="M430.208 98.0247C430.208 96.7634 430.992 96.0361 432.095 96.0361C433.174 96.0361 433.811 96.7236 433.811 97.8997V103.138H435.867V97.5816C435.867 95.4736 434.674 94.2975 432.862 94.2975C431.521 94.2975 430.668 94.9054 430.265 95.8941H430.163V91.502H428.151V103.138H430.208V98.0247Z" fill="white"/>
<path d="M442.128 103.31C444.162 103.31 445.559 102.316 445.923 100.799L444.003 100.583C443.724 101.322 443.042 101.708 442.156 101.708C440.826 101.708 439.946 100.833 439.929 99.3385H446.008V98.7079C446.008 95.6454 444.167 94.2988 442.02 94.2988C439.52 94.2988 437.889 96.134 437.889 98.8272C437.889 101.566 439.497 103.31 442.128 103.31ZM439.934 97.9522C439.997 96.8385 440.821 95.901 442.048 95.901C443.23 95.901 444.025 96.7647 444.037 97.9522H439.934Z" fill="white"/>
<path d="M452.408 103.138H460.022V101.371H454.516V98.1952H459.584V96.4281H454.516V93.2691H459.976V91.502H452.408V103.138Z" fill="white"/>
<path d="M465.574 103.292C467.074 103.292 467.751 102.4 468.074 101.763H468.199V103.138H470.222V91.502H468.16V95.8543H468.074C467.762 95.2236 467.12 94.2975 465.58 94.2975C463.563 94.2975 461.978 95.877 461.978 98.7861C461.978 101.661 463.518 103.292 465.574 103.292ZM466.148 101.604C464.79 101.604 464.074 100.411 464.074 98.7747C464.074 97.1497 464.779 95.985 466.148 95.985C467.472 95.985 468.199 97.0816 468.199 98.7747C468.199 100.468 467.461 101.604 466.148 101.604Z" fill="white"/>
<path d="M476.509 106.594C478.867 106.594 480.606 105.515 480.606 103.282V94.4124H478.578V95.8556H478.464C478.151 95.2249 477.498 94.2988 475.958 94.2988C473.941 94.2988 472.356 95.8783 472.356 98.7476C472.356 101.594 473.941 103.015 475.953 103.015C477.447 103.015 478.146 102.214 478.464 101.572H478.566V103.225C478.566 104.509 477.714 105.037 476.543 105.037C475.305 105.037 474.759 104.452 474.509 103.941L472.657 104.39C473.032 105.611 474.288 106.594 476.509 106.594ZM476.526 101.401C475.168 101.401 474.453 100.344 474.453 98.7363C474.453 97.151 475.157 95.9863 476.526 95.9863C477.85 95.9863 478.578 97.0829 478.578 98.7363C478.578 100.401 477.839 101.401 476.526 101.401Z" fill="white"/>
<path d="M486.878 103.31C488.912 103.31 490.309 102.316 490.673 100.799L488.753 100.583C488.474 101.322 487.792 101.708 486.906 101.708C485.576 101.708 484.696 100.833 484.679 99.3385H490.758V98.7079C490.758 95.6454 488.917 94.2988 486.77 94.2988C484.27 94.2988 482.639 96.134 482.639 98.8272C482.639 101.566 484.247 103.31 486.878 103.31ZM484.684 97.9522C484.747 96.8385 485.571 95.901 486.798 95.901C487.98 95.901 488.775 96.7647 488.787 97.9522H484.684Z" fill="white"/>
<path d="M310.83 306.877C310.494 304.454 308.63 303.047 306.211 303.047C303.362 303.047 301.215 305.125 301.215 308.651C301.215 312.172 303.335 314.255 306.211 314.255C308.806 314.255 310.526 312.577 310.83 310.494L308.837 310.483C308.587 311.762 307.543 312.481 306.238 312.481C304.47 312.481 303.202 311.155 303.202 308.651C303.202 306.19 304.459 304.821 306.243 304.821C307.57 304.821 308.608 305.572 308.837 306.877H310.83Z" fill="#222222"/>
<path d="M314.482 303.197H312.554V314.106H314.482V303.197Z" fill="#222222"/>
<path d="M320.034 314.264C322.431 314.264 323.955 312.576 323.955 310.046C323.955 307.51 322.431 305.816 320.034 305.816C317.637 305.816 316.114 307.51 316.114 310.046C316.114 312.576 317.637 314.264 320.034 314.264ZM320.045 312.72C318.719 312.72 318.069 311.537 318.069 310.04C318.069 308.544 318.719 307.345 320.045 307.345C321.35 307.345 322 308.544 322 310.04C322 311.537 321.35 312.72 320.045 312.72Z" fill="#222222"/>
<path d="M330.806 310.665C330.806 311.911 329.917 312.529 329.064 312.529C328.137 312.529 327.52 311.874 327.52 310.835V305.924H325.591V311.133C325.591 313.099 326.71 314.212 328.319 314.212C329.544 314.212 330.407 313.568 330.78 312.651H330.865V314.106H332.734V305.924H330.806V310.665Z" fill="#222222"/>
<path d="M337.753 314.249C339.16 314.249 339.794 313.413 340.097 312.817H340.214V314.106H342.111V303.197H340.177V307.277H340.097C339.804 306.686 339.202 305.817 337.759 305.817C335.868 305.817 334.382 307.298 334.382 310.025C334.382 312.721 335.825 314.249 337.753 314.249ZM338.291 312.667C337.018 312.667 336.347 311.549 336.347 310.015C336.347 308.491 337.008 307.399 338.291 307.399C339.533 307.399 340.214 308.427 340.214 310.015C340.214 311.602 339.522 312.667 338.291 312.667Z" fill="#222222"/>
<path d="M348.31 305.925H346.61V305.28C346.61 304.641 346.877 304.284 347.596 304.284C347.9 304.284 348.155 304.353 348.315 304.401L348.704 302.91C348.454 302.825 347.905 302.686 347.239 302.686C345.817 302.686 344.682 303.501 344.682 305.152V305.925H343.473V307.416H344.682V314.107H346.61V307.416H348.31V305.925Z" fill="#222222"/>
<path d="M351.748 303.197H349.82V314.106H351.748V303.197Z" fill="#222222"/>
<path d="M356.085 314.27C357.369 314.27 358.136 313.668 358.488 312.981H358.552V314.105H360.405V308.629C360.405 306.466 358.642 305.816 357.081 305.816C355.361 305.816 354.04 306.583 353.614 308.075L355.414 308.33C355.606 307.771 356.149 307.292 357.092 307.292C357.987 307.292 358.477 307.75 358.477 308.554V308.586C358.477 309.14 357.896 309.167 356.453 309.321C354.866 309.492 353.347 309.966 353.347 311.809C353.347 313.417 354.525 314.27 356.085 314.27ZM356.586 312.853C355.782 312.853 355.206 312.485 355.206 311.777C355.206 311.036 355.851 310.728 356.714 310.605C357.22 310.536 358.232 310.408 358.482 310.205V311.17C358.482 312.08 357.747 312.853 356.586 312.853Z" fill="#222222"/>
<path d="M362.344 314.106H364.272V309.296C364.272 308.257 365.056 307.522 366.116 307.522C366.44 307.522 366.845 307.58 367.01 307.634V305.86C366.835 305.828 366.531 305.807 366.318 305.807C365.38 305.807 364.597 306.339 364.299 307.287H364.214V305.924H362.344V314.106Z" fill="#222222"/>
<path d="M371.577 314.264C373.484 314.264 374.794 313.332 375.135 311.91L373.335 311.708C373.074 312.4 372.434 312.762 371.603 312.762C370.357 312.762 369.531 311.942 369.515 310.541H375.215V309.95C375.215 307.079 373.489 305.816 371.476 305.816C369.132 305.816 367.603 307.537 367.603 310.062C367.603 312.629 369.11 314.264 371.577 314.264ZM369.521 309.241C369.579 308.197 370.352 307.318 371.502 307.318C372.61 307.318 373.356 308.128 373.367 309.241H369.521Z" fill="#222222"/>
<path d="M389.617 303.197H387.651V310.633H387.556L382.421 303.197H380.652V314.106H382.628V306.675H382.719L387.859 314.106H389.617V303.197Z" fill="#222222"/>
<path d="M395.307 314.264C397.214 314.264 398.525 313.332 398.865 311.91L397.065 311.708C396.804 312.4 396.165 312.762 395.334 312.762C394.087 312.762 393.262 311.942 393.246 310.541H398.945V309.95C398.945 307.079 397.219 305.816 395.206 305.816C392.862 305.816 391.333 307.537 391.333 310.062C391.333 312.629 392.841 314.264 395.307 314.264ZM393.251 309.241C393.31 308.197 394.082 307.318 395.233 307.318C396.341 307.318 397.086 308.128 397.097 309.241H393.251Z" fill="#222222"/>
<path d="M404.662 305.925H403.048V303.965H401.12V305.925H399.959V307.416H401.12V311.965C401.109 313.505 402.228 314.261 403.677 314.218C404.225 314.203 404.604 314.096 404.811 314.027L404.486 312.519C404.38 312.546 404.162 312.594 403.922 312.594C403.437 312.594 403.048 312.423 403.048 311.646V307.416H404.662V305.925Z" fill="#222222"/>
<path d="M407.963 314.106H409.977L411.511 308.577H411.623L413.157 314.106H415.165L417.482 305.924H415.511L414.094 311.645H414.015L412.544 305.924H410.6L409.13 311.677H409.055L407.617 305.924H405.652L407.963 314.106Z" fill="#222222"/>
<path d="M422.178 314.264C424.575 314.264 426.098 312.576 426.098 310.046C426.098 307.51 424.575 305.816 422.178 305.816C419.781 305.816 418.257 307.51 418.257 310.046C418.257 312.576 419.781 314.264 422.178 314.264ZM422.188 312.72C420.862 312.72 420.212 311.537 420.212 310.04C420.212 308.544 420.862 307.345 422.188 307.345C423.493 307.345 424.143 308.544 424.143 310.04C424.143 311.537 423.493 312.72 422.188 312.72Z" fill="#222222"/>
<path d="M427.735 314.106H429.663V309.296C429.663 308.257 430.446 307.522 431.506 307.522C431.831 307.522 432.236 307.58 432.401 307.634V305.86C432.225 305.828 431.922 305.807 431.709 305.807C430.771 305.807 429.988 306.339 429.69 307.287H429.605V305.924H427.735V314.106Z" fill="#222222"/>
<path d="M433.682 314.106H435.61V311.357L436.314 310.606L438.817 314.106H441.124L437.768 309.455L440.937 305.924H438.684L435.744 309.21H435.61V303.197H433.682V314.106Z" fill="#222222"/>
<path d="M386.514 291.512H357.868C355.016 291.506 352.282 290.369 350.265 288.352C348.248 286.335 347.112 283.601 347.106 280.749C347.121 279.156 347.481 277.585 348.161 276.144C348.84 274.702 349.823 273.425 351.042 272.4C353.082 270.674 355.713 269.808 358.379 269.986C359.588 267.009 361.746 264.515 364.516 262.889C367.287 261.263 370.516 260.597 373.704 260.992C376.892 261.388 379.861 262.824 382.15 265.077C384.439 267.331 385.921 270.277 386.366 273.459C388.572 273.36 390.734 274.096 392.422 275.519C393.817 276.734 394.809 278.344 395.267 280.136C395.725 281.928 395.627 283.817 394.987 285.552C394.346 287.287 393.193 288.786 391.68 289.85C390.168 290.915 388.367 291.494 386.518 291.51L386.514 291.512ZM357.698 272.991C355.972 272.986 354.302 273.598 352.989 274.717C352.106 275.458 351.394 276.38 350.902 277.421C350.409 278.462 350.147 279.597 350.134 280.749C350.137 282.795 350.95 284.758 352.395 286.207C353.84 287.656 355.8 288.475 357.846 288.484H386.513C388.107 288.482 389.634 287.848 390.761 286.721C391.888 285.594 392.522 284.066 392.523 282.472C392.531 281.595 392.351 280.726 391.994 279.924C391.638 279.123 391.114 278.406 390.458 277.824C389.731 277.245 388.885 276.834 387.979 276.622C387.074 276.411 386.133 276.403 385.225 276.6L383.519 276.875L383.471 275.147C383.392 272.407 382.343 269.784 380.51 267.745C378.677 265.706 376.18 264.385 373.463 264.015C370.747 263.646 367.988 264.254 365.677 265.73C363.367 267.205 361.656 269.453 360.848 272.073L360.456 273.35L359.141 273.118C358.665 273.034 358.182 272.991 357.698 272.991Z" fill="#FF6633"/>
<path d="M147.316 199.029L148.217 196.339H152.318L153.224 199.029H155.333L151.487 188.119H149.048L145.207 199.029H147.316ZM148.749 194.751L150.225 190.357H150.31L151.786 194.751H148.749Z" fill="#222222"/>
<path d="M156.685 202.097H158.613V197.74H158.693C158.996 198.336 159.63 199.172 161.037 199.172C162.965 199.172 164.408 197.644 164.408 194.948C164.408 192.221 162.922 190.74 161.031 190.74C159.588 190.74 158.986 191.608 158.693 192.2H158.581V190.847H156.685V202.097ZM158.576 194.938C158.576 193.35 159.257 192.322 160.499 192.322C161.782 192.322 162.443 193.414 162.443 194.938C162.443 196.472 161.772 197.59 160.499 197.59C159.268 197.59 158.576 196.525 158.576 194.938Z" fill="#222222"/>
<path d="M166.06 202.097H167.988V197.74H168.068C168.371 198.336 169.005 199.172 170.412 199.172C172.34 199.172 173.783 197.644 173.783 194.948C173.783 192.221 172.297 190.74 170.406 190.74C168.963 190.74 168.361 191.608 168.068 192.2H167.956V190.847H166.06V202.097ZM167.951 194.938C167.951 193.35 168.632 192.322 169.874 192.322C171.157 192.322 171.818 193.414 171.818 194.938C171.818 196.472 171.147 197.59 169.874 197.59C168.643 197.59 167.951 196.525 167.951 194.938Z" fill="#222222"/>
<path d="M177.363 188.119H175.435V199.029H177.363V188.119Z" fill="#222222"/>
<path d="M179.346 199.031H181.274V190.849H179.346V199.031ZM180.315 189.688C180.928 189.688 181.429 189.219 181.429 188.644C181.429 188.063 180.928 187.594 180.315 187.594C179.697 187.594 179.197 188.063 179.197 188.644C179.197 189.219 179.697 189.688 180.315 189.688Z" fill="#222222"/>
<path d="M186.826 199.188C188.882 199.188 190.192 197.969 190.331 196.232H188.488C188.323 197.111 187.689 197.617 186.842 197.617C185.638 197.617 184.86 196.61 184.86 194.938C184.86 193.286 185.654 192.296 186.842 192.296C187.769 192.296 188.339 192.892 188.488 193.681H190.331C190.198 191.907 188.813 190.74 186.815 190.74C184.418 190.74 182.906 192.471 182.906 194.97C182.906 197.447 184.381 199.188 186.826 199.188Z" fill="#222222"/>
<path d="M194.269 199.194C195.552 199.194 196.319 198.592 196.671 197.905H196.735V199.029H198.589V193.553C198.589 191.39 196.826 190.74 195.265 190.74C193.544 190.74 192.223 191.507 191.797 192.999L193.598 193.254C193.789 192.695 194.333 192.216 195.275 192.216C196.17 192.216 196.66 192.674 196.66 193.478V193.51C196.66 194.064 196.08 194.091 194.636 194.245C193.049 194.416 191.531 194.89 191.531 196.733C191.531 198.341 192.708 199.194 194.269 199.194ZM194.769 197.777C193.965 197.777 193.39 197.409 193.39 196.701C193.39 195.96 194.034 195.651 194.897 195.529C195.403 195.46 196.415 195.332 196.666 195.129V196.094C196.666 197.004 195.931 197.777 194.769 197.777Z" fill="#222222"/>
<path d="M204.613 190.849H202.999V188.889H201.071V190.849H199.91V192.34H201.071V196.889C201.06 198.429 202.179 199.185 203.628 199.142C204.176 199.126 204.555 199.02 204.762 198.951L204.437 197.443C204.331 197.47 204.112 197.518 203.873 197.518C203.388 197.518 202.999 197.347 202.999 196.57V192.34H204.613V190.849Z" fill="#222222"/>
<path d="M206.226 199.031H208.154V190.849H206.226V199.031ZM207.195 189.688C207.808 189.688 208.309 189.219 208.309 188.644C208.309 188.063 207.808 187.594 207.195 187.594C206.577 187.594 206.077 188.063 206.077 188.644C206.077 189.219 206.577 189.688 207.195 189.688Z" fill="#222222"/>
<path d="M213.706 199.188C216.103 199.188 217.626 197.5 217.626 194.97C217.626 192.434 216.103 190.74 213.706 190.74C211.309 190.74 209.785 192.434 209.785 194.97C209.785 197.5 211.309 199.188 213.706 199.188ZM213.716 197.644C212.39 197.644 211.74 196.461 211.74 194.964C211.74 193.467 212.39 192.269 213.716 192.269C215.021 192.269 215.671 193.467 215.671 194.964C215.671 196.461 215.021 197.644 213.716 197.644Z" fill="#222222"/>
<path d="M221.191 194.235C221.191 193.052 221.905 192.37 222.922 192.37C223.918 192.37 224.515 193.025 224.515 194.117V199.029H226.443V193.819C226.449 191.859 225.33 190.74 223.641 190.74C222.416 190.74 221.575 191.326 221.202 192.237H221.106V190.847H219.263V199.029H221.191V194.235Z" fill="#222222"/>
<path d="M161.549 209.119H163.45C163.413 207.276 161.842 205.971 159.519 205.971C157.229 205.971 155.508 207.26 155.513 209.189C155.513 210.755 156.627 211.655 158.422 212.118L159.663 212.438C160.84 212.736 161.618 213.104 161.623 213.951C161.618 214.883 160.734 215.506 159.445 215.506C158.209 215.506 157.25 214.952 157.17 213.807H155.226C155.306 215.975 156.92 217.195 159.461 217.195C162.076 217.195 163.594 215.89 163.599 213.967C163.594 212.076 162.033 211.213 160.393 210.824L159.37 210.568C158.475 210.355 157.506 209.977 157.516 209.066C157.522 208.246 158.257 207.644 159.493 207.644C160.67 207.644 161.447 208.193 161.549 209.119Z" fill="#222222"/>
<path d="M168.898 217.188C170.805 217.188 172.116 216.256 172.457 214.834L170.656 214.632C170.395 215.324 169.756 215.686 168.925 215.686C167.678 215.686 166.853 214.866 166.837 213.465H172.536V212.874C172.536 210.003 170.811 208.74 168.797 208.74C166.453 208.74 164.925 210.461 164.925 212.986C164.925 215.553 166.432 217.188 168.898 217.188ZM166.842 212.165C166.901 211.121 167.673 210.242 168.824 210.242C169.932 210.242 170.677 211.052 170.688 212.165H166.842Z" fill="#222222"/>
<path d="M174.168 217.029H176.096V212.219C176.096 211.18 176.879 210.445 177.939 210.445C178.264 210.445 178.669 210.503 178.834 210.557V208.783C178.658 208.751 178.354 208.73 178.141 208.73C177.204 208.73 176.421 209.262 176.123 210.21H176.037V208.847H174.168V217.029Z" fill="#222222"/>
<path d="M187.672 208.848H185.621L183.736 214.926H183.651L181.77 208.848H179.714L182.628 217.03H184.759L187.672 208.848Z" fill="#222222"/>
<path d="M189.007 217.031H190.935V208.849H189.007V217.031ZM189.976 207.688C190.589 207.688 191.089 207.219 191.089 206.644C191.089 206.063 190.589 205.594 189.976 205.594C189.358 205.594 188.857 206.063 188.857 206.644C188.857 207.219 189.358 207.688 189.976 207.688Z" fill="#222222"/>
<path d="M196.487 217.188C198.543 217.188 199.853 215.969 199.992 214.232H198.148C197.983 215.111 197.349 215.617 196.503 215.617C195.299 215.617 194.521 214.61 194.521 212.938C194.521 211.286 195.315 210.296 196.503 210.296C197.429 210.296 197.999 210.892 198.148 211.681H199.992C199.858 209.907 198.473 208.74 196.476 208.74C194.079 208.74 192.566 210.471 192.566 212.97C192.566 215.447 194.042 217.188 196.487 217.188Z" fill="#222222"/>
<path d="M205.197 217.188C207.104 217.188 208.414 216.256 208.755 214.834L206.955 214.632C206.694 215.324 206.055 215.686 205.224 215.686C203.977 215.686 203.152 214.866 203.136 213.465H208.835V212.874C208.835 210.003 207.109 208.74 205.096 208.74C202.752 208.74 201.223 210.461 201.223 212.986C201.223 215.553 202.731 217.188 205.197 217.188ZM203.141 212.165C203.2 211.121 203.972 210.242 205.122 210.242C206.23 210.242 206.976 211.052 206.987 212.165H203.141Z" fill="#222222"/>
<path d="M216.933 211.009C216.667 209.624 215.559 208.74 213.641 208.74C211.67 208.74 210.328 209.71 210.333 211.222C210.328 212.416 211.063 213.204 212.634 213.529L214.03 213.822C214.781 213.987 215.133 214.291 215.133 214.754C215.133 215.313 214.525 215.734 213.609 215.734C212.725 215.734 212.15 215.351 211.985 214.616L210.104 214.797C210.344 216.299 211.606 217.188 213.615 217.188C215.66 217.188 217.104 216.128 217.109 214.578C217.104 213.412 216.352 212.698 214.808 212.362L213.412 212.064C212.581 211.878 212.251 211.59 212.256 211.116C212.251 210.562 212.864 210.178 213.668 210.178C214.557 210.178 215.026 210.663 215.175 211.201L216.933 211.009Z" fill="#222222"/>
<path d="M187.266 139.126C187.14 139.117 187.014 139.117 186.887 139.117H186.64C181.42 139.117 176.414 141.191 172.723 144.882C169.032 148.572 166.959 153.578 166.959 158.798C166.959 164.018 169.032 169.024 172.723 172.714C176.414 176.405 181.42 178.479 186.64 178.479H186.887C187.016 178.479 187.144 178.475 187.271 178.468C192.38 178.306 197.226 176.162 200.783 172.49C204.339 168.818 206.328 163.907 206.327 158.795C206.326 153.683 204.337 148.772 200.779 145.101C197.222 141.43 192.375 139.287 187.266 139.126ZM201.724 151.738H197.837C197.29 149.117 196.291 146.611 194.885 144.332C197.869 146.041 200.256 148.627 201.721 151.738H201.724ZM188.145 142.331C190.958 143.164 193.471 146.742 194.73 151.738H188.145V142.331ZM185.117 142.515V151.738H179.049C180.228 147.048 182.514 143.609 185.117 142.515ZM179.166 143.918C177.607 146.298 176.512 148.951 175.938 151.738H171.558C173.151 148.356 175.829 145.604 179.166 143.918ZM171.426 165.571H175.874C176.435 168.456 177.547 171.205 179.149 173.67C175.723 171.934 172.997 169.075 171.426 165.571ZM185.117 175.084C182.452 173.974 180.134 170.42 178.978 165.571H185.117V175.084ZM188.145 175.267V165.571H194.797C193.568 170.73 191.021 174.421 188.145 175.267ZM194.9 173.253C196.349 170.891 197.365 168.289 197.901 165.571H201.852C200.405 168.803 197.972 171.493 194.9 173.256V173.253ZM170.411 162.543C169.823 159.981 169.846 157.317 170.48 154.766H202.802C203.436 157.317 203.46 159.981 202.871 162.543H170.411Z" fill="#FF6633"/>
<path d="M181.289 159.3H181.257L180.705 156.936H179.547L179.01 159.315H178.979L178.478 156.936H177.29L178.257 160.651H179.525L180.106 158.487H180.147L180.727 160.651H181.993L182.963 156.936H181.775L181.289 159.3Z" fill="#FF6633"/>
<path d="M187.165 159.3H187.133L186.582 156.936H185.423L184.886 159.315H184.855L184.354 156.936H183.166L184.134 160.651H185.401L185.982 158.487H186.023L186.604 160.651H187.869L188.839 156.936H187.651L187.165 159.3Z" fill="#FF6633"/>
<path d="M193.041 159.3H193.01L192.458 156.936H191.3L190.762 159.315H190.731L190.23 156.936H189.042L190.01 160.651H191.278L191.858 158.487H191.899L192.48 160.651H193.745L194.716 156.936H193.527L193.041 159.3Z" fill="#FF6633"/>
<path d="M195.354 159.471C195.271 159.469 195.189 159.485 195.112 159.516C195.035 159.548 194.966 159.595 194.908 159.654C194.848 159.71 194.801 159.778 194.77 159.854C194.738 159.93 194.723 160.011 194.725 160.093C194.723 160.176 194.738 160.258 194.769 160.335C194.801 160.412 194.848 160.481 194.908 160.538C194.966 160.598 195.035 160.645 195.112 160.676C195.189 160.708 195.271 160.724 195.354 160.722C195.463 160.723 195.57 160.693 195.663 160.637C195.756 160.58 195.834 160.502 195.89 160.409C195.949 160.314 195.98 160.204 195.981 160.092C195.981 160.01 195.964 159.928 195.931 159.853C195.898 159.777 195.849 159.709 195.788 159.653C195.732 159.595 195.664 159.549 195.59 159.518C195.515 159.487 195.435 159.471 195.354 159.471Z" fill="#FF6633"/>
<path d="M277.014 199.029C280.338 199.029 282.309 196.972 282.309 193.563C282.309 190.165 280.338 188.119 277.089 188.119H273.317V199.029H277.014ZM275.293 197.319V189.829H276.977C279.193 189.829 280.349 191.065 280.349 193.563C280.349 196.072 279.193 197.319 276.918 197.319H275.293Z" fill="#222222"/>
<path d="M287.723 199.188C289.63 199.188 290.941 198.256 291.282 196.834L289.481 196.632C289.22 197.324 288.581 197.686 287.75 197.686C286.504 197.686 285.678 196.866 285.662 195.465H291.361V194.874C291.361 192.003 289.636 190.74 287.622 190.74C285.278 190.74 283.75 192.461 283.75 194.986C283.75 197.553 285.257 199.188 287.723 199.188ZM285.667 194.165C285.726 193.121 286.498 192.242 287.649 192.242C288.757 192.242 289.502 193.052 289.513 194.165H285.667Z" fill="#222222"/>
<path d="M300.067 190.848H298.016L296.13 196.926H296.045L294.165 190.848H292.109L295.022 199.03H297.153L300.067 190.848Z" fill="#222222"/>
<path d="M304.745 199.188C306.652 199.188 307.962 198.256 308.303 196.834L306.503 196.632C306.242 197.324 305.602 197.686 304.771 197.686C303.525 197.686 302.699 196.866 302.683 195.465H308.383V194.874C308.383 192.003 306.657 190.74 304.644 190.74C302.3 190.74 300.771 192.461 300.771 194.986C300.771 197.553 302.279 199.188 304.745 199.188ZM302.689 194.165C302.747 193.121 303.52 192.242 304.67 192.242C305.778 192.242 306.524 193.052 306.535 194.165H302.689Z" fill="#222222"/>
<path d="M311.943 188.119H310.014V199.029H311.943V188.119Z" fill="#222222"/>
<path d="M317.494 199.188C319.891 199.188 321.415 197.5 321.415 194.97C321.415 192.434 319.891 190.74 317.494 190.74C315.097 190.74 313.574 192.434 313.574 194.97C313.574 197.5 315.097 199.188 317.494 199.188ZM317.505 197.644C316.179 197.644 315.529 196.461 315.529 194.964C315.529 193.467 316.179 192.269 317.505 192.269C318.81 192.269 319.46 193.467 319.46 194.964C319.46 196.461 318.81 197.644 317.505 197.644Z" fill="#222222"/>
<path d="M323.051 202.097H324.98V197.74H325.06C325.363 198.336 325.997 199.172 327.403 199.172C329.332 199.172 330.775 197.644 330.775 194.948C330.775 192.221 329.289 190.74 327.398 190.74C325.954 190.74 325.353 191.608 325.06 192.2H324.948V190.847H323.051V202.097ZM324.942 194.938C324.942 193.35 325.624 192.322 326.865 192.322C328.149 192.322 328.81 193.414 328.81 194.938C328.81 196.472 328.138 197.59 326.865 197.59C325.635 197.59 324.942 196.525 324.942 194.938Z" fill="#222222"/>
<path d="M336.049 199.188C337.955 199.188 339.266 198.256 339.607 196.834L337.806 196.632C337.545 197.324 336.906 197.686 336.075 197.686C334.829 197.686 334.003 196.866 333.987 195.465H339.687V194.874C339.687 192.003 337.961 190.74 335.947 190.74C333.604 190.74 332.075 192.461 332.075 194.986C332.075 197.553 333.582 199.188 336.049 199.188ZM333.992 194.165C334.051 193.121 334.823 192.242 335.974 192.242C337.082 192.242 337.828 193.052 337.838 194.165H333.992Z" fill="#222222"/>
<path d="M341.318 199.029H343.246V194.219C343.246 193.18 344.029 192.445 345.089 192.445C345.414 192.445 345.819 192.503 345.984 192.557V190.783C345.808 190.751 345.505 190.73 345.292 190.73C344.354 190.73 343.571 191.262 343.273 192.21H343.188V190.847H341.318V199.029Z" fill="#222222"/>
<path d="M284.68 209.119H286.582C286.545 207.276 284.973 205.971 282.651 205.971C280.36 205.971 278.64 207.26 278.645 209.189C278.645 210.755 279.759 211.655 281.554 212.118L282.795 212.438C283.972 212.736 284.75 213.104 284.755 213.951C284.75 214.883 283.865 215.506 282.576 215.506C281.341 215.506 280.382 214.952 280.302 213.807H278.358C278.438 215.975 280.052 217.195 282.592 217.195C285.208 217.195 286.726 215.89 286.731 213.967C286.726 212.076 285.165 211.213 283.525 210.824L282.502 210.568C281.607 210.355 280.637 209.977 280.648 209.066C280.653 208.246 281.389 207.644 282.624 207.644C283.802 207.644 284.579 208.193 284.68 209.119Z" fill="#222222"/>
<path d="M292.03 217.188C293.937 217.188 295.247 216.256 295.588 214.834L293.788 214.632C293.527 215.324 292.888 215.686 292.057 215.686C290.81 215.686 289.985 214.866 289.969 213.465H295.668V212.874C295.668 210.003 293.942 208.74 291.929 208.74C289.585 208.74 288.056 210.461 288.056 212.986C288.056 215.553 289.564 217.188 292.03 217.188ZM289.974 212.165C290.032 211.121 290.805 210.242 291.955 210.242C293.063 210.242 293.809 211.052 293.82 212.165H289.974Z" fill="#222222"/>
<path d="M297.299 217.029H299.228V212.219C299.228 211.18 300.011 210.445 301.071 210.445C301.396 210.445 301.8 210.503 301.966 210.557V208.783C301.79 208.751 301.486 208.73 301.273 208.73C300.336 208.73 299.553 209.262 299.254 210.21H299.169V208.847H297.299V217.029Z" fill="#222222"/>
<path d="M310.804 208.848H308.753L306.868 214.926H306.782L304.902 208.848H302.846L305.76 217.03H307.89L310.804 208.848Z" fill="#222222"/>
<path d="M312.138 217.031H314.067V208.849H312.138V217.031ZM313.108 207.688C313.72 207.688 314.221 207.219 314.221 206.644C314.221 206.063 313.72 205.594 313.108 205.594C312.49 205.594 311.989 206.063 311.989 206.644C311.989 207.219 312.49 207.688 313.108 207.688Z" fill="#222222"/>
<path d="M319.618 217.188C321.674 217.188 322.985 215.969 323.123 214.232H321.28C321.115 215.111 320.481 215.617 319.634 215.617C318.43 215.617 317.653 214.61 317.653 212.938C317.653 211.286 318.446 210.296 319.634 210.296C320.561 210.296 321.131 210.892 321.28 211.681H323.123C322.99 209.907 321.605 208.74 319.608 208.74C317.211 208.74 315.698 210.471 315.698 212.97C315.698 215.447 317.173 217.188 319.618 217.188Z" fill="#222222"/>
<path d="M328.329 217.188C330.236 217.188 331.546 216.256 331.887 214.834L330.087 214.632C329.826 215.324 329.186 215.686 328.355 215.686C327.109 215.686 326.283 214.866 326.267 213.465H331.967V212.874C331.967 210.003 330.241 208.74 328.228 208.74C325.884 208.74 324.355 210.461 324.355 212.986C324.355 215.553 325.863 217.188 328.329 217.188ZM326.273 212.165C326.331 211.121 327.104 210.242 328.254 210.242C329.362 210.242 330.108 211.052 330.119 212.165H326.273Z" fill="#222222"/>
<path d="M340.065 211.009C339.799 209.624 338.691 208.74 336.773 208.74C334.802 208.74 333.46 209.71 333.465 211.222C333.46 212.416 334.195 213.204 335.766 213.529L337.162 213.822C337.913 213.987 338.264 214.291 338.264 214.754C338.264 215.313 337.657 215.734 336.741 215.734C335.857 215.734 335.281 215.351 335.116 214.616L333.236 214.797C333.476 216.299 334.738 217.188 336.746 217.188C338.792 217.188 340.235 216.128 340.241 214.578C340.235 213.412 339.484 212.698 337.94 212.362L336.544 212.064C335.713 211.878 335.383 211.59 335.388 211.116C335.383 210.562 335.995 210.178 336.8 210.178C337.689 210.178 338.158 210.663 338.307 211.201L340.065 211.009Z" fill="#222222"/>
<path d="M302.057 157.722L293.813 153.089L302.057 148.449V144.975L289.983 151.765V154.406L302.057 161.196V157.722Z" fill="#FF6633"/>
<path d="M317.544 156.973V160.447L325.719 165.042L317.544 169.644V173.118L329.542 166.359V163.725L317.544 156.973Z" fill="#FF6633"/>
<path d="M317.128 139.086L298.878 178.44H302.216L320.458 139.086H317.128Z" fill="#FF6633"/>
<path d="M395.668 199.029H403.743V197.372H398.124L403.711 189.35V188.119H395.636V189.776H401.261L395.668 197.798V199.029Z" fill="#222222"/>
<path d="M409.193 199.188C411.099 199.188 412.41 198.256 412.751 196.834L410.95 196.632C410.689 197.324 410.05 197.686 409.219 197.686C407.973 197.686 407.147 196.866 407.131 195.465H412.831V194.874C412.831 192.003 411.105 190.74 409.091 190.74C406.748 190.74 405.219 192.461 405.219 194.986C405.219 197.553 406.726 199.188 409.193 199.188ZM407.136 194.165C407.195 193.121 407.967 192.242 409.118 192.242C410.226 192.242 410.972 193.052 410.982 194.165H407.136Z" fill="#222222"/>
<path d="M414.462 199.029H416.39V194.219C416.39 193.18 417.173 192.445 418.233 192.445C418.558 192.445 418.963 192.503 419.128 192.557V190.783C418.952 190.751 418.649 190.73 418.436 190.73C417.498 190.73 416.715 191.262 416.417 192.21H416.332V190.847H414.462V199.029Z" fill="#222222"/>
<path d="M423.641 199.188C426.038 199.188 427.562 197.5 427.562 194.97C427.562 192.434 426.038 190.74 423.641 190.74C421.244 190.74 419.721 192.434 419.721 194.97C419.721 197.5 421.244 199.188 423.641 199.188ZM423.652 197.644C422.326 197.644 421.676 196.461 421.676 194.964C421.676 193.467 422.326 192.269 423.652 192.269C424.957 192.269 425.607 193.467 425.607 194.964C425.607 196.461 424.957 197.644 423.652 197.644Z" fill="#222222"/>
<path d="M432.525 189.776H435.897V199.029H437.857V189.776H441.229V188.119H432.525V189.776Z" fill="#222222"/>
<path d="M441.972 199.029H443.9V194.219C443.9 193.18 444.683 192.445 445.743 192.445C446.068 192.445 446.473 192.503 446.638 192.557V190.783C446.462 190.751 446.159 190.73 445.945 190.73C445.008 190.73 444.225 191.262 443.927 192.21H443.841V190.847H441.972V199.029Z" fill="#222222"/>
<path d="M453.134 195.589C453.134 196.835 452.244 197.453 451.392 197.453C450.465 197.453 449.847 196.798 449.847 195.759V190.848H447.919V196.057C447.919 198.023 449.038 199.136 450.646 199.136C451.871 199.136 452.734 198.492 453.107 197.575H453.192V199.03H455.062V190.848H453.134V195.589Z" fill="#222222"/>
<path d="M463.512 193.009C463.245 191.624 462.137 190.74 460.22 190.74C458.249 190.74 456.906 191.71 456.912 193.222C456.906 194.416 457.642 195.204 459.213 195.529L460.609 195.822C461.36 195.987 461.711 196.291 461.711 196.754C461.711 197.313 461.104 197.734 460.188 197.734C459.303 197.734 458.728 197.351 458.563 196.616L456.683 196.797C456.922 198.299 458.185 199.188 460.193 199.188C462.239 199.188 463.682 198.128 463.687 196.578C463.682 195.412 462.931 194.698 461.386 194.362L459.991 194.064C459.16 193.878 458.829 193.59 458.835 193.116C458.829 192.562 459.442 192.178 460.246 192.178C461.136 192.178 461.605 192.663 461.754 193.201L463.512 193.009Z" fill="#222222"/>
<path d="M469.363 190.849H467.749V188.889H465.821V190.849H464.659V192.34H465.821V196.889C465.81 198.429 466.929 199.185 468.378 199.142C468.926 199.126 469.304 199.02 469.512 198.951L469.187 197.443C469.081 197.47 468.862 197.518 468.623 197.518C468.138 197.518 467.749 197.347 467.749 196.57V192.34H469.363V190.849Z" fill="#222222"/>
<path d="M407.812 209.119H409.714C409.677 207.276 408.105 205.971 405.783 205.971C403.492 205.971 401.772 207.26 401.777 209.189C401.777 210.755 402.89 211.655 404.685 212.118L405.927 212.438C407.104 212.736 407.881 213.104 407.887 213.951C407.881 214.883 406.997 215.506 405.708 215.506C404.472 215.506 403.514 214.952 403.434 213.807H401.489C401.569 215.975 403.183 217.195 405.724 217.195C408.34 217.195 409.858 215.89 409.863 213.967C409.858 212.076 408.297 211.213 406.656 210.824L405.634 210.568C404.739 210.355 403.769 209.977 403.78 209.066C403.785 208.246 404.52 207.644 405.756 207.644C406.933 207.644 407.711 208.193 407.812 209.119Z" fill="#222222"/>
<path d="M415.162 217.188C417.069 217.188 418.379 216.256 418.72 214.834L416.92 214.632C416.659 215.324 416.019 215.686 415.188 215.686C413.942 215.686 413.116 214.866 413.1 213.465H418.8V212.874C418.8 210.003 417.074 208.74 415.061 208.74C412.717 208.74 411.188 210.461 411.188 212.986C411.188 215.553 412.695 217.188 415.162 217.188ZM413.106 212.165C413.164 211.121 413.937 210.242 415.087 210.242C416.195 210.242 416.941 211.052 416.952 212.165H413.106Z" fill="#222222"/>
<path d="M420.431 217.029H422.359V212.219C422.359 211.18 423.142 210.445 424.202 210.445C424.527 210.445 424.932 210.503 425.097 210.557V208.783C424.922 208.751 424.618 208.73 424.405 208.73C423.467 208.73 422.684 209.262 422.386 210.21H422.301V208.847H420.431V217.029Z" fill="#222222"/>
<path d="M433.936 208.848H431.885L429.999 214.926H429.914L428.034 208.848H425.978L428.891 217.03H431.022L433.936 208.848Z" fill="#222222"/>
<path d="M435.27 217.031H437.198V208.849H435.27V217.031ZM436.24 207.688C436.852 207.688 437.353 207.219 437.353 206.644C437.353 206.063 436.852 205.594 436.24 205.594C435.622 205.594 435.121 206.063 435.121 206.644C435.121 207.219 435.622 207.688 436.24 207.688Z" fill="#222222"/>
<path d="M442.75 217.188C444.806 217.188 446.117 215.969 446.255 214.232H444.412C444.247 215.111 443.613 215.617 442.766 215.617C441.562 215.617 440.785 214.61 440.785 212.938C440.785 211.286 441.578 210.296 442.766 210.296C443.693 210.296 444.263 210.892 444.412 211.681H446.255C446.122 209.907 444.737 208.74 442.739 208.74C440.342 208.74 438.83 210.471 438.83 212.97C438.83 215.447 440.305 217.188 442.75 217.188Z" fill="#222222"/>
<path d="M451.461 217.188C453.368 217.188 454.678 216.256 455.019 214.834L453.218 214.632C452.957 215.324 452.318 215.686 451.487 215.686C450.241 215.686 449.415 214.866 449.399 213.465H455.099V212.874C455.099 210.003 453.373 208.74 451.359 208.74C449.016 208.74 447.487 210.461 447.487 212.986C447.487 215.553 448.994 217.188 451.461 217.188ZM449.404 212.165C449.463 211.121 450.235 210.242 451.386 210.242C452.494 210.242 453.24 211.052 453.25 212.165H449.404Z" fill="#222222"/>
<path d="M463.197 211.009C462.93 209.624 461.822 208.74 459.905 208.74C457.934 208.74 456.592 209.71 456.597 211.222C456.592 212.416 457.327 213.204 458.898 213.529L460.294 213.822C461.045 213.987 461.396 214.291 461.396 214.754C461.396 215.313 460.789 215.734 459.873 215.734C458.989 215.734 458.413 215.351 458.248 214.616L456.368 214.797C456.608 216.299 457.87 217.188 459.878 217.188C461.924 217.188 463.367 216.128 463.372 214.578C463.367 213.412 462.616 212.698 461.071 212.362L459.676 212.064C458.845 211.878 458.514 211.59 458.52 211.116C458.514 210.562 459.127 210.178 459.931 210.178C460.821 210.178 461.29 210.663 461.439 211.201L463.197 211.009Z" fill="#222222"/>
<path d="M431.6 165.268L433.742 167.411L441.682 159.47L433.742 151.537L431.6 153.679L435.884 157.956H413.221V160.984H435.884L431.6 165.268Z" fill="#FF6633"/>
<path d="M447.602 145.005L446.565 144.861C442.18 144.213 438.11 142.204 434.93 139.116L434.03 138.102H431.759L430.881 139.116C427.71 142.204 423.647 144.214 419.269 144.861L418.232 145.005L416.93 146.519V155.012H419.958V147.821C424.822 147.037 429.334 144.793 432.894 141.387C436.468 144.799 440.996 147.044 445.876 147.821V157.207C445.876 169.591 434.408 176.002 432.894 176.774C431.736 176.207 424.25 171.991 421.214 164.095H418.005C421.343 174.261 431.191 179.303 431.691 179.553L432.228 179.825H433.583L434.12 179.553C434.726 179.257 448.904 171.983 448.904 157.207V146.504L447.602 145.005Z" fill="#FF6633"/>
<path d="M534.734 188.119H532.769V195.556H532.673L527.538 188.119H525.77V199.029H527.746V191.598H527.836L532.977 199.029H534.734V188.119Z" fill="#222222"/>
<path d="M540.425 199.188C542.332 199.188 543.642 198.256 543.983 196.834L542.182 196.632C541.921 197.324 541.282 197.686 540.451 197.686C539.205 197.686 538.379 196.866 538.363 195.465H544.063V194.874C544.063 192.003 542.337 190.74 540.323 190.74C537.98 190.74 536.451 192.461 536.451 194.986C536.451 197.553 537.958 199.188 540.425 199.188ZM538.369 194.165C538.427 193.121 539.199 192.242 540.35 192.242C541.458 192.242 542.204 193.052 542.214 194.165H538.369Z" fill="#222222"/>
<path d="M549.78 190.849H548.166V188.889H546.237V190.849H545.076V192.34H546.237V196.889C546.227 198.429 547.345 199.185 548.794 199.142C549.343 199.126 549.721 199.02 549.929 198.951L549.604 197.443C549.497 197.47 549.279 197.518 549.039 197.518C548.555 197.518 548.166 197.347 548.166 196.57V192.34H549.78V190.849Z" fill="#222222"/>
<path d="M553.081 199.03H555.094L556.628 193.5H556.74L558.274 199.03H560.283L562.6 190.848H560.629L559.212 196.569H559.132L557.662 190.848H555.718L554.247 196.601H554.173L552.735 190.848H550.769L553.081 199.03Z" fill="#222222"/>
<path d="M567.295 199.188C569.692 199.188 571.216 197.5 571.216 194.97C571.216 192.434 569.692 190.74 567.295 190.74C564.898 190.74 563.375 192.434 563.375 194.97C563.375 197.5 564.898 199.188 567.295 199.188ZM567.306 197.644C565.98 197.644 565.33 196.461 565.33 194.964C565.33 193.467 565.98 192.269 567.306 192.269C568.611 192.269 569.261 193.467 569.261 194.964C569.261 196.461 568.611 197.644 567.306 197.644Z" fill="#222222"/>
<path d="M572.852 199.029H574.781V194.219C574.781 193.18 575.564 192.445 576.624 192.445C576.949 192.445 577.353 192.503 577.518 192.557V190.783C577.343 190.751 577.039 190.73 576.826 190.73C575.889 190.73 575.105 191.262 574.807 192.21H574.722V190.847H572.852V199.029Z" fill="#222222"/>
<path d="M578.8 199.029H580.728V196.28L581.431 195.529L583.934 199.029H586.241L582.885 194.378L586.055 190.847H583.801L580.861 194.133H580.728V188.119H578.8V199.029Z" fill="#222222"/>
<path d="M530.944 209.119H532.845C532.808 207.276 531.237 205.971 528.914 205.971C526.624 205.971 524.903 207.26 524.909 209.189C524.909 210.755 526.022 211.655 527.817 212.118L529.058 212.438C530.235 212.736 531.013 213.104 531.018 213.951C531.013 214.883 530.129 215.506 528.84 215.506C527.604 215.506 526.645 214.952 526.565 213.807H524.621C524.701 215.975 526.315 217.195 528.856 217.195C531.471 217.195 532.989 215.89 532.995 213.967C532.989 212.076 531.428 211.213 529.788 210.824L528.765 210.568C527.87 210.355 526.901 209.977 526.911 209.066C526.917 208.246 527.652 207.644 528.888 207.644C530.065 207.644 530.843 208.193 530.944 209.119Z" fill="#222222"/>
<path d="M538.293 217.188C540.2 217.188 541.511 216.256 541.852 214.834L540.051 214.632C539.79 215.324 539.151 215.686 538.32 215.686C537.073 215.686 536.248 214.866 536.232 213.465H541.931V212.874C541.931 210.003 540.206 208.74 538.192 208.74C535.848 208.74 534.32 210.461 534.32 212.986C534.32 215.553 535.827 217.188 538.293 217.188ZM536.237 212.165C536.296 211.121 537.068 210.242 538.219 210.242C539.327 210.242 540.072 211.052 540.083 212.165H536.237Z" fill="#222222"/>
<path d="M543.563 217.029H545.491V212.219C545.491 211.18 546.274 210.445 547.334 210.445C547.659 210.445 548.064 210.503 548.229 210.557V208.783C548.053 208.751 547.75 208.73 547.536 208.73C546.599 208.73 545.816 209.262 545.518 210.21H545.432V208.847H543.563V217.029Z" fill="#222222"/>
<path d="M557.067 208.848H555.016L553.131 214.926H553.046L551.165 208.848H549.109L552.023 217.03H554.154L557.067 208.848Z" fill="#222222"/>
<path d="M558.402 217.031H560.33V208.849H558.402V217.031ZM559.371 207.688C559.984 207.688 560.484 207.219 560.484 206.644C560.484 206.063 559.984 205.594 559.371 205.594C558.753 205.594 558.252 206.063 558.252 206.644C558.252 207.219 558.753 207.688 559.371 207.688Z" fill="#222222"/>
<path d="M565.882 217.188C567.938 217.188 569.248 215.969 569.387 214.232H567.544C567.378 215.111 566.745 215.617 565.898 215.617C564.694 215.617 563.916 214.61 563.916 212.938C563.916 211.286 564.71 210.296 565.898 210.296C566.824 210.296 567.394 210.892 567.544 211.681H569.387C569.253 209.907 567.868 208.74 565.871 208.74C563.474 208.74 561.961 210.471 561.961 212.97C561.961 215.447 563.437 217.188 565.882 217.188Z" fill="#222222"/>
<path d="M574.592 217.188C576.499 217.188 577.809 216.256 578.15 214.834L576.35 214.632C576.089 215.324 575.45 215.686 574.619 215.686C573.372 215.686 572.547 214.866 572.531 213.465H578.23V212.874C578.23 210.003 576.504 208.74 574.491 208.74C572.147 208.74 570.618 210.461 570.618 212.986C570.618 215.553 572.126 217.188 574.592 217.188ZM572.536 212.165C572.595 211.121 573.367 210.242 574.518 210.242C575.626 210.242 576.371 211.052 576.382 212.165H572.536Z" fill="#222222"/>
<path d="M586.328 211.009C586.062 209.624 584.954 208.74 583.036 208.74C581.065 208.74 579.723 209.71 579.728 211.222C579.723 212.416 580.458 213.204 582.03 213.529L583.425 213.822C584.176 213.987 584.528 214.291 584.528 214.754C584.528 215.313 583.921 215.734 583.004 215.734C582.12 215.734 581.545 215.351 581.38 214.616L579.499 214.797C579.739 216.299 581.001 217.188 583.01 217.188C585.055 217.188 586.499 216.128 586.504 214.578C586.499 213.412 585.748 212.698 584.203 212.362L582.807 212.064C581.976 211.878 581.646 211.59 581.651 211.116C581.646 210.562 582.259 210.178 583.063 210.178C583.952 210.178 584.421 210.663 584.57 211.201L586.328 211.009Z" fill="#222222"/>
<path d="M577.032 144.975C577.028 143.582 576.531 142.236 575.629 141.175C574.728 140.113 573.48 139.405 572.106 139.176C570.733 138.946 569.322 139.21 568.125 139.921C566.927 140.632 566.02 141.744 565.564 143.06L546.594 142.999C546.503 141.916 546.113 140.878 545.468 140.003C544.823 139.127 543.948 138.447 542.941 138.038C541.933 137.629 540.832 137.507 539.759 137.685C538.686 137.864 537.684 138.336 536.863 139.05C536.042 139.763 535.435 140.69 535.108 141.728C534.782 142.765 534.749 143.873 535.014 144.928C535.279 145.983 535.83 146.944 536.608 147.704C537.385 148.465 538.358 148.995 539.418 149.237L542.764 169.031C541.907 169.543 541.194 170.265 540.692 171.129C540.191 171.992 539.917 172.97 539.897 173.968C539.877 174.967 540.111 175.954 540.578 176.837C541.045 177.72 541.728 178.47 542.564 179.016C543.4 179.563 544.362 179.887 545.358 179.96C546.354 180.032 547.352 179.85 548.259 179.431C549.165 179.011 549.95 178.368 550.539 177.562C551.129 176.755 551.503 175.812 551.628 174.821L563.596 171.347C564.093 172.14 564.772 172.804 565.578 173.282C566.383 173.76 567.29 174.039 568.225 174.097C569.159 174.154 570.094 173.987 570.952 173.611C571.809 173.235 572.564 172.66 573.155 171.933C573.746 171.206 574.154 170.349 574.348 169.433C574.541 168.517 574.512 167.568 574.265 166.665C574.018 165.762 573.559 164.93 572.927 164.24C572.294 163.55 571.506 163.02 570.628 162.695L572.437 150.713C573.74 150.419 574.904 149.691 575.739 148.649C576.574 147.606 577.03 146.311 577.032 144.975ZM565.034 163.528L557.184 159.077C557.336 158.55 557.415 158.005 557.419 157.457C557.416 156.81 557.306 156.168 557.093 155.557L567.131 149.29C567.779 149.896 568.555 150.349 569.401 150.614L567.638 162.4C566.69 162.555 565.795 162.942 565.034 163.528ZM565.503 146.731L555.413 153.037C554.575 152.293 553.541 151.806 552.434 151.631C551.328 151.457 550.194 151.603 549.168 152.053L545.489 146.951C545.699 146.659 545.884 146.35 546.042 146.027L565.344 146.088C565.39 146.307 565.443 146.519 565.503 146.731ZM548.653 157.457C548.65 156.889 548.816 156.333 549.129 155.859C549.443 155.385 549.89 155.015 550.414 154.796C550.938 154.576 551.515 154.518 552.072 154.627C552.63 154.735 553.143 155.008 553.545 155.408C553.948 155.809 554.223 156.32 554.335 156.877C554.447 157.434 554.391 158.011 554.174 158.536C553.957 159.062 553.59 159.51 553.118 159.826C552.645 160.142 552.09 160.311 551.522 160.311C550.764 160.311 550.036 160.011 549.499 159.476C548.961 158.941 548.657 158.215 548.653 157.457ZM571.165 142.144C571.733 142.144 572.287 142.312 572.759 142.627C573.231 142.943 573.598 143.391 573.816 143.915C574.033 144.439 574.09 145.016 573.979 145.573C573.868 146.129 573.595 146.64 573.194 147.041C572.793 147.443 572.281 147.716 571.725 147.827C571.168 147.937 570.591 147.88 570.067 147.663C569.543 147.446 569.095 147.078 568.78 146.607C568.465 146.135 568.296 145.58 568.296 145.013C568.296 144.252 568.599 143.522 569.137 142.984C569.675 142.446 570.404 142.144 571.165 142.144ZM537.859 143.491C537.859 142.924 538.027 142.369 538.343 141.898C538.658 141.426 539.106 141.058 539.63 140.841C540.154 140.624 540.731 140.567 541.288 140.678C541.844 140.788 542.355 141.062 542.756 141.463C543.158 141.864 543.431 142.375 543.542 142.932C543.652 143.488 543.596 144.065 543.378 144.589C543.161 145.113 542.794 145.561 542.322 145.877C541.85 146.192 541.295 146.36 540.728 146.36C539.967 146.36 539.237 146.058 538.699 145.52C538.161 144.982 537.859 144.252 537.859 143.491ZM542.469 149.123C542.699 149.053 542.924 148.967 543.143 148.866L546.799 153.945C546.322 154.581 545.979 155.308 545.791 156.08C545.604 156.853 545.575 157.656 545.706 158.44C545.838 159.224 546.127 159.974 546.557 160.643C546.987 161.312 547.548 161.886 548.207 162.332L546.254 168.214C546.095 168.214 545.943 168.214 545.784 168.214H545.694L542.469 149.123ZM545.784 176.964C545.217 176.964 544.662 176.795 544.19 176.48C543.718 176.164 543.35 175.716 543.133 175.191C542.916 174.666 542.86 174.089 542.971 173.532C543.082 172.976 543.356 172.464 543.758 172.064C544.16 171.663 544.672 171.39 545.229 171.28C545.786 171.17 546.363 171.228 546.887 171.446C547.412 171.665 547.859 172.034 548.173 172.506C548.488 172.979 548.655 173.535 548.653 174.102C548.651 174.862 548.348 175.59 547.81 176.126C547.272 176.662 546.544 176.964 545.784 176.964ZM551.219 171.809C550.777 170.766 550.044 169.873 549.107 169.235L551.068 163.339C551.219 163.339 551.363 163.339 551.522 163.339C553.056 163.338 554.528 162.738 555.625 161.666L563.194 165.928C562.896 166.648 562.742 167.419 562.74 168.198C562.74 168.282 562.74 168.357 562.74 168.441L551.219 171.809ZM568.629 171.097C568.062 171.097 567.507 170.929 567.035 170.614C566.564 170.299 566.196 169.851 565.979 169.327C565.762 168.802 565.705 168.226 565.816 167.669C565.926 167.113 566.2 166.601 566.601 166.2C567.002 165.799 567.513 165.526 568.07 165.415C568.626 165.304 569.203 165.361 569.727 165.578C570.251 165.795 570.699 166.163 571.015 166.635C571.33 167.107 571.498 167.661 571.498 168.229C571.496 168.607 571.42 168.981 571.273 169.329C571.126 169.677 570.911 169.993 570.642 170.258C570.372 170.523 570.053 170.732 569.703 170.874C569.352 171.015 568.977 171.086 568.599 171.082L568.629 171.097Z" fill="#FF6633"/>
<path fill-rule="evenodd" clip-rule="evenodd" d="M621.638 73H119V347H621.638V73ZM118 72V348H622.638V72H118Z" fill="#F6821F"/>
<defs>
<linearGradient id="paint0_linear_1893_132" x1="132" y1="94.9999" x2="575" y2="94.9999" gradientUnits="userSpaceOnUse">
<stop stop-color="#FF6633"/>
<stop offset="1" stop-color="#FBAD41"/>
</linearGradient>
</defs>
</svg>
