<svg width="740" height="420" viewBox="0 0 740 420" fill="none" xmlns="http://www.w3.org/2000/svg">
<g clip-path="url(#clip0_580_4845)">
<path d="M543.333 360.898H692.279C693.585 360.898 694.643 359.656 694.643 358.102V348.906C694.643 347.352 693.585 346.109 692.279 346.109H543.333C542.026 346.109 540.969 347.352 540.969 348.906V358.102C540.969 359.656 541.964 360.898 543.333 360.898Z" fill="#FDE7C9"/>
<path d="M500.591 381.031H671.935C673.241 381.031 674.299 379.789 674.299 378.235C674.299 376.682 673.241 375.439 671.935 375.439H500.591C499.285 375.439 498.227 376.682 498.227 378.235C498.165 379.789 499.285 381.031 500.591 381.031Z" fill="#FF6632"/>
<path d="M556.711 346.42H652.897V350.086H556.711V346.42Z" fill="#FDE7C9"/>
<mask id="mask0_580_4845" style="mask-type:luminance" maskUnits="userSpaceOnUse" x="0" y="380" width="749" height="41">
<path d="M748.087 380.534H0V420.241H748.087V380.534Z" fill="white"/>
</mask>
<g mask="url(#mask0_580_4845)">
<path d="M747.153 372.581H-4.04492V462.993H747.153V372.581Z" stroke="#F6821F" stroke-linejoin="round" stroke-dasharray="6 4"/>
</g>
<path d="M748.087 380.534H0V420.241H748.087V380.534Z" stroke="#F6821F" stroke-linejoin="round" stroke-dasharray="6 4"/>
<path d="M200.211 228.293H520.811" stroke="#FAAB42" stroke-width="2" stroke-miterlimit="10"/>
<path d="M484.166 141.857V227.423H467.367V141.857H484.166Z" fill="#FFCC89"/>
<path d="M210.476 263.775L239.531 352.447L257.324 346.668L228.269 257.996L210.476 263.775Z" fill="#FFE9CB" stroke="#FBAD41" stroke-width="1.5" stroke-linejoin="round"/>
<path d="M512.972 258.431L483.917 347.103L466.123 341.324L495.178 252.652L512.972 258.431Z" fill="#FFE9CB" stroke="#FBAD41" stroke-width="1.5" stroke-linejoin="round"/>
<path d="M202.762 262.532L231.817 351.205L238.972 348.906L209.917 260.233L202.762 262.532Z" fill="#FFCC89"/>
<path d="M520.686 257.188L491.631 345.861L484.477 343.562L513.531 254.889L520.686 257.188Z" fill="#FFCC89"/>
<path d="M406.707 329.207H261.992V351.64H406.707V329.207Z" fill="#BAEBF6"/>
<path d="M316.742 323.863H461.457V346.296H316.742V323.863Z" fill="#BAEBF6"/>
<path d="M396.876 306.775H283.519V329.207H396.876V306.775Z" fill="#DCF5FA"/>
<path d="M326.572 301.369H439.93V323.801H326.572V301.369Z" fill="#DCF5FA"/>
<path d="M374.541 329.207H363.777V351.64H374.541V329.207Z" fill="#42CEE7"/>
<path d="M348.907 323.863H359.671V346.296H348.907V323.863Z" fill="#42CEE7"/>
<path d="M285.136 278.191H275.243V306.775H285.136V278.191Z" fill="#DCF5FA"/>
<path d="M438.312 272.847H448.205V301.431H438.312V272.847Z" fill="#DCF5FA"/>
<path d="M298.698 278.191H288.806V306.775H298.698V278.191Z" fill="#DCF5FA"/>
<path d="M424.75 272.847H434.642V301.431H424.75V272.847Z" fill="#DCF5FA"/>
<path d="M360.852 261.165H261.804V278.191H360.852V261.165Z" fill="#DCF5FA"/>
<path d="M362.596 255.821H461.644V272.847H362.596V255.821Z" fill="#DCF5FA"/>
<path d="M467.369 135.706V227.672H450.135V135.706H467.369Z" fill="#FFE9CB" stroke="#FBAD41" stroke-width="1.5" stroke-linejoin="round"/>
<path d="M239.53 142.417V227.361H256.515V142.417H239.53Z" fill="#FFCC89"/>
<path d="M204.192 153.229V227.485H217.071V153.229H204.192Z" fill="#FFCC89"/>
<path d="M217.881 123.961V227.05H239.532V123.961H217.881Z" fill="#FFE9CB" stroke="#FBAD41" stroke-width="1.5" stroke-linejoin="round"/>
<path d="M505.692 124.272V227.361H484.041V124.272H505.692Z" fill="#FFE9CB" stroke="#FBAD41" stroke-width="1.5" stroke-linejoin="round"/>
<path d="M273.065 154.223V228.48H285.944V154.223H273.065Z" fill="#FFCC89"/>
<path d="M256.889 118.12V226.491H273.874V118.12H256.889Z" fill="#FFE9CB" stroke="#FBAD41" stroke-width="1.5" stroke-linejoin="round"/>
<path d="M450.133 161.369V223.384H437.254V161.369H450.133Z" fill="#FFE9CB" stroke="#FBAD41" stroke-width="1.5" stroke-linejoin="round"/>
<path d="M521.246 103.89H201.02V350.459H521.246V103.89Z" stroke="#FAAB42" stroke-width="2" stroke-miterlimit="10"/>
<path d="M293.659 265.825C297.507 265.825 300.627 263.655 300.627 260.978C300.627 258.302 297.507 256.132 293.659 256.132C289.81 256.132 286.69 258.302 286.69 260.978C286.69 263.655 289.81 265.825 293.659 265.825Z" fill="#42CEE7"/>
<path d="M320.785 261.041C328.064 257.064 334.784 252.155 340.819 246.5V209.714L389.347 210.273V244.884C391.587 249.172 399.924 254.454 411.123 260.73C396.751 268.559 380.637 272.723 364.274 273.033C348.969 273.158 333.913 268.994 320.785 261.041Z" fill="#FF6632"/>
<path d="M369.438 312.305C398.618 312.368 426.926 302.55 449.822 284.467C437.814 275.395 424.935 267.503 411.372 260.916C396.876 268.808 380.699 273.033 364.274 273.344C348.907 273.468 333.788 269.305 320.661 261.289C309.462 267.565 296.459 273.593 284.638 280.801C308.218 301.183 338.33 312.368 369.438 312.305Z" fill="#0057E3"/>
<path d="M448.079 212.448C430.534 202.692 428.232 196.975 429.601 187.84C430.597 183.615 432.463 179.7 435.076 176.283C438.374 171.249 441.733 166.092 441.733 158.821C441.733 149.811 434.827 145.648 429.788 142.603C427.984 141.733 426.304 140.49 424.935 138.937C424.002 137.259 423.193 135.519 422.571 133.717C417.345 120.854 406.457 94.0723 365.394 94.0723H365.083C355.999 94.0723 338.89 95.6879 327.318 107.184C319.914 114.578 316.181 124.769 316.181 137.508C316.181 152.235 308.342 162.426 302.12 170.628C297.454 176.718 293.41 181.999 293.41 187.716C293.41 195.297 299.072 204.183 304.049 212.075C307.72 217.916 311.204 223.384 311.204 226.678C311.204 229.722 304.422 233.824 297.205 238.111C286.877 244.325 275.118 251.347 274.807 259.736C274.496 263.775 275.056 267.876 276.425 271.666C277.794 275.457 279.971 278.999 282.771 281.919L283.144 282.23L283.58 281.982L283.766 281.857L283.829 281.919C307.657 302.425 338.081 313.673 369.563 313.673C399.053 313.797 427.735 303.855 450.817 285.523L452.248 284.405L450.817 283.286C445.342 279.061 439.742 275.27 434.578 272.039H434.641C451.004 268.435 461.954 257.871 464.007 243.766C464.878 237.552 463.882 231.214 461.02 225.559C458.096 220.091 453.617 215.43 448.079 212.448ZM404.466 262.843C403.906 263.091 403.346 263.34 402.786 263.588L402.226 263.837C401.728 264.085 401.168 264.272 400.608 264.52L399.986 264.769C399.364 265.017 398.742 265.266 398.12 265.515C398.058 265.577 397.933 265.577 397.871 265.639C387.17 269.678 375.784 271.853 364.336 271.977C349.84 271.977 335.593 268.249 322.9 261.103C329.744 257.312 336.028 252.652 341.69 247.246L342.001 246.935V210.77L388.414 211.329V244.884L388.539 245.381C390.716 249.669 398.306 254.64 409.008 260.73C408.012 261.227 406.581 261.973 404.715 262.78L404.466 262.843ZM447.582 284.529C425.184 301.742 397.684 311.063 369.438 310.938C339.326 310.938 310.146 300.375 287.002 281.112C293.472 277.259 300.316 273.717 306.973 270.237C311.764 267.752 316.243 265.39 320.598 263.029C333.85 270.796 348.907 274.898 364.274 274.835C380.761 274.463 396.875 270.299 411.434 262.594C424.126 268.746 436.258 276.078 447.582 284.529Z" fill="url(#paint0_linear_580_4845)"/>
<path d="M321.471 258.306C328.75 254.33 335.469 249.42 341.504 243.766V206.917L390.033 207.476V242.088C392.273 246.376 400.61 251.658 411.809 257.934C397.437 265.763 381.323 269.926 364.96 270.237C349.592 270.361 334.598 266.26 321.471 258.306Z" fill="#863850"/>
<path d="M413.363 142.976C413.363 155.528 408.759 181.129 400.671 196.602C394.636 208.098 379.206 220.836 365.145 220.836C351.084 220.836 337.21 208.036 329.62 196.602C319.976 182.062 316.928 155.528 316.928 142.976C316.928 130.175 322.029 117.934 331.051 108.924C340.072 99.9134 352.391 94.818 365.145 94.818C377.962 94.818 390.218 99.9134 399.24 108.924C408.261 117.934 413.363 130.175 413.363 142.976Z" fill="#863850" stroke="#5D0B83" stroke-width="2" stroke-miterlimit="10"/>
<path d="M364.524 111.347C350.898 111.347 336.153 113.46 328.874 126.012C327.94 124.831 327.007 123.961 326.136 123.464C324.892 122.781 323.71 122.781 322.59 123.216C321.532 123.651 320.723 124.583 319.977 125.577C319.292 126.571 318.67 127.752 318.173 128.932C317.799 129.74 317.488 130.61 317.239 131.356C317.488 119.177 322.465 107.557 331.113 98.9192C340.01 90.0333 352.018 85.0621 364.586 85.0621C377.153 85.0621 389.161 90.0333 398.058 98.9192C406.706 107.557 411.683 119.239 411.932 131.418V132.226C411.87 132.164 411.87 132.039 411.808 131.977C411.372 130.983 410.937 129.74 410.377 128.56C409.817 127.379 409.195 126.198 408.51 125.204C407.826 124.21 406.955 123.34 405.96 122.905C404.84 122.408 403.658 122.532 402.538 123.278C401.48 124.023 400.422 125.328 399.365 127.317C398.68 128.622 397.934 129.243 397.187 129.492C396.44 129.74 395.507 129.678 394.387 129.305C392.023 128.435 389.223 126.26 386.05 123.588C385.553 123.154 384.993 122.719 384.433 122.221C381.695 119.922 378.771 117.499 375.785 115.51C372.114 113.149 368.319 111.347 364.524 111.347Z" fill="#E0EDFF"/>
<path d="M399.365 127.317C400.422 125.328 401.48 124.023 402.538 123.278C403.658 122.532 404.84 122.408 405.96 122.905C406.955 123.34 407.826 124.21 408.51 125.204C409.195 126.198 409.817 127.379 410.377 128.56C410.937 129.74 411.372 130.983 411.808 131.977C411.87 132.039 411.87 132.164 411.932 132.226V131.418C411.683 119.239 406.706 107.557 398.058 98.9192C389.161 90.0333 377.153 85.0621 364.586 85.0621C352.018 85.0621 340.01 90.0333 331.113 98.9192C322.465 107.557 317.488 119.177 317.239 131.356C317.488 130.61 317.799 129.74 318.173 128.932C318.67 127.752 319.292 126.571 319.977 125.577C320.723 124.583 321.532 123.651 322.59 123.216C323.71 122.781 324.892 122.781 326.136 123.464C327.007 123.961 327.94 124.831 328.874 126.012C336.153 113.46 350.898 111.347 364.524 111.347C368.319 111.347 372.114 113.149 375.785 115.51C378.771 117.499 381.695 119.922 384.433 122.221C384.993 122.719 385.553 123.154 386.05 123.588C389.223 126.26 392.023 128.435 394.387 129.305C395.507 129.678 396.44 129.74 397.187 129.492C397.934 129.243 398.68 128.622 399.365 127.317ZM399.365 127.317L400.173 127.752" stroke="#FF6632" stroke-width="1.5" stroke-linejoin="round"/>
<path d="M411.123 163.171C411.372 162.115 411.87 161.183 412.554 160.313C413.239 159.443 414.047 158.759 414.981 158.262C415.914 157.765 416.972 157.454 418.029 157.392C419.087 157.33 420.145 157.454 421.202 157.827C427.299 159.629 423.878 181.689 406.893 180.881C408.635 175.04 410.066 169.137 411.123 163.171Z" fill="#BAEBF6"/>
<path d="M318.546 163.171C318.235 162.115 317.737 161.121 317.053 160.251C316.368 159.381 315.497 158.697 314.502 158.2C313.506 157.703 312.449 157.392 311.391 157.33C310.271 157.268 309.213 157.392 308.156 157.765C302.867 159.94 305.48 181.627 322.465 180.819C320.786 175.04 319.479 169.137 318.546 163.171Z" fill="#BAEBF6"/>
<path fill-rule="evenodd" clip-rule="evenodd" d="M466.433 226.802H262.986C260.311 226.802 257.698 227.858 255.769 229.785C253.841 231.649 252.783 234.259 252.721 236.931V370.219H476.699V236.931C476.699 234.259 475.579 231.649 473.65 229.785C471.722 227.858 469.171 226.802 466.433 226.802Z" fill="#FCB42F" stroke="#CE2F55" stroke-width="2"/>
<path fill-rule="evenodd" clip-rule="evenodd" d="M460.523 379.167H269.146C259.191 379.167 252.472 377.241 252.472 375.439V369.784C252.534 369.474 252.596 369.225 252.783 369.039C252.969 368.852 253.218 368.79 253.405 368.79H476.139C476.388 368.79 476.574 368.852 476.761 369.039C476.948 369.225 477.072 369.474 477.072 369.784V375.563C477.197 377.117 471.97 379.167 460.523 379.167Z" fill="white"/>
<path d="M460.523 379.167H269.146C259.191 379.167 252.472 377.241 252.472 375.439V369.784C252.534 369.474 252.596 369.225 252.783 369.039C252.969 368.852 253.218 368.79 253.405 368.79H476.139C476.388 368.79 476.574 368.852 476.761 369.039C476.948 369.225 477.072 369.474 477.072 369.784V375.563C477.197 377.117 471.97 379.167 460.523 379.167Z" stroke="#0057E3" stroke-width="2" stroke-miterlimit="10"/>
<path d="M477.196 369.847C477.196 369.536 477.072 369.287 476.885 369.101C476.698 368.914 476.45 368.852 476.263 368.852H253.529C253.28 368.852 253.093 368.914 252.907 369.101C252.72 369.287 252.596 369.536 252.596 369.847V375.191H477.321V369.847H477.196Z" fill="#DCF5FA"/>
<mask id="mask1_580_4845" style="mask-type:luminance" maskUnits="userSpaceOnUse" x="303" y="85" width="133" height="103">
<path d="M427.551 187.095H310.772C306.665 187.095 303.306 183.739 303.306 179.638V92.4567C303.306 88.3555 306.665 85 310.772 85H427.614C431.72 85 435.08 88.3555 435.08 92.4567V179.576C435.017 183.739 431.658 187.095 427.551 187.095Z" fill="white"/>
</mask>
<g mask="url(#mask1_580_4845)">
<path d="M421.517 156.771C420.272 156.336 418.966 156.212 417.721 156.336C416.415 156.46 415.171 156.895 414.051 157.579C413.677 157.827 413.366 158.076 413.055 158.324C413.864 153.229 414.362 148.071 414.424 142.976C414.486 136.451 413.242 130.051 410.753 124.023C408.327 117.996 404.656 112.528 400.114 107.929C395.51 103.331 390.097 99.6649 384.062 97.1793C378.028 94.6937 371.619 93.3888 365.087 93.3888C358.554 93.3888 352.146 94.6937 346.111 97.1793C340.076 99.6649 334.663 103.331 330.059 107.929C325.455 112.528 321.846 117.996 319.42 124.023C316.993 130.051 315.749 136.513 315.749 142.976C315.811 148.196 316.122 153.415 316.807 158.573C316.247 158.014 315.687 157.579 315.003 157.206C313.883 156.584 312.701 156.212 311.456 156.149C310.212 156.087 308.968 156.274 307.785 156.771C305.048 157.889 303.928 162.55 305.11 167.894C305.795 171.809 307.785 175.351 310.834 177.898C313.883 180.446 317.678 181.875 321.66 181.937H321.784C323.402 187.281 325.704 192.439 328.69 197.161C336.218 208.595 350.341 221.893 365.149 221.893C379.645 221.893 395.386 209.03 401.67 197.037C404.096 192.19 406.149 187.095 407.705 181.875H407.767C411.998 181.813 416.042 180.26 419.152 177.463C422.263 174.667 424.316 170.814 424.814 166.651C425.685 161.618 424.316 157.641 421.517 156.771ZM321.038 179.825C317.678 179.7 314.443 178.395 311.892 176.096C309.341 173.859 307.723 170.814 307.163 167.459C306.168 163.047 307.101 159.381 308.532 158.821C309.279 158.511 310.15 158.324 310.958 158.324C312.016 158.324 313.012 158.573 313.883 159.132C315.562 160.064 316.807 161.556 317.429 163.358C317.429 163.42 317.429 163.544 317.491 163.606C317.74 165.346 318.113 167.335 318.487 169.385C319.047 172.368 319.793 175.288 320.54 178.209C320.789 178.768 320.913 179.327 321.038 179.825ZM399.679 196.105C393.706 207.539 378.339 219.78 365.087 219.78C352.021 219.78 338.271 207.849 330.432 196.043C327.072 190.637 324.584 184.734 322.966 178.582C322.22 175.972 321.224 171.871 320.478 168.08C320.415 167.645 320.291 167.148 320.229 166.713C320.166 166.402 320.104 166.03 320.042 165.719C319.98 165.408 319.98 165.16 319.918 164.849C319.855 164.29 319.731 163.73 319.669 163.233C329.25 155.777 337.089 127.814 338.645 122.097C349.595 129.865 384.498 142.23 408.016 140.428C408.576 146.394 409.571 152.297 410.878 158.138C409.633 166.216 407.829 174.17 405.403 181.937C403.909 186.784 401.981 191.569 399.679 196.105ZM422.637 166.34C422.201 169.882 420.521 173.176 417.908 175.661C415.295 178.147 411.873 179.576 408.327 179.825C409.198 176.842 410.007 173.797 410.691 170.752C411.313 168.08 411.873 165.408 412.246 163.358C412.682 161.742 413.74 160.313 415.171 159.443C416.042 158.946 416.975 158.635 417.97 158.511C418.966 158.386 419.961 158.511 420.894 158.884C422.512 159.381 423.321 162.55 422.637 166.34Z" fill="url(#paint1_linear_580_4845)"/>
</g>
<path d="M460.523 380.907H269.146C259.191 380.907 252.472 378.67 252.472 376.557V369.971C252.534 369.598 252.596 369.287 252.783 369.101C252.969 368.914 253.218 368.79 253.405 368.79H476.139C476.388 368.79 476.574 368.852 476.761 369.101C476.948 369.287 477.072 369.598 477.072 369.971V376.744C477.197 378.484 471.97 380.907 460.523 380.907Z" fill="#F6821F" stroke="#CE2F55"/>
<path d="M364.835 317.774C371.741 317.774 377.34 312.182 377.34 305.284C377.34 298.386 371.741 292.794 364.835 292.794C357.928 292.794 352.329 298.386 352.329 305.284C352.329 312.182 357.928 317.774 364.835 317.774Z" fill="white"/>
<path d="M265.227 253.584L317.115 252.838L273.128 233.389L269.644 231.835L265.227 253.584Z" fill="#F5811E"/>
<path d="M273.501 233.575L269.644 231.897L265.164 253.708L269.395 253.522L273.501 233.575Z" fill="#FFE9CB" stroke="#FBAD41" stroke-width="1.5" stroke-linejoin="round"/>
<path d="M286.442 249.296L286.566 248.985C286.753 248.675 286.753 248.302 286.629 248.053C286.504 247.805 286.255 247.618 285.944 247.494L279.785 246.065C279.723 246.065 279.723 246.003 279.723 246.003C279.723 246.003 279.723 245.941 279.723 245.879C279.785 245.816 279.847 245.816 279.909 245.816L286.193 247.059C286.94 247.183 287.873 246.748 288.309 246.127L288.868 245.257V245.195C288.868 245.195 288.868 245.195 288.868 245.133C288.868 243.269 287.5 241.591 285.571 241.156C283.767 240.783 282.025 241.591 281.154 243.02C280.843 242.709 280.407 242.461 279.972 242.399C279.101 242.274 278.23 242.834 277.981 243.642C277.918 243.828 277.856 244.076 277.918 244.263C276.487 244.014 275.119 244.884 274.87 246.251C274.87 246.376 274.808 246.5 274.808 246.624C274.808 246.686 274.87 246.748 274.932 246.748L286.38 249.172C286.318 249.358 286.38 249.358 286.442 249.296Z" fill="white"/>
<path d="M289.552 245.257C289.49 245.257 289.428 245.257 289.365 245.195C289.303 245.195 289.303 245.195 289.303 245.257L288.868 246.065C288.681 246.438 288.619 246.749 288.743 247.059C288.868 247.308 289.116 247.556 289.428 247.618L290.734 247.991C290.796 247.991 290.796 248.053 290.796 248.053C290.796 248.116 290.796 248.116 290.796 248.178C290.734 248.24 290.672 248.302 290.61 248.24L289.179 248.053C288.432 247.929 287.499 248.364 287.001 249.11L286.814 249.358C286.814 249.421 286.814 249.483 286.877 249.483L291.667 250.477C291.73 250.477 291.792 250.477 291.792 250.415C291.916 250.104 292.041 249.793 292.103 249.483C292.601 247.556 291.418 245.692 289.552 245.257Z" fill="white"/>
<path fill-rule="evenodd" clip-rule="evenodd" d="M299.632 322.123C299.881 322.993 300.13 323.739 300.814 325.23C301.436 326.598 302.929 329.704 303.365 330.574C303.427 330.512 303.489 330.512 303.614 330.45L304.174 331.507C305.107 331.009 306.165 330.45 307.222 329.829C307.222 329.829 307.16 329.891 307.098 329.953C311.08 327.778 312.324 327.654 312.822 328.462C313.568 329.704 312.573 333.744 310.955 336.105C311.08 336.167 311.204 336.229 311.329 336.291L313.568 335.235C313.693 335.173 313.817 335.173 313.942 335.173C314.066 335.173 314.191 335.235 314.253 335.297C314.377 335.359 314.439 335.483 314.502 335.608C314.564 335.732 314.564 335.856 314.564 335.981L314.502 338.528C314.688 338.653 314.813 338.777 314.999 338.901L317.364 338.342C317.488 338.342 317.612 338.342 317.737 338.342C317.861 338.404 317.986 338.466 318.048 338.528C318.11 338.59 318.172 338.715 318.235 338.839C318.297 338.963 318.297 339.087 318.235 339.212L317.675 341.697C317.799 341.884 317.924 342.008 318.048 342.194L320.474 342.132C320.599 342.132 320.723 342.132 320.848 342.194C320.972 342.257 321.034 342.319 321.097 342.443C321.159 342.567 321.221 342.692 321.221 342.816C321.221 342.94 321.221 343.064 321.159 343.189L320.163 345.488C320.288 345.674 320.35 345.861 320.474 346.047L322.901 346.482C323.025 346.482 323.15 346.544 323.212 346.606C323.336 346.668 323.399 346.793 323.399 346.917C323.461 347.041 323.461 347.166 323.461 347.29C323.461 347.414 323.399 347.538 323.336 347.663L321.905 349.713C321.968 349.838 321.968 349.962 322.03 350.086C322.714 349.589 323.461 348.906 324.27 348.098L324.83 346.917C324.83 346.917 318.919 341.014 328.127 336.975C328.127 336.975 327.318 338.28 327.567 343.375C327.567 343.375 330.367 342.443 331.176 337.907C331.176 337.907 335.22 343.251 326.758 348.222C326.758 348.222 325.701 349.9 323.959 351.453L326.447 353.255C326.447 353.255 327.069 353.566 326.447 354.809C325.887 355.865 322.776 360.277 321.097 362.576C320.412 363.695 319.977 364.44 319.914 364.378C319.79 364.316 319.977 362.452 321.283 360.028C322.216 357.916 323.399 354.747 322.963 354.436C322.963 354.436 322.839 354.312 322.59 354.187C322.528 354.312 322.465 354.374 322.403 354.498C321.968 355.306 319.852 358.351 318.732 359.966C318.235 360.774 317.924 361.271 317.861 361.271C317.799 361.209 318.172 359.656 319.106 357.916C319.666 356.673 320.412 354.933 320.661 354.063C320.039 354.622 314.439 358.537 301.747 358.599C289.366 358.599 283.269 355.554 282.274 354.933C282.647 355.803 283.269 357.046 283.767 357.978C284.887 359.718 285.26 361.209 285.198 361.271C285.136 361.333 284.762 360.836 284.202 360.028C282.896 358.475 280.469 355.492 279.972 354.747C279.847 354.498 279.723 354.312 279.661 354.125C279.287 354.436 279.101 354.622 279.101 354.622C278.665 354.995 280.469 358.102 281.838 360.091C283.642 362.328 284.14 364.254 284.078 364.378C284.016 364.44 283.394 363.757 282.46 362.7C280.345 360.65 276.239 356.673 275.492 355.679C274.621 354.56 275.181 354.063 275.181 354.063L277.11 352.012C273.626 350.086 273.128 348.408 273.128 348.408C263.982 343.997 270.328 339.398 270.328 339.398C270.888 343.189 273.501 344.929 273.501 344.929L272.506 338.093C280.967 342.008 275.554 348.16 275.554 348.16C276.114 349.03 277.421 349.713 278.727 350.273L279.163 349.775V349.713V349.651L277.732 347.601C277.67 347.476 277.607 347.352 277.607 347.228C277.607 347.103 277.607 346.979 277.67 346.855C277.732 346.731 277.794 346.669 277.856 346.544C277.981 346.482 278.043 346.42 278.167 346.42L280.594 345.985C280.718 345.799 280.781 345.612 280.905 345.426L279.909 343.127C279.847 343.002 279.847 342.878 279.847 342.754C279.847 342.629 279.909 342.505 279.972 342.381C280.034 342.257 280.158 342.194 280.221 342.132C280.345 342.07 280.469 342.07 280.594 342.07H280.718C278.105 340.952 274.994 336.478 275.368 334.862C275.554 333.868 276.861 333.619 281.34 334.365C281.216 334.303 281.216 334.303 281.216 334.303C282.46 334.551 283.58 334.676 284.638 334.862L284.825 333.681C284.887 333.681 285.011 333.681 285.073 333.681C285.198 332.749 285.758 329.456 285.696 327.778C285.633 326.411 285.696 325.479 285.696 324.609C285.696 324.05 285.758 323.491 285.758 322.869C285.758 321.44 286.753 321.005 287.811 321.751C289.553 323.056 291.419 323.366 292.726 323.18C294.033 322.931 295.65 321.999 296.894 320.197C297.641 319.079 298.823 319.389 299.197 320.57C299.321 321.254 299.445 321.689 299.632 322.123Z" fill="white"/>
<path d="M303.364 330.574L301.684 331.382C302.12 332.252 303.177 332.687 304.111 332.252L303.364 330.574ZM303.613 330.45L305.231 329.58C304.795 328.71 303.737 328.337 302.804 328.772L303.613 330.45ZM304.111 331.506L302.493 332.376C302.929 333.246 304.048 333.619 304.982 333.184L304.111 331.506ZM307.222 329.829L308.528 331.134C309.15 330.45 309.212 329.456 308.652 328.71C308.093 327.965 307.097 327.778 306.288 328.275L307.222 329.829ZM307.097 329.953L305.728 328.71C305.106 329.394 305.044 330.388 305.604 331.134C306.164 331.879 307.159 332.066 307.968 331.631L307.097 329.953ZM311.017 336.167L309.524 335.111C309.212 335.546 309.15 336.105 309.212 336.602C309.337 337.099 309.648 337.534 310.146 337.783L311.017 336.167ZM311.39 336.353L310.457 337.969C310.954 338.28 311.639 338.28 312.199 338.031L311.39 336.353ZM314.501 338.528L312.634 338.466C312.634 339.025 312.883 339.585 313.319 339.957L314.501 338.528ZM314.999 338.963L313.754 340.33C314.19 340.703 314.812 340.89 315.434 340.765L314.999 338.963ZM317.674 341.759L315.87 341.324C315.745 341.884 315.87 342.443 316.243 342.878L317.674 341.759ZM318.047 342.257L316.554 343.375C316.927 343.872 317.487 344.121 318.109 344.121L318.047 342.257ZM320.162 345.488L318.483 344.742C318.234 345.239 318.296 345.861 318.545 346.358L320.162 345.488ZM320.411 346.047L318.732 346.855C318.98 347.414 319.478 347.787 320.1 347.849L320.411 346.047ZM321.905 349.713L320.411 348.657C320.1 349.092 319.976 349.713 320.162 350.21L321.905 349.713ZM321.967 350.086L320.162 350.583C320.349 351.142 320.785 351.64 321.345 351.826C321.905 352.012 322.527 351.95 323.024 351.577L321.967 350.086ZM324.207 348.098L325.513 349.403C325.638 349.216 325.762 349.092 325.886 348.843L324.207 348.098ZM324.766 346.917L326.446 347.663C326.757 346.979 326.633 346.109 326.073 345.612L324.766 346.917ZM328.064 336.975L329.619 337.969C330.055 337.285 329.993 336.415 329.433 335.794C328.873 335.173 328.064 334.986 327.317 335.297L328.064 336.975ZM327.504 343.375L325.637 343.437C325.637 343.996 325.949 344.556 326.446 344.866C326.944 345.177 327.566 345.301 328.064 345.053L327.504 343.375ZM331.05 337.907L332.544 336.788C332.108 336.229 331.361 335.918 330.615 336.105C329.93 336.291 329.37 336.85 329.246 337.596L331.05 337.907ZM326.695 348.222L325.762 346.606C325.513 346.731 325.264 346.979 325.14 347.228L326.695 348.222ZM323.833 351.453L322.589 350.086C322.153 350.459 321.905 351.018 321.967 351.577C321.967 352.137 322.278 352.634 322.713 353.007L323.833 351.453ZM326.322 353.317L325.264 354.809C325.326 354.871 325.451 354.933 325.513 354.933L326.322 353.317ZM320.971 362.638L319.478 361.582C319.416 361.644 319.416 361.644 319.416 361.706L320.971 362.638ZM321.158 360.091L322.776 360.96C322.776 360.898 322.838 360.898 322.838 360.836L321.158 360.091ZM322.776 354.498L321.531 355.865C321.593 355.927 321.718 355.989 321.842 356.051L322.776 354.498ZM322.464 354.249L323.398 352.696C322.962 352.385 322.34 352.385 321.842 352.51C321.345 352.696 320.909 353.069 320.722 353.566L322.464 354.249ZM318.607 360.091L317.114 359.034C317.114 359.096 317.052 359.096 317.052 359.158L318.607 360.091ZM319.043 357.978L320.66 358.848L320.722 358.786L319.043 357.978ZM320.536 354.125L322.34 354.56C322.527 353.752 322.216 352.945 321.531 352.51C320.847 352.075 319.976 352.137 319.354 352.696L320.536 354.125ZM282.211 354.933L283.206 353.38C282.522 352.945 281.651 353.007 281.028 353.504C280.406 354.001 280.22 354.871 280.531 355.617L282.211 354.933ZM283.704 357.978L282.086 358.91C282.086 358.972 282.148 358.972 282.148 359.034L283.704 357.978ZM284.202 360.028L285.695 358.972C285.695 358.91 285.632 358.91 285.57 358.848L284.202 360.028ZM279.66 354.125L281.464 353.628C281.277 353.007 280.842 352.572 280.282 352.323C279.722 352.137 279.038 352.199 278.54 352.572L279.66 354.125ZM279.1 354.622L280.282 356.051C280.344 355.989 280.469 355.865 280.531 355.803L279.1 354.622ZM281.837 360.153L280.282 361.209C280.282 361.271 280.344 361.271 280.344 361.333L281.837 360.153ZM282.459 362.763L283.89 361.582C283.828 361.52 283.828 361.52 283.766 361.458L282.459 362.763ZM275.18 354.063L276.3 355.492C276.362 355.43 276.424 355.368 276.487 355.306L275.18 354.063ZM277.109 352.075L278.478 353.317C278.851 352.882 279.038 352.323 278.975 351.764C278.913 351.205 278.54 350.708 278.042 350.459L277.109 352.075ZM273.127 348.408L274.931 347.911C274.807 347.414 274.434 346.979 273.936 346.731L273.127 348.408ZM270.327 339.398L272.132 339.15C272.007 338.528 271.634 337.969 271.012 337.72C270.39 337.472 269.705 337.534 269.207 337.907L270.327 339.398ZM273.5 344.929L272.443 346.482C273.065 346.917 273.811 346.917 274.434 346.482C275.056 346.109 275.367 345.364 275.305 344.68L273.5 344.929ZM272.505 338.093L273.314 336.415C272.692 336.105 271.945 336.229 271.447 336.602C270.887 337.037 270.638 337.658 270.701 338.342L272.505 338.093ZM275.553 348.222L274.185 346.979C273.625 347.601 273.563 348.47 273.998 349.154L275.553 348.222ZM278.789 350.273L278.104 352.012C278.789 352.261 279.598 352.075 280.095 351.577L278.789 350.273ZM279.224 349.838L280.593 351.08C280.78 350.894 280.966 350.583 281.028 350.335L279.224 349.838ZM279.224 349.713L280.966 350.273C281.153 349.713 281.028 349.154 280.717 348.657L279.224 349.713ZM280.655 346.047L280.966 347.849C281.526 347.725 282.024 347.352 282.335 346.855L280.655 346.047ZM280.966 345.488L282.584 346.358C282.833 345.861 282.895 345.301 282.646 344.742L280.966 345.488ZM280.717 342.132L280.655 343.996C281.526 344.059 282.335 343.437 282.522 342.567C282.708 341.697 282.273 340.827 281.464 340.455L280.717 342.132ZM281.34 334.427L281.028 336.229C281.9 336.353 282.771 335.856 283.082 334.986C283.393 334.116 282.957 333.184 282.148 332.749L281.34 334.427ZM281.153 334.303L281.464 332.501C280.531 332.314 279.66 332.874 279.349 333.743C279.038 334.613 279.473 335.546 280.282 335.981L281.153 334.303ZM284.575 334.862L284.326 336.664C285.321 336.788 286.255 336.105 286.379 335.111L284.575 334.862ZM284.761 333.681L284.886 331.817C283.89 331.755 283.019 332.439 282.895 333.433L284.761 333.681ZM285.01 333.743L284.886 335.608C285.819 335.67 286.69 334.986 286.877 334.054L285.01 333.743ZM285.695 324.671L287.561 324.733V324.671H285.695ZM285.695 324.671L283.828 324.609V324.671H285.695ZM302.493 324.485C301.809 323.056 301.622 322.372 301.373 321.564L297.827 322.683C298.138 323.553 298.387 324.423 299.133 326.038L302.493 324.485ZM305.044 329.767C304.608 328.897 303.115 325.79 302.493 324.485L299.133 326.038C299.756 327.405 301.311 330.574 301.684 331.444L305.044 329.767ZM302.866 328.772C302.804 328.834 302.742 328.834 302.618 328.897L304.111 332.252C304.173 332.19 304.297 332.19 304.36 332.128L302.866 328.772ZM305.791 330.637L305.231 329.58L301.933 331.258L302.493 332.314L305.791 330.637ZM306.288 328.275C305.231 328.897 304.235 329.394 303.302 329.891L304.982 333.184C305.977 332.687 307.035 332.128 308.155 331.506L306.288 328.275ZM308.466 331.258C308.528 331.196 308.528 331.196 308.528 331.196C308.528 331.196 308.528 331.196 307.222 329.891C305.915 328.586 305.915 328.586 305.915 328.586L305.853 328.648L308.466 331.258ZM314.439 327.592C314.128 327.032 313.568 326.535 312.759 326.287C312.074 326.1 311.39 326.163 310.83 326.287C309.648 326.535 308.155 327.219 306.164 328.337L307.906 331.569C309.897 330.512 311.017 330.015 311.639 329.891C311.95 329.829 311.95 329.891 311.763 329.829C311.514 329.767 311.328 329.58 311.203 329.394L314.439 327.592ZM312.51 337.223C313.505 335.794 314.19 333.992 314.563 332.376C314.75 331.569 314.874 330.699 314.874 329.953C314.874 329.269 314.812 328.337 314.376 327.592L311.203 329.456C311.141 329.332 311.203 329.332 311.203 329.829C311.203 330.264 311.141 330.823 310.954 331.444C310.643 332.749 310.083 334.116 309.461 335.048L312.51 337.223ZM312.323 334.738C312.199 334.676 312.074 334.613 311.888 334.489L310.083 337.72C310.208 337.783 310.332 337.845 310.457 337.907L312.323 334.738ZM312.821 333.619L310.581 334.676L312.199 338.031L314.439 336.975L312.821 333.619ZM314.128 333.433C313.692 333.371 313.256 333.495 312.821 333.681L314.439 337.037C314.252 337.099 314.065 337.161 313.816 337.161L314.128 333.433ZM315.372 333.868C314.999 333.619 314.563 333.433 314.128 333.433L313.816 337.099C313.63 337.099 313.443 337.037 313.256 336.913L315.372 333.868ZM316.181 334.862C315.994 334.489 315.683 334.116 315.372 333.868L313.256 336.85C313.132 336.726 313.008 336.602 312.883 336.415L316.181 334.862ZM316.429 336.105C316.429 335.67 316.367 335.235 316.181 334.862L312.883 336.478C312.821 336.291 312.759 336.105 312.759 335.981L316.429 336.105ZM316.367 338.59L316.429 336.043L312.759 335.918L312.697 338.466L316.367 338.59ZM316.243 337.596C316.056 337.472 315.932 337.285 315.745 337.161L313.381 340.02C313.505 340.144 313.692 340.268 313.816 340.392L316.243 337.596ZM316.927 336.602L314.563 337.161L315.434 340.765L317.798 340.206L316.927 336.602ZM318.234 336.602C317.798 336.478 317.363 336.478 316.927 336.54L317.798 340.144C317.612 340.206 317.425 340.206 317.176 340.144L318.234 336.602ZM319.354 337.285C319.043 336.975 318.669 336.726 318.234 336.602L317.176 340.144C316.989 340.082 316.803 339.957 316.678 339.833L319.354 337.285ZM319.976 338.404C319.851 337.969 319.665 337.596 319.354 337.285L316.678 339.833C316.554 339.709 316.492 339.522 316.429 339.398L319.976 338.404ZM320.038 339.709C320.162 339.274 320.1 338.839 320.038 338.466L316.492 339.46C316.43 339.274 316.43 339.087 316.492 338.963L320.038 339.709ZM319.478 342.132L320.038 339.647L316.429 338.839L315.87 341.324L319.478 342.132ZM319.54 341.076C319.416 340.89 319.291 340.703 319.105 340.517L316.243 342.878C316.367 343.002 316.492 343.189 316.616 343.313L319.54 341.076ZM320.411 340.268L317.985 340.33L318.109 343.996L320.536 343.934L320.411 340.268ZM321.718 340.579C321.345 340.392 320.909 340.268 320.411 340.268L320.536 343.934C320.349 343.934 320.162 343.872 319.976 343.81L321.718 340.579ZM322.651 341.511C322.402 341.138 322.091 340.827 321.718 340.579L319.976 343.81C319.789 343.686 319.665 343.562 319.54 343.375L322.651 341.511ZM323.087 342.692C323.024 342.257 322.9 341.822 322.651 341.511L319.54 343.499C319.416 343.375 319.416 343.189 319.354 343.002L323.087 342.692ZM322.838 343.934C323.024 343.561 323.087 343.127 323.024 342.692L319.354 343.002C319.354 342.816 319.354 342.629 319.416 342.505L322.838 343.934ZM321.842 346.233L322.838 343.934L319.478 342.443L318.483 344.742L321.842 346.233ZM322.091 345.239C321.967 345.053 321.905 344.804 321.78 344.618L318.483 346.358C318.607 346.544 318.669 346.731 318.732 346.855L322.091 345.239ZM323.149 344.68L320.722 344.245L320.1 347.911L322.527 348.346L323.149 344.68ZM324.331 345.177C324.02 344.866 323.584 344.68 323.149 344.618L322.464 348.284C322.278 348.222 322.091 348.16 321.967 348.036L324.331 345.177ZM325.14 346.233C324.953 345.799 324.704 345.488 324.393 345.177L322.029 348.036C321.905 347.911 321.78 347.725 321.718 347.601L325.14 346.233ZM325.264 347.476C325.326 347.041 325.264 346.606 325.078 346.233L321.656 347.601C321.593 347.414 321.593 347.29 321.593 347.103L325.264 347.476ZM324.829 348.657C325.078 348.284 325.202 347.911 325.264 347.476L321.593 347.041C321.593 346.855 321.656 346.668 321.78 346.544L324.829 348.657ZM323.398 350.77L324.829 348.719L321.78 346.606L320.349 348.657L323.398 350.77ZM323.771 349.589C323.709 349.465 323.709 349.34 323.647 349.216L320.1 350.273C320.162 350.397 320.162 350.521 320.225 350.645L323.771 349.589ZM322.9 346.793C322.153 347.538 321.469 348.098 320.909 348.533L323.087 351.515C323.833 350.956 324.704 350.21 325.513 349.34L322.9 346.793ZM323.087 346.171L322.527 347.352L325.886 348.843L326.446 347.663L323.087 346.171ZM327.317 335.297C324.829 336.415 323.149 337.72 322.153 339.212C321.158 340.765 320.971 342.381 321.158 343.748C321.407 345.115 321.967 346.171 322.464 346.917C322.713 347.29 322.962 347.601 323.149 347.787C323.211 347.911 323.335 347.973 323.398 348.036C323.398 348.098 323.46 348.098 323.46 348.098C323.46 348.098 323.46 348.098 324.766 346.793C326.073 345.488 326.073 345.488 326.073 345.488C326.073 345.488 326.011 345.426 325.949 345.364C325.824 345.239 325.7 345.053 325.513 344.804C325.202 344.307 324.891 343.686 324.766 343.064C324.642 342.505 324.704 341.822 325.202 341.138C325.7 340.392 326.695 339.46 328.811 338.528L327.317 335.297ZM329.308 343.313C329.184 340.89 329.308 339.398 329.495 338.652C329.557 338.28 329.619 338.031 329.682 337.969C329.682 337.969 329.682 337.969 329.682 338.031C329.682 338.031 329.682 338.031 328.126 337.099C326.571 336.105 326.571 336.167 326.571 336.167C326.571 336.167 326.571 336.229 326.509 336.229C326.509 336.291 326.446 336.291 326.446 336.353C326.384 336.478 326.322 336.602 326.26 336.726C326.135 337.037 326.011 337.472 325.949 338.031C325.762 339.15 325.575 340.89 325.7 343.561L329.308 343.313ZM329.246 337.596C328.935 339.46 328.188 340.517 327.628 341.014C327.38 341.262 327.131 341.449 326.944 341.573C326.882 341.635 326.82 341.635 326.82 341.635C326.82 341.635 326.82 341.635 327.442 343.375C328.064 345.115 328.064 345.115 328.064 345.115H328.126C328.188 345.115 328.251 345.053 328.313 345.053C328.437 344.991 328.624 344.929 328.811 344.804C329.184 344.556 329.682 344.245 330.241 343.686C331.299 342.629 332.357 340.89 332.855 338.28L329.246 337.596ZM327.628 349.838C332.232 347.103 333.85 343.996 333.912 341.262C333.912 339.957 333.601 338.901 333.29 338.093C333.103 337.72 332.979 337.41 332.855 337.223C332.792 337.099 332.73 337.037 332.668 336.975C332.668 336.913 332.606 336.913 332.606 336.913C332.606 336.913 332.606 336.913 331.113 338.031C329.619 339.15 329.619 339.15 329.619 339.15C329.619 339.15 329.619 339.212 329.682 339.212C329.744 339.336 329.806 339.46 329.93 339.647C330.117 340.02 330.241 340.579 330.241 341.262C330.241 342.443 329.619 344.494 325.762 346.731L327.628 349.838ZM325.078 352.882C326.073 352.012 326.882 351.142 327.38 350.459C327.628 350.148 327.877 349.838 328.002 349.651C328.064 349.527 328.126 349.465 328.188 349.403C328.188 349.34 328.251 349.34 328.251 349.34C328.251 349.34 328.251 349.34 326.695 348.346C325.14 347.352 325.14 347.352 325.14 347.352C325.14 347.352 325.14 347.352 325.14 347.414C325.14 347.476 325.078 347.538 325.015 347.601C324.891 347.725 324.766 347.973 324.518 348.284C324.082 348.843 323.46 349.527 322.651 350.21L325.078 352.882ZM327.442 351.826L324.953 350.024L322.776 352.945L325.264 354.747L327.442 351.826ZM327.939 355.741C328.437 354.871 328.624 353.939 328.313 353.069C328.188 352.634 327.94 352.323 327.691 352.137C327.566 352.012 327.504 351.95 327.38 351.888C327.317 351.826 327.317 351.826 327.255 351.826C327.255 351.826 327.193 351.826 327.193 351.764C327.193 351.764 327.193 351.764 326.322 353.38C325.451 354.995 325.451 354.995 325.451 354.995H325.389L325.326 354.933C325.264 354.871 325.202 354.871 325.14 354.809C325.015 354.684 324.891 354.56 324.829 354.374C324.704 353.939 324.891 353.814 324.704 354.125L327.939 355.741ZM322.464 363.695C323.273 362.514 324.518 360.836 325.575 359.345C326.633 357.854 327.628 356.424 327.939 355.741L324.704 354.001C324.455 354.436 323.647 355.679 322.527 357.232C321.469 358.723 320.287 360.401 319.478 361.582L322.464 363.695ZM318.856 365.994C319.603 366.429 320.349 366.18 320.536 366.118C320.785 365.994 320.971 365.87 321.034 365.807C321.158 365.683 321.282 365.559 321.345 365.497C321.469 365.372 321.593 365.186 321.718 365C321.967 364.627 322.278 364.13 322.589 363.57L319.416 361.706C319.105 362.265 318.794 362.7 318.669 362.949C318.607 363.011 318.607 363.073 318.545 363.135C318.545 363.198 318.483 363.198 318.483 363.198C318.483 363.198 318.483 363.198 318.483 363.135C318.483 363.135 318.545 363.073 318.607 363.011C318.669 362.949 318.794 362.825 319.043 362.763C319.229 362.7 319.976 362.39 320.722 362.887L318.856 365.994ZM319.54 359.221C318.794 360.588 318.42 361.768 318.172 362.7C318.047 363.135 317.985 363.57 317.923 363.881C317.923 364.067 317.923 364.254 317.923 364.44C317.923 364.502 317.923 364.689 317.985 364.875C317.985 364.937 318.047 365.124 318.172 365.31C318.234 365.497 318.483 365.807 318.856 366.056L320.722 362.887C321.158 363.135 321.345 363.508 321.407 363.632C321.469 363.819 321.531 363.943 321.531 364.005C321.593 364.13 321.593 364.254 321.593 364.254C321.593 364.316 321.593 364.316 321.593 364.254C321.593 364.13 321.656 363.943 321.718 363.57C321.905 362.949 322.216 362.017 322.776 360.96L319.54 359.221ZM321.905 356.114C321.469 355.865 321.282 355.492 321.22 355.306C321.158 355.119 321.096 354.933 321.096 354.871C321.096 354.747 321.096 354.747 321.096 354.871C321.033 355.119 320.971 355.492 320.785 355.989C320.474 356.984 319.976 358.289 319.478 359.283L322.838 360.774C323.335 359.656 323.895 358.289 324.269 357.108C324.455 356.549 324.642 355.927 324.704 355.43C324.766 355.182 324.766 354.871 324.766 354.56C324.766 354.374 324.704 353.442 323.771 352.882L321.905 356.114ZM321.531 355.865C321.593 355.927 321.593 355.927 321.656 355.927C321.656 355.927 321.656 355.927 322.9 354.56C324.144 353.193 324.144 353.193 324.144 353.193C324.144 353.193 324.144 353.193 324.082 353.131C324.02 353.131 324.02 353.069 323.958 353.007C323.833 352.945 323.709 352.82 323.522 352.758L321.531 355.865ZM323.895 355.492C324.02 355.306 324.082 355.119 324.144 354.933L320.722 353.566C320.722 353.566 320.722 353.628 320.66 353.69L323.895 355.492ZM320.1 361.147C320.66 360.339 321.469 359.158 322.216 358.102C322.9 357.046 323.647 355.989 323.895 355.492L320.66 353.752C320.474 354.063 319.914 354.933 319.167 355.989C318.42 357.046 317.612 358.226 317.052 359.034L320.1 361.147ZM316.181 362.328C316.367 362.7 316.741 363.011 317.301 363.135C317.736 363.26 318.172 363.198 318.358 363.135C318.731 363.011 318.98 362.825 319.043 362.763C319.167 362.638 319.291 362.514 319.354 362.452C319.478 362.328 319.54 362.203 319.603 362.079C319.789 361.83 319.976 361.458 320.225 361.023L317.052 359.158C316.803 359.531 316.616 359.842 316.492 360.028C316.43 360.153 316.429 360.153 316.429 360.153C316.429 360.153 316.43 360.153 316.492 360.091C316.492 360.091 316.554 360.028 316.616 359.966C316.678 359.966 316.865 359.718 317.238 359.593C317.425 359.531 317.86 359.469 318.296 359.593C318.794 359.718 319.167 360.091 319.354 360.401L316.181 362.328ZM317.425 357.108C316.865 358.102 316.492 359.034 316.305 359.718C316.181 360.091 316.118 360.401 316.056 360.65C316.056 360.774 315.994 360.898 315.994 361.023C315.994 361.085 315.994 361.209 315.994 361.271C315.994 361.333 315.994 361.458 315.994 361.582C315.994 361.644 316.056 361.955 316.243 362.328L319.416 360.401C319.603 360.712 319.665 361.085 319.665 361.147C319.665 361.271 319.665 361.333 319.665 361.395C319.665 361.458 319.665 361.52 319.665 361.52C319.665 361.52 319.665 361.52 319.665 361.458C319.665 361.333 319.727 361.147 319.851 360.898C320.038 360.401 320.287 359.656 320.722 358.91L317.425 357.108ZM318.794 353.69C318.607 354.374 317.985 355.989 317.363 357.17L320.722 358.786C321.282 357.543 322.153 355.679 322.402 354.56L318.794 353.69ZM301.684 360.526C314.687 360.526 320.785 356.424 321.78 355.554L319.354 352.758C319.354 352.758 319.291 352.82 319.043 352.945C318.856 353.069 318.607 353.255 318.234 353.442C317.487 353.814 316.43 354.312 314.999 354.809C312.137 355.803 307.781 356.735 301.622 356.735L301.684 360.526ZM281.215 356.549C282.584 357.419 288.992 360.526 301.684 360.526V356.859C289.614 356.859 283.89 353.877 283.206 353.442L281.215 356.549ZM285.321 357.108C284.824 356.238 284.264 355.057 283.89 354.249L280.469 355.679C280.904 356.673 281.526 357.978 282.086 358.91L285.321 357.108ZM286.69 362.328C286.939 361.955 287.001 361.644 287.001 361.52C287.001 361.395 287.001 361.271 287.001 361.209C287.001 361.085 287.001 360.96 287.001 360.898C287.001 360.774 286.939 360.65 286.939 360.526C286.877 360.277 286.752 359.966 286.628 359.593C286.379 358.91 285.944 357.978 285.321 356.984L282.211 358.972C282.708 359.718 283.019 360.401 283.206 360.898C283.33 361.147 283.33 361.333 283.393 361.458C283.393 361.52 283.393 361.52 283.393 361.458C283.393 361.458 283.393 361.395 283.393 361.271C283.393 361.209 283.393 361.147 283.393 360.96C283.393 360.898 283.455 360.526 283.704 360.215L286.69 362.328ZM282.646 361.085C282.957 361.52 283.206 361.83 283.393 362.079C283.455 362.203 283.579 362.328 283.704 362.452C283.766 362.514 283.89 362.638 284.015 362.763C284.077 362.825 284.326 362.949 284.637 363.073C284.824 363.135 285.135 363.197 285.57 363.073C286.006 362.949 286.379 362.7 286.628 362.328L283.579 360.215C283.828 359.842 284.202 359.593 284.637 359.469C285.01 359.345 285.384 359.407 285.57 359.469C285.881 359.531 286.13 359.718 286.192 359.78C286.255 359.842 286.317 359.904 286.379 359.904L286.441 359.966C286.441 359.966 286.441 359.966 286.379 359.842C286.255 359.656 286.006 359.345 285.757 358.972L282.646 361.085ZM278.353 355.741C278.664 356.238 279.473 357.232 280.282 358.226C281.153 359.283 282.086 360.401 282.708 361.209L285.57 358.848C284.948 358.04 284.015 356.921 283.144 355.927C282.273 354.871 281.588 354.001 281.464 353.752L278.353 355.741ZM277.855 354.622C277.98 354.995 278.104 355.368 278.353 355.741L281.464 353.752C281.402 353.628 281.402 353.628 281.402 353.69L277.855 354.622ZM279.1 354.622C280.531 355.741 280.531 355.741 280.531 355.741C280.531 355.741 280.531 355.741 280.531 355.679C280.593 355.617 280.655 355.554 280.78 355.492L278.54 352.572C278.291 352.758 278.042 352.945 277.918 353.131C277.855 353.193 277.793 353.255 277.731 353.317L277.669 353.38C277.669 353.504 277.669 353.504 279.1 354.622ZM283.393 359.096C282.708 358.102 281.962 356.921 281.464 355.927C281.215 355.43 281.028 355.057 280.904 354.809C280.842 354.684 280.904 354.684 280.904 354.747C280.904 354.809 280.904 354.933 280.904 355.182C280.842 355.43 280.717 355.741 280.344 356.114L277.918 353.317C277.109 354.001 277.233 354.933 277.233 355.119C277.296 355.492 277.358 355.803 277.42 356.051C277.607 356.549 277.855 357.108 278.167 357.729C278.789 358.848 279.598 360.215 280.344 361.271L283.393 359.096ZM285.259 365.745C285.632 365.435 285.757 365.062 285.819 364.875C285.881 364.689 285.881 364.502 285.881 364.44C285.881 364.254 285.881 364.067 285.881 364.005C285.881 363.819 285.819 363.632 285.757 363.446C285.695 363.135 285.508 362.7 285.321 362.265C284.948 361.333 284.264 360.153 283.268 358.91L280.344 361.209C281.153 362.203 281.651 363.135 281.9 363.757C282.024 364.067 282.148 364.316 282.148 364.44C282.148 364.502 282.148 364.502 282.148 364.44C282.148 364.44 282.148 364.316 282.148 364.192C282.148 364.13 282.148 363.943 282.211 363.819C282.273 363.695 282.397 363.322 282.771 363.011L285.259 365.745ZM281.028 363.943C281.464 364.502 281.9 364.937 282.211 365.248C282.335 365.372 282.522 365.559 282.646 365.683C282.708 365.745 282.833 365.869 283.019 365.932C283.082 365.994 283.268 366.056 283.579 366.118C283.828 366.18 284.575 366.304 285.259 365.683L282.833 362.887C283.517 362.328 284.264 362.452 284.45 362.452C284.699 362.514 284.886 362.638 284.948 362.638C285.01 362.7 285.073 362.7 285.073 362.7H285.135C285.135 362.7 285.135 362.7 285.073 362.638C285.01 362.576 285.01 362.576 284.948 362.514C284.699 362.265 284.326 361.893 283.89 361.333L281.028 363.943ZM273.998 356.859C274.496 357.481 275.802 358.786 277.109 360.153C278.478 361.52 280.033 363.073 281.153 364.067L283.704 361.395C282.646 360.339 281.091 358.848 279.722 357.481C278.291 356.051 277.171 354.933 276.86 354.498L273.998 356.859ZM275.18 354.063C274.06 352.634 274.06 352.634 274.06 352.634C274.06 352.634 273.998 352.634 273.998 352.696C273.936 352.696 273.936 352.758 273.874 352.82C273.811 352.882 273.687 353.007 273.625 353.131C273.438 353.379 273.251 353.752 273.189 354.187C273.065 355.119 273.376 356.051 274.06 356.859L276.984 354.56C276.736 354.249 276.922 354.374 276.86 354.747C276.86 354.933 276.736 355.119 276.673 355.244C276.611 355.306 276.611 355.368 276.549 355.43L276.487 355.492C276.487 355.492 276.487 355.492 276.424 355.554C276.3 355.554 276.3 355.554 275.18 354.063ZM275.74 350.77L273.811 352.82L276.487 355.368L278.415 353.317L275.74 350.77ZM273.127 348.408C271.323 348.905 271.323 348.905 271.323 348.905V348.968C271.323 349.03 271.385 349.092 271.385 349.092C271.447 349.216 271.509 349.34 271.572 349.465C271.758 349.775 271.945 350.148 272.318 350.583C273.065 351.453 274.247 352.51 276.176 353.566L277.918 350.335C276.362 349.465 275.553 348.719 275.18 348.222C274.994 347.973 274.869 347.849 274.869 347.787C274.869 347.787 274.869 347.787 274.869 347.849C274.931 347.911 274.931 347.973 273.127 348.408ZM270.327 339.398C269.27 337.907 269.27 337.907 269.27 337.907L269.207 337.969C269.145 338.031 269.083 338.093 268.959 338.155C268.772 338.342 268.461 338.59 268.212 338.901C267.652 339.522 266.968 340.517 266.594 341.759C266.221 343.064 266.408 344.618 267.403 346.109C268.336 347.538 270.016 348.843 272.443 350.024L274.06 346.668C271.945 345.612 270.949 344.742 270.514 344.059C270.141 343.437 270.141 343.002 270.203 342.629C270.327 342.194 270.638 341.697 270.949 341.324C271.136 341.138 271.261 341.014 271.385 340.89C271.447 340.827 271.509 340.827 271.509 340.765C271.385 340.89 271.385 340.89 270.327 339.398ZM273.5 344.929C274.558 343.375 274.558 343.375 274.558 343.375C274.558 343.375 274.558 343.375 274.496 343.375C274.434 343.375 274.371 343.313 274.309 343.189C274.122 343.002 273.874 342.754 273.563 342.443C273.003 341.759 272.38 340.641 272.132 339.15L268.461 339.709C268.772 342.008 269.767 343.686 270.638 344.742C271.074 345.301 271.509 345.736 271.82 345.985C272.007 346.109 272.132 346.233 272.194 346.296C272.256 346.358 272.318 346.358 272.318 346.42C272.318 346.42 272.38 346.42 272.38 346.482C272.443 346.482 272.443 346.482 273.5 344.929ZM270.701 338.404L271.696 345.239L275.367 344.68L274.371 337.845L270.701 338.404ZM275.553 348.222C276.922 349.465 276.922 349.465 276.922 349.465L276.984 349.403C277.047 349.34 277.109 349.278 277.171 349.154C277.358 348.905 277.544 348.595 277.793 348.222C278.229 347.476 278.789 346.358 278.975 344.991C279.162 343.624 279.038 342.07 278.104 340.517C277.171 338.963 275.616 337.658 273.251 336.54L271.696 339.895C273.563 340.765 274.496 341.697 274.931 342.381C275.367 343.064 275.429 343.748 275.305 344.431C275.18 345.115 274.931 345.799 274.62 346.296C274.496 346.544 274.309 346.731 274.247 346.855C274.185 346.917 274.185 346.979 274.122 346.979C274.185 346.979 274.185 346.979 275.553 348.222ZM279.411 348.533C278.789 348.284 278.229 348.036 277.793 347.787C277.358 347.476 277.171 347.29 277.109 347.228L273.998 349.154C274.496 349.962 275.242 350.521 275.865 350.894C276.549 351.329 277.358 351.702 278.042 351.95L279.411 348.533ZM277.855 348.533L277.42 349.03L280.095 351.577L280.531 351.08L277.855 348.533ZM277.42 349.278L280.966 350.335V350.273L277.42 349.278ZM277.482 349.154C277.482 349.216 277.482 349.216 277.482 349.216L281.028 350.273V350.21L277.482 349.154ZM276.3 348.719L277.731 350.77L280.78 348.657L279.349 346.606L276.3 348.719ZM275.865 347.476C275.927 347.911 276.051 348.284 276.3 348.657L279.349 346.606C279.473 346.731 279.535 346.917 279.535 347.103L275.865 347.476ZM275.989 346.233C275.802 346.606 275.802 347.041 275.802 347.476L279.473 347.041C279.473 347.228 279.473 347.414 279.411 347.538L275.989 346.233ZM276.798 345.177C276.487 345.488 276.176 345.799 276.051 346.233L279.473 347.538C279.411 347.725 279.286 347.849 279.162 347.973L276.798 345.177ZM277.98 344.68C277.544 344.742 277.109 344.929 276.798 345.239L279.162 348.098C279.038 348.222 278.851 348.284 278.664 348.346L277.98 344.68ZM280.344 344.245L277.918 344.68L278.54 348.346L280.966 347.911L280.344 344.245ZM279.349 344.618C279.224 344.804 279.162 344.991 279.038 345.239L282.335 346.855C282.397 346.668 282.522 346.544 282.584 346.358L279.349 344.618ZM278.291 343.934L279.286 346.233L282.646 344.742L281.651 342.443L278.291 343.934ZM278.042 342.692C277.98 343.127 278.104 343.561 278.229 343.934L281.651 342.443C281.713 342.629 281.775 342.754 281.713 342.94L278.042 342.692ZM278.478 341.449C278.229 341.822 278.104 342.194 278.104 342.629L281.775 342.94C281.775 343.127 281.713 343.313 281.588 343.437L278.478 341.449ZM279.411 340.579C279.038 340.765 278.664 341.076 278.478 341.449L281.588 343.437C281.464 343.624 281.34 343.748 281.153 343.81L279.411 340.579ZM280.655 340.268C280.22 340.268 279.784 340.33 279.411 340.579L281.153 343.81C280.966 343.872 280.78 343.934 280.593 343.934L280.655 340.268ZM280.842 340.268H280.717L280.593 343.934H280.717L280.842 340.268ZM273.563 334.551C273.376 335.546 273.687 336.54 273.998 337.285C274.371 338.093 274.869 338.963 275.429 339.771C276.549 341.324 278.229 343.064 279.971 343.81L281.402 340.392C280.531 340.02 279.349 338.963 278.415 337.596C277.918 336.975 277.607 336.291 277.358 335.794C277.109 335.173 277.171 335.048 277.109 335.235L273.563 334.551ZM281.588 332.563C279.349 332.19 277.669 332.066 276.487 332.19C275.865 332.252 275.242 332.439 274.62 332.811C273.998 333.246 273.625 333.93 273.5 334.551L277.109 335.235C277.047 335.421 276.922 335.67 276.736 335.794C276.611 335.918 276.549 335.856 276.86 335.794C277.482 335.732 278.726 335.794 280.966 336.167L281.588 332.563ZM281.153 334.303C280.344 335.981 280.344 335.981 280.344 335.981C280.344 335.981 280.406 335.98 280.469 336.043L282.148 332.749C282.086 332.749 282.024 332.687 282.024 332.687C282.024 332.687 282.024 332.687 281.962 332.687C281.962 332.687 281.962 332.687 281.153 334.303ZM284.824 332.998C283.766 332.874 282.708 332.687 281.464 332.501L280.78 336.105C282.024 336.353 283.206 336.54 284.326 336.664L284.824 332.998ZM282.957 333.433L282.771 334.613L286.441 335.111L286.628 333.93L282.957 333.433ZM285.197 331.879C285.135 331.879 285.01 331.879 284.948 331.879L284.637 335.546C284.699 335.546 284.824 335.546 284.886 335.546L285.197 331.879ZM283.766 327.902C283.828 329.332 283.33 332.439 283.144 333.433L286.815 334.054C286.939 333.184 287.499 329.704 287.437 327.778L283.766 327.902ZM283.828 324.609C283.766 325.479 283.766 326.411 283.828 327.902L287.499 327.778C287.437 326.473 287.499 325.603 287.499 324.795L283.828 324.609ZM283.828 322.931C283.828 323.553 283.828 324.05 283.766 324.609L287.437 324.733C287.437 324.174 287.499 323.615 287.499 322.931H283.828ZM288.868 320.321C288.059 319.7 286.752 319.265 285.508 319.886C284.264 320.508 283.89 321.875 283.89 322.931H287.561C287.561 322.745 287.561 322.745 287.561 322.807C287.499 322.869 287.375 323.056 287.188 323.18C286.939 323.304 286.752 323.304 286.69 323.242C286.628 323.242 286.628 323.18 286.752 323.304L288.868 320.321ZM292.352 321.44C291.605 321.564 290.299 321.378 288.868 320.321L286.69 323.304C288.806 324.858 291.108 325.355 292.974 325.044L292.352 321.44ZM295.276 319.265C294.281 320.694 293.036 321.316 292.352 321.44L292.974 325.106C294.84 324.795 296.831 323.491 298.325 321.378L295.276 319.265ZM300.875 320.011C300.502 319.016 299.693 318.022 298.449 317.836C297.142 317.587 295.96 318.271 295.276 319.265L298.325 321.378C298.387 321.316 298.325 321.378 298.262 321.44C298.138 321.502 297.951 321.564 297.765 321.502C297.391 321.44 297.329 321.191 297.391 321.316L300.875 320.011ZM301.373 321.564C301.249 321.129 301.062 320.632 300.875 320.011L297.391 321.253C297.578 321.813 297.702 322.248 297.827 322.621L301.373 321.564Z" fill="white"/>
<path d="M275.368 334.924C274.994 336.726 278.914 342.132 281.651 342.381C287.438 342.878 295.09 337.534 295.09 337.534C295.09 337.534 287.5 335.546 284.7 335.049C277.421 333.557 275.616 333.744 275.368 334.924Z" fill="#FF7A00"/>
<path d="M312.821 328.524C313.755 330.077 311.888 336.478 309.4 337.658C304.173 340.082 295.09 337.534 295.09 337.534C295.09 337.534 301.623 333.122 304.049 331.693C310.457 327.902 312.199 327.468 312.821 328.524Z" fill="#FF7A00"/>
<path d="M322.528 353.317L321.843 351.95C321.843 351.888 321.843 351.826 321.843 351.826C321.843 350.273 320.226 348.843 317.55 347.725V348.657C317.301 348.533 316.99 348.471 316.742 348.346V347.911C312.884 346.544 307.098 345.612 300.69 345.612C295.09 345.612 289.989 346.296 286.193 347.414V348.968V347.104C282.336 348.346 279.91 350.024 279.91 351.95C279.91 352.261 279.972 352.572 280.096 352.82L279.723 353.504C279.723 353.504 279.412 353.939 279.972 354.747C280.469 355.492 282.896 358.475 284.202 360.028C284.762 360.836 285.136 361.333 285.198 361.271C285.26 361.209 284.825 359.718 283.767 357.978C283.269 357.046 282.647 355.865 282.274 354.933C283.331 355.617 289.366 358.661 301.747 358.599C314.377 358.599 320.039 354.622 320.661 354.063C320.474 354.933 319.728 356.673 319.106 357.916C318.11 359.656 317.799 361.209 317.861 361.271C317.861 361.333 318.235 360.836 318.732 359.966C319.852 358.351 322.03 355.306 322.403 354.498C322.777 353.752 322.528 353.317 322.528 353.317Z" fill="#F5811E"/>
<path d="M326.322 353.318L321.967 350.148C321.904 350.024 321.904 349.838 321.842 349.713L323.273 347.663C323.335 347.539 323.398 347.414 323.398 347.29C323.398 347.166 323.398 347.041 323.335 346.917C323.273 346.793 323.211 346.731 323.149 346.606C323.024 346.544 322.962 346.482 322.838 346.482L320.411 346.047C320.287 345.861 320.224 345.674 320.1 345.488L321.096 343.189C321.158 343.065 321.158 342.94 321.158 342.816C321.158 342.692 321.096 342.567 321.033 342.443C320.971 342.319 320.847 342.257 320.784 342.195C320.66 342.132 320.536 342.132 320.411 342.132L317.985 342.195C317.86 342.008 317.736 341.884 317.611 341.697L318.171 339.212C318.171 339.088 318.171 338.963 318.171 338.839C318.109 338.715 318.047 338.591 317.985 338.528C317.922 338.466 317.798 338.404 317.674 338.342C317.549 338.28 317.425 338.28 317.3 338.342L314.936 338.901C314.812 338.777 314.625 338.653 314.438 338.528L314.501 335.981C314.501 335.856 314.501 335.732 314.438 335.608C314.376 335.484 314.314 335.421 314.19 335.297C314.065 335.235 314.003 335.173 313.878 335.173C313.754 335.173 313.63 335.173 313.505 335.235L311.265 336.291C311.079 336.167 310.892 336.105 310.705 335.981L310.332 333.495C310.332 333.371 310.27 333.247 310.208 333.184C310.145 333.06 310.021 332.998 309.897 332.936C309.772 332.874 309.648 332.874 309.523 332.874C309.399 332.874 309.274 332.936 309.212 332.998L307.221 334.489C307.035 334.427 306.848 334.365 306.661 334.303L305.79 331.942C305.728 331.817 305.666 331.693 305.604 331.631C305.541 331.569 305.417 331.507 305.293 331.445C305.168 331.445 305.044 331.445 304.919 331.445C304.795 331.507 304.67 331.569 304.608 331.631L302.928 333.495C302.742 333.495 302.555 333.433 302.306 333.433L301 331.258C300.937 331.134 300.875 331.072 300.751 331.01C300.626 330.947 300.502 330.885 300.378 330.885C300.253 330.885 300.129 330.947 300.004 331.01C299.88 331.072 299.818 331.134 299.755 331.258L298.449 333.433C298.262 333.433 298.076 333.495 297.827 333.495L296.147 331.631C296.085 331.569 295.96 331.445 295.836 331.445C295.711 331.382 295.587 331.382 295.462 331.445C295.338 331.445 295.214 331.507 295.151 331.631C295.089 331.693 294.965 331.817 294.965 331.942L294.094 334.303C293.907 334.365 293.72 334.427 293.534 334.489L291.543 332.998C291.418 332.936 291.356 332.874 291.232 332.874C291.107 332.874 290.983 332.874 290.858 332.936C290.734 332.998 290.672 333.06 290.547 333.184C290.485 333.309 290.423 333.371 290.423 333.495L290.05 335.981C289.863 336.105 289.676 336.167 289.49 336.291L287.25 335.235C287.125 335.173 287.001 335.173 286.877 335.173C286.752 335.173 286.628 335.235 286.566 335.297C286.441 335.359 286.379 335.484 286.317 335.608C286.254 335.732 286.254 335.856 286.254 335.981L286.317 338.528C286.13 338.653 286.006 338.777 285.819 338.901L283.455 338.342C283.33 338.342 283.206 338.342 283.081 338.342C282.957 338.404 282.833 338.466 282.77 338.528C282.708 338.591 282.646 338.715 282.584 338.839C282.521 338.963 282.521 339.088 282.584 339.212L283.144 341.697C283.019 341.884 282.895 342.008 282.77 342.195L280.344 342.132C280.219 342.132 280.095 342.132 279.971 342.195C279.846 342.257 279.784 342.319 279.722 342.443C279.66 342.567 279.597 342.692 279.597 342.816C279.597 342.94 279.597 343.065 279.66 343.189L280.655 345.488C280.531 345.674 280.468 345.861 280.344 346.047L277.917 346.482C277.793 346.482 277.669 346.544 277.606 346.606C277.482 346.669 277.42 346.793 277.42 346.917C277.358 347.041 277.358 347.166 277.358 347.29C277.358 347.414 277.42 347.539 277.482 347.663L278.913 349.713C278.913 349.776 278.913 349.776 278.851 349.838L274.807 354.125C274.807 354.125 274.185 354.622 275.118 355.741C275.927 356.735 279.971 360.712 282.086 362.763C283.019 363.819 283.641 364.44 283.704 364.44C283.828 364.378 283.268 362.452 281.464 360.153C280.095 358.164 278.291 355.057 278.726 354.685C278.726 354.685 279.224 354.063 280.157 353.628C280.095 353.628 280.219 353.628 280.157 353.628C280.157 353.628 300.315 362.949 318.98 353.815C321.096 353.442 322.402 354.56 322.402 354.56C322.838 354.809 321.718 358.04 320.722 360.153C319.416 362.576 319.229 364.44 319.353 364.503C319.416 364.565 319.913 363.819 320.536 362.701C322.215 360.401 325.326 355.99 325.886 354.933C327.006 353.628 326.322 353.318 326.322 353.318Z" fill="#F5811E"/>
<path d="M317.55 352.137C317.55 352.137 320.475 352.013 324.27 348.16L324.83 346.979C324.83 346.979 318.919 341.076 328.127 337.037C328.127 337.037 327.318 338.342 327.567 343.437C327.567 343.437 330.367 342.505 331.176 337.969C331.176 337.969 335.22 343.313 326.758 348.284C326.758 348.284 322.776 354.622 317.239 354.001L317.55 352.137Z" fill="#F5811E"/>
<path d="M304.361 348.471C304.361 348.471 306.352 346.296 308.405 348.471C308.405 348.471 309.96 351.391 308.405 352.882C308.405 352.882 305.792 354.933 304.361 352.882C304.361 352.882 302.681 351.267 304.361 348.471Z" fill="#CD2F55"/>
<path d="M306.724 349.278C306.724 350.148 306.226 350.832 305.604 350.832C304.982 350.832 304.484 350.148 304.484 349.278C304.484 348.408 304.982 347.725 305.604 347.725C306.226 347.725 306.724 348.408 306.724 349.278Z" fill="white"/>
<path d="M295.4 347.849C295.4 347.849 298.884 346.296 299.818 349.713C299.818 349.713 300.813 353.69 296.956 353.939C296.956 353.939 292.103 353.007 295.4 347.849Z" fill="#CD2F55"/>
<path d="M297.143 349.34C297.143 350.21 296.645 350.956 295.96 350.956C295.338 350.956 294.778 350.21 294.778 349.34C294.778 348.471 295.276 347.725 295.96 347.725C296.583 347.725 297.143 348.471 297.143 349.34Z" fill="white"/>
<path d="M299.818 355.368L304.236 354.995C304.236 354.995 304.111 355.679 303.489 356.238C303.489 356.238 301.996 357.916 300.254 356.114C300.067 355.865 299.943 355.617 299.818 355.368Z" fill="#CD2F55"/>
<path d="M282.149 351.267C282.087 351.267 282.087 351.267 282.025 351.267C280.594 350.956 276.55 349.9 275.492 348.222C275.492 348.222 280.905 342.07 272.443 338.155L273.439 344.991C273.439 344.991 270.826 343.251 270.266 339.46C270.266 339.46 263.92 344.059 273.065 348.471C273.065 348.471 273.874 351.577 281.838 354.063C281.9 354.063 282.025 354.063 282.087 354.063C282.833 354.063 283.456 353.442 283.456 352.696C283.518 351.888 282.958 351.267 282.149 351.267Z" fill="#FF5713"/>
<path d="M300.814 325.231C299.757 322.931 299.757 322.434 299.135 320.632C298.699 319.514 297.579 319.203 296.832 320.259C295.588 322.061 293.971 322.994 292.664 323.242C291.357 323.491 289.553 323.118 287.749 321.813C286.691 321.005 285.696 321.44 285.696 322.931C285.696 324.609 285.571 325.541 285.634 327.84C285.696 329.767 284.949 333.992 284.949 333.992L294.531 334.241L303.49 330.823C303.49 330.823 301.561 326.846 300.814 325.231Z" fill="#FFA812"/>
<path d="M303.612 330.45C298.448 332.749 294.404 333.433 294.404 333.433C294.404 333.433 290.36 334.116 284.761 333.681L284.574 335.111L294.778 335.67L304.235 331.755L303.612 330.45Z" fill="#CD2F55"/>
<path d="M294.654 334.986C294.654 334.986 290.05 335.918 281.153 334.303C281.153 334.303 284.762 336.105 286.815 337.845C290.672 341.2 300.565 339.522 303.053 335.048C304.36 332.749 307.16 329.829 307.16 329.829C299.32 334.365 294.654 334.986 294.654 334.986Z" fill="#FFA812"/>
<path d="M302.556 295.839C311.73 295.839 319.168 288.41 319.168 279.247C319.168 270.084 311.73 262.656 302.556 262.656C293.382 262.656 285.944 270.084 285.944 279.247C285.944 288.41 293.382 295.839 302.556 295.839Z" fill="white"/>
<path d="M299.258 288.32L292.726 279.62L299.196 271.169L297.952 269.429L290.61 278.999V280.242L297.952 290.06L299.258 288.32Z" fill="#009D7E"/>
<path d="M301.561 267.379H299.072L308.156 279.745L299.321 291.737H301.872L310.707 279.745L301.561 267.379Z" fill="#009D7E"/>
<path d="M306.414 267.379H303.863L313.071 279.62L303.863 291.737H306.414L315.124 280.242V278.999L306.414 267.379Z" fill="#009D7E"/>
<path d="M306.101 145.027H316.242C320.349 145.027 323.646 148.32 323.646 152.421V172.741C323.646 176.842 320.349 180.135 316.242 180.135H306.101C301.995 180.135 298.697 176.842 298.697 172.741V152.421C298.697 148.382 301.995 145.027 306.101 145.027Z" fill="#E0EDFF" stroke="#FF6632" stroke-width="1.5" stroke-linejoin="round"/>
<path d="M312.572 137.694H319.042C323.148 137.694 326.446 140.987 326.446 145.089V180.197C326.446 184.299 323.148 187.592 319.042 187.592H312.572C308.465 187.592 305.168 184.299 305.168 180.197V145.089C305.168 140.987 308.465 137.694 312.572 137.694Z" fill="#E0EDFF" stroke="#FF6632" stroke-width="1.5" stroke-linejoin="round"/>
<path d="M426.304 145.027H416.162C412.056 145.027 408.759 148.32 408.759 152.421V172.741C408.759 176.842 412.056 180.135 416.162 180.135H426.304C430.41 180.135 433.707 176.842 433.707 172.741V152.421C433.707 148.382 430.41 145.027 426.304 145.027Z" fill="#E0EDFF" stroke="#FF6632" stroke-width="1.5" stroke-linejoin="round"/>
<path d="M419.834 137.694H413.364C409.257 137.694 405.96 140.987 405.96 145.089V180.197C405.96 184.299 409.257 187.592 413.364 187.592H419.834C423.94 187.592 427.238 184.299 427.238 180.197V145.089C427.238 140.987 423.94 137.694 419.834 137.694Z" fill="#E0EDFF" stroke="#FF6632" stroke-width="1.5" stroke-linejoin="round"/>
<path d="M76.0887 147.512L194.113 85.1864L70.5514 91.9596L60.8457 92.5188L76.0887 147.512Z" fill="#FFE9CB" stroke="#FBAD41" stroke-width="1.5" stroke-linejoin="round"/>
<path d="M71.6088 91.8975L60.7832 92.5189L76.1506 147.823L85.6075 142.417L71.6088 91.8975Z" fill="#FBAD41" stroke="#FF6633" stroke-width="1.5" stroke-linejoin="round"/>
<path d="M118.086 112.528L118.024 111.782C117.961 110.912 117.588 110.229 117.028 109.856C116.468 109.483 115.784 109.421 115.099 109.669L101.536 114.578C101.412 114.578 101.35 114.578 101.287 114.516C101.225 114.454 101.163 114.392 101.163 114.268C101.163 114.143 101.225 113.957 101.412 113.895L114.975 108.613C116.593 107.929 117.837 106.003 117.837 104.201V101.902C117.837 101.84 117.837 101.778 117.775 101.715C117.775 101.653 117.775 101.653 117.712 101.653C115.348 98.1114 110.744 96.4958 106.514 98.0493C102.594 99.4785 100.23 103.207 100.292 107.122C99.2965 106.873 98.2388 106.935 97.1811 107.432C95.3769 108.302 94.4436 110.353 94.9414 112.279C95.0658 112.776 95.2524 113.211 95.5635 113.584C92.5149 114.827 91.0217 118.182 92.1416 121.227C92.2661 121.476 92.3905 121.786 92.5149 122.035C92.5771 122.159 92.7016 122.221 92.8882 122.159L117.837 112.838C118.024 112.838 118.148 112.652 118.086 112.528Z" fill="#FF7800"/>
<path d="M119.206 101.032C119.081 101.094 118.957 101.156 118.832 101.156C118.832 101.156 118.77 101.156 118.77 101.218C118.708 101.28 118.708 101.343 118.708 101.405L118.895 103.517C118.957 104.45 119.33 105.133 119.952 105.568C120.512 105.941 121.197 106.003 121.943 105.817L124.93 104.885C124.992 104.885 125.116 104.885 125.178 104.947C125.241 105.009 125.303 105.071 125.303 105.195C125.303 105.382 125.241 105.506 125.054 105.568L122.068 106.873C120.45 107.557 119.206 109.607 119.206 111.471V112.155C119.206 112.279 119.33 112.341 119.455 112.341L129.845 108.426C129.969 108.364 130.031 108.24 130.031 108.116C129.969 107.37 129.782 106.624 129.534 105.941C127.916 101.653 123.312 99.4784 119.206 101.032Z" fill="#FFA90E"/>
<path fill-rule="evenodd" clip-rule="evenodd" d="M409.195 260.419C409.381 255.945 412.057 252.155 415.914 250.29C417.096 246.562 420.394 243.766 424.375 243.393C424.749 243.331 425.184 243.331 425.558 243.331C428.42 239.665 432.899 237.241 437.939 237.241C444.098 237.241 449.449 240.783 451.999 246.003C458.408 247.183 463.323 252.838 463.323 259.611C463.323 260.916 463.136 262.159 462.825 263.34C462.701 263.713 462.576 264.023 462.452 264.334V272.847C462.452 275.768 460.025 278.191 457.101 278.191H372.363C367.448 278.191 363.466 274.214 363.466 269.305C363.466 264.396 367.448 260.419 372.363 260.419H409.195ZM453.99 257.312C453.99 257.25 453.99 257.25 453.99 257.188C453.99 257.188 453.99 257.25 453.99 257.312ZM426.553 256.939C426.553 256.939 426.553 256.939 426.491 256.939C426.429 256.939 426.429 257.002 426.366 257.002C426.429 257.002 426.429 256.939 426.553 256.939Z" fill="#FFE7CA"/>
<mask id="mask2_580_4845" style="mask-type:alpha" maskUnits="userSpaceOnUse" x="362" y="237" width="101" height="42">
<path fill-rule="evenodd" clip-rule="evenodd" d="M408.687 260.865C408.874 256.38 411.549 252.58 415.406 250.712C416.588 246.974 419.886 244.171 423.868 243.797C424.241 243.735 424.676 243.735 425.05 243.735C427.912 240.059 432.391 237.63 437.431 237.63C443.59 237.63 448.941 241.181 451.492 246.413C457.9 247.597 462.815 253.266 462.815 260.056C462.815 261.364 462.628 262.61 462.317 263.793C462.193 264.167 462.068 264.478 461.944 264.79V273.324C461.944 276.252 459.518 278.681 456.593 278.681H371.855C366.94 278.681 362.958 274.694 362.958 269.773C362.958 264.852 366.94 260.865 371.855 260.865H408.687ZM453.483 257.751C453.483 257.688 453.483 257.688 453.483 257.626C453.483 257.626 453.483 257.688 453.483 257.751ZM426.045 257.377C426.045 257.377 426.045 257.377 425.983 257.377C425.921 257.377 425.921 257.439 425.859 257.439C425.921 257.439 425.921 257.377 426.045 257.377Z" fill="#FFE7CA"/>
</mask>
<g mask="url(#mask2_580_4845)">
<path d="M429.663 211.792L447.208 221.634L405.959 290.841L388.414 280.999L429.663 211.792Z" fill="white"/>
<path d="M452.188 224.437L459.716 228.673L418.467 297.88L410.938 293.645L452.188 224.437Z" fill="white"/>
<path d="M412.679 223.44L416.163 225.371L374.914 294.579L371.43 292.648L412.679 223.44Z" fill="white"/>
</g>
<path d="M379.145 265.328H381.073V270.548H384.433V272.226H379.145V265.328Z" fill="#404041"/>
<path d="M386.425 268.808C386.425 266.819 388.042 265.204 390.158 265.204C392.273 265.204 393.891 266.819 393.891 268.746C393.891 270.734 392.273 272.35 390.158 272.35C388.042 272.35 386.425 270.796 386.425 268.808ZM391.9 268.808C391.9 267.814 391.215 266.944 390.096 266.944C389.038 266.944 388.354 267.814 388.354 268.808C388.354 269.802 389.038 270.672 390.096 270.672C391.215 270.672 391.9 269.802 391.9 268.808Z" fill="#404041"/>
<path d="M396.191 269.243V265.328H398.12V269.181C398.12 270.175 398.618 270.672 399.364 270.672C400.111 270.672 400.609 270.237 400.609 269.243V265.328H402.537V269.181C402.537 271.418 401.293 272.412 399.302 272.412C397.436 272.35 396.191 271.418 396.191 269.243Z" fill="#404041"/>
<path d="M405.586 265.328H408.261C410.75 265.328 412.181 266.757 412.181 268.746C412.181 270.734 410.75 272.226 408.261 272.226H405.648V265.328H405.586ZM408.261 270.548C409.381 270.548 410.19 269.926 410.19 268.808C410.19 267.689 409.443 267.068 408.261 267.068H407.515V270.548H408.261Z" fill="#404041"/>
<path d="M414.92 265.328H420.457V267.006H416.849V268.187H420.146V269.802H416.849V272.288H414.92V265.328Z" fill="#404041"/>
<path d="M423.131 265.328H425.06V270.548H428.419V272.226H423.131V265.328Z" fill="#404041"/>
<path d="M433.397 265.266H435.263L438.187 272.226H436.134L435.637 270.983H432.961L432.464 272.226H430.473L433.397 265.266ZM435.077 269.554L434.33 267.627L433.583 269.554H435.077Z" fill="#404041"/>
<path d="M440.678 265.328H443.913C444.971 265.328 445.717 265.577 446.153 266.074C446.588 266.447 446.775 267.006 446.775 267.689C446.775 268.746 446.215 269.429 445.344 269.802L447.024 272.226H444.784L443.415 270.113H442.606V272.226H440.678V265.328ZM443.851 268.684C444.473 268.684 444.846 268.373 444.846 267.876C444.846 267.317 444.473 267.068 443.789 267.068H442.544V268.746H443.851V268.684Z" fill="#404041"/>
<path d="M449.574 265.328H455.111V266.944H451.441V268H454.738V269.491H451.441V270.61H455.174V272.226H449.574V265.328Z" fill="#404041"/>
<path d="M374.976 269.616C374.727 270.237 374.167 270.672 373.42 270.672C372.363 270.672 371.678 269.802 371.678 268.808C371.678 267.814 372.363 266.944 373.42 266.944C374.229 266.944 374.789 267.441 375.038 268.062H377.029C376.718 266.385 375.224 265.204 373.358 265.204C371.243 265.204 369.625 266.819 369.625 268.808C369.625 270.796 371.18 272.35 373.358 272.35C375.162 272.35 376.593 271.169 376.967 269.616H374.976Z" fill="#404041"/>
<path d="M452.871 254.33L447.583 251.285L446.649 250.912L424.998 251.036V262.035H452.809V254.33H452.871Z" fill="white"/>
<path d="M443.227 261.041C443.476 260.171 443.414 259.363 442.979 258.741C442.605 258.182 441.921 257.871 441.112 257.809L425.931 257.623C425.807 257.623 425.745 257.561 425.682 257.499C425.62 257.436 425.62 257.312 425.62 257.25C425.682 257.126 425.807 257.001 425.994 257.001L441.299 256.815C443.103 256.753 445.094 255.262 445.778 253.46L446.649 251.16C446.712 251.036 446.712 250.974 446.649 250.85C445.654 246.376 441.672 243.082 436.944 243.082C432.526 243.082 428.855 245.941 427.487 249.855C426.616 249.234 425.558 248.861 424.314 248.986C422.198 249.172 420.519 250.912 420.332 252.962C420.27 253.522 420.332 254.019 420.456 254.516C417.034 254.64 414.297 257.436 414.297 260.854C414.297 261.165 414.297 261.475 414.359 261.786C414.359 261.91 414.484 262.035 414.67 262.035H442.667C442.854 262.035 442.979 261.91 443.041 261.786L443.227 261.041Z" fill="#FF7800"/>
<path d="M448.08 251.285C447.955 251.285 447.769 251.285 447.644 251.285C447.52 251.285 447.458 251.347 447.395 251.471L446.773 253.522C446.524 254.392 446.587 255.199 447.022 255.821C447.395 256.38 448.08 256.691 448.889 256.753L452.124 256.939C452.248 256.939 452.311 257.001 452.373 257.064C452.435 257.126 452.435 257.25 452.435 257.312C452.373 257.436 452.248 257.561 452.062 257.561L448.702 257.747C446.898 257.809 444.907 259.301 444.222 261.103L443.974 261.724C443.911 261.848 444.036 261.973 444.16 261.973H455.732C455.857 261.973 455.981 261.91 456.044 261.724C456.23 261.041 456.355 260.233 456.355 259.487C456.355 255.013 452.622 251.285 448.08 251.285Z" fill="#FFA90E"/>
<path d="M529.896 375.812H696.759C697.817 375.812 698.688 374.569 698.688 373.016V363.819C698.688 362.265 697.817 361.023 696.759 361.023H529.896C528.838 361.023 527.967 362.265 527.967 363.819V373.016C527.967 374.507 528.838 375.812 529.896 375.812Z" fill="#FFCC89"/>
<path d="M135.504 318.022C135.567 320.259 134.82 322.993 133.576 325.79C132.331 328.586 130.652 331.382 128.972 333.93C127.292 336.478 125.55 338.715 124.243 340.33C123.621 341.138 123.061 341.76 122.688 342.194C122.564 342.319 122.439 342.443 122.377 342.567H87.598C87.5358 342.443 87.4114 342.319 87.2869 342.194C86.9136 341.76 86.3537 341.138 85.7315 340.33C84.425 338.715 82.6829 336.478 81.0031 333.93C79.2611 331.382 77.5812 328.586 76.3991 325.79C75.1548 322.993 74.4082 320.321 74.4704 318.022C74.5948 315.35 75.7147 308.701 77.4568 300.25C79.1988 291.8 81.4386 281.547 83.6784 271.666C85.9182 261.786 88.158 252.217 89.7756 245.133C90.5844 241.591 91.331 238.67 91.7665 236.62C92.0154 235.626 92.202 234.818 92.3265 234.259V234.134H94.3796H115.409H117.462V234.259C117.586 234.818 117.773 235.626 118.022 236.62C118.519 238.67 119.204 241.591 120.013 245.133C121.692 252.217 123.932 261.786 126.172 271.666C128.412 281.547 130.652 291.8 132.394 300.25C134.26 308.701 135.38 315.288 135.504 318.022Z" fill="white" stroke="#FBAD41" stroke-width="2"/>
<path d="M106.138 330.264C106.263 333.93 105.64 337.223 103.836 339.212C103.214 339.895 102.405 340.455 101.41 340.827C100.725 341.076 99.9788 341.138 99.2322 341.138C82.4338 340.827 106.511 334.365 89.7753 321.502C83.9892 317.09 68.1863 308.204 85.0469 291.862C91.704 285.399 104.832 286.456 106.885 292.172C109.871 300.561 106.014 305.719 104.832 310.628C102.281 321.129 106.138 328.4 106.138 330.264Z" fill="#FFA812"/>
<path d="M94.2561 272.785C93.945 272.474 93.6961 272.226 93.4473 271.853C86.8523 261.724 87.4123 247.184 101.535 236.868C102.531 235.999 106.45 235.377 108.504 236.309C108.628 236.371 108.628 236.433 108.752 236.433C126.733 243.02 110.619 259.549 102.22 271.418C100.229 274.152 96.5581 274.836 94.2561 272.785Z" fill="#FDE7C9"/>
<path d="M126.359 305.346C126.546 305.595 126.733 305.843 126.982 306.092C131.959 314.17 131.523 324.796 120.947 331.134C120.2 331.631 117.276 331.817 115.72 330.947C115.658 330.885 115.596 330.823 115.534 330.823C102.157 324.361 114.103 313.611 120.387 305.657C121.818 303.793 124.617 303.606 126.297 305.284C126.297 305.284 126.359 305.284 126.359 305.346Z" fill="#FFA812"/>
<path d="M116.84 265.328C121.32 266.136 122.875 271.418 122.938 271.542C123.809 278.005 122.066 279.185 113.916 286.891C108.379 292.235 107.01 298.138 103.277 300.499C98.4243 303.668 90.3984 303.42 93.447 296.522C94.5669 293.664 107.321 287.326 108.192 284.467C109.188 281.174 102.406 279.931 104.833 271.231C105.517 268.808 109.872 264.085 116.84 265.328Z" fill="#FDE7C9"/>
<path d="M123.185 302.487C121.505 302.612 118.457 300.437 118.394 300.375C115.968 298.324 116.715 295.155 120.074 293.539C121.07 293.104 123.061 292.607 123.745 293.042C126.171 294.347 124.989 296.646 126.047 298.511C126.234 298.821 126.98 302.239 123.185 302.487Z" fill="#FF7E14"/>
<path d="M115.161 232.208H117.152L119.578 242.337H90.4609L92.8874 232.208H94.8783H115.161Z" fill="#FFCC89"/>
<path d="M133.203 381.342H77.0215L80.7545 371.462L90.2735 344.867L90.398 344.432L90.1491 344.059L84.0519 333.868H126.048L119.951 344.059L119.702 344.432L119.826 344.867L129.345 371.462L133.203 381.342Z" fill="#FFE9CB" stroke="#FBAD41" stroke-width="1.5" stroke-linejoin="round"/>
<path d="M129.097 333.557L120.822 345.177H89.4651L80.7549 333.557H129.097Z" fill="#FFCC89"/>
<path d="M506.874 340.756H479.561C473.962 340.756 469.42 345.303 469.42 350.91V362.309C469.42 367.916 473.962 372.463 479.561 372.463H506.874C512.474 372.463 517.015 367.916 517.015 362.309V350.91C517.078 345.303 512.536 340.756 506.874 340.756Z" stroke="#FD6632" stroke-width="2"/>
<path d="M502.831 331.599H456.854V371.404C456.854 377.011 461.395 381.558 466.995 381.558H492.628C498.227 381.558 502.769 377.011 502.769 371.404V331.599H502.831Z" fill="#FDE7C9" stroke="#FD6632" stroke-width="2"/>
<path d="M489.268 332.533H478.193V370.407C478.193 373.024 480.682 375.142 483.731 375.142C486.779 375.142 489.268 373.024 489.268 370.407V332.533Z" fill="#F6FAFA"/>
<path d="M496.672 332.533H492.006V373.211C492.006 374.332 493.064 375.204 494.308 375.204C495.552 375.204 496.61 374.332 496.61 373.211V332.533H496.672Z" fill="#F6FAFA"/>
<path d="M502.831 339.012H456.854V371.404C456.854 377.011 461.395 381.558 466.995 381.558H492.628C498.227 381.558 502.769 377.011 502.769 371.404V339.012H502.831Z" fill="#FFE9CB" stroke="#FD6632" stroke-width="2"/>
<path d="M485.598 361.063L485.784 360.503C485.971 359.88 485.909 359.257 485.598 358.821C485.287 358.447 484.789 358.198 484.229 358.136L472.968 358.011C472.906 358.011 472.843 357.949 472.781 357.887C472.719 357.824 472.719 357.762 472.781 357.7C472.843 357.575 472.906 357.513 473.03 357.513L484.416 357.388C485.784 357.326 487.215 356.267 487.713 354.959L488.335 353.277C488.335 353.215 488.335 353.152 488.335 353.152V353.09C487.589 349.851 484.664 347.421 481.118 347.421C477.883 347.421 475.083 349.477 474.088 352.342C473.466 351.844 472.657 351.595 471.723 351.719C470.168 351.844 468.924 353.09 468.737 354.647C468.675 355.021 468.737 355.457 468.799 355.769C466.248 355.831 464.195 357.886 464.195 360.441C464.195 360.69 464.195 360.877 464.258 361.126C464.258 361.25 464.382 361.313 464.444 361.313H485.224C485.473 361.25 485.535 361.188 485.598 361.063Z" fill="#FF7800"/>
<path d="M489.516 352.903C489.392 352.903 489.33 352.903 489.205 352.903H489.143C489.081 352.903 489.019 352.965 489.019 353.028L488.583 354.647C488.396 355.333 488.459 355.956 488.77 356.454C489.081 356.89 489.579 357.139 490.139 357.139L492.565 357.264C492.627 357.264 492.689 357.326 492.752 357.388C492.814 357.451 492.814 357.513 492.752 357.575C492.689 357.7 492.627 357.762 492.503 357.762L490.014 357.887C488.645 357.949 487.152 359.07 486.654 360.503L486.468 361.001C486.406 361.064 486.468 361.188 486.592 361.188H495.24C495.365 361.188 495.427 361.126 495.489 361.001C495.614 360.441 495.738 359.88 495.738 359.257C495.738 355.769 492.938 352.903 489.516 352.903Z" fill="#FFA90E"/>
<path d="M317.177 131.294C317.177 131.294 322.59 100.1 358.986 93.3888C358.986 93.3888 394.574 87.4856 411.496 126.198" stroke="#F2583D" stroke-width="2" stroke-miterlimit="10"/>
<path d="M552.309 272.187L527.049 262.47L531.093 285.954" fill="#FFCC89"/>
<path d="M552.309 272.187L527.049 262.47L531.093 285.954" stroke="#FF6633"/>
<path d="M545.526 278.541L546.397 282.528L534.887 279.164L533.083 284.397L528.914 267.328L545.837 278.292" fill="#FE6A31"/>
<path d="M545.526 278.541L546.397 282.528L534.887 279.164L533.083 284.397L528.914 267.328L545.837 278.292" stroke="#FE6A31"/>
<path d="M705.672 340.585C705.61 340.087 705.548 339.588 705.423 339.028C705.361 338.529 705.236 338.031 705.112 337.533C704.863 336.598 704.614 335.602 704.303 334.73C703.059 331.117 701.317 328.002 699.388 325.012C697.086 321.586 694.535 318.409 691.922 315.481C688.003 309.127 681.345 302.275 675.559 298.662C664.049 291.498 653.722 289.941 633.501 291.124C622.987 291.747 594.616 296.606 578.378 282.279C574.52 274.617 566.121 269.073 556.229 268.699C542.23 268.138 530.658 275.863 530.222 288.57C530.098 292.308 527.485 296.668 527.672 300.219C527.547 301.34 527.609 302.399 527.983 303.334C531.404 311.681 545.279 315.668 554.424 315.979C555.047 315.979 555.669 315.979 556.229 315.979C556.602 316.042 556.975 316.104 557.411 316.104C575.827 317.163 558.842 343.887 614.401 347.998C625.724 348.808 637.048 348.808 647.375 347.998C650.3 348.496 653.41 348.87 656.646 348.995C671.889 349.555 684.954 345.319 689.371 339.028C689.434 339.152 689.496 339.277 689.558 339.402C689.807 339.9 689.931 340.398 690.118 340.897C690.242 341.146 690.242 341.395 690.305 341.582C690.367 341.831 690.429 342.018 690.491 342.267C690.616 343.139 690.678 343.949 690.554 344.634C690.491 344.821 690.491 345.008 690.429 345.132C690.367 345.319 690.305 345.444 690.305 345.631C690.242 345.818 690.18 345.942 690.118 346.129C690.056 346.316 689.994 346.441 689.869 346.628C689.496 347.25 689.06 347.936 688.314 348.559C687.629 349.182 686.696 349.867 685.701 350.49C684.643 351.113 683.523 351.673 682.279 352.234C679.79 353.293 676.99 354.227 674.066 355.099C671.142 355.971 668.093 356.719 664.983 357.529C661.872 358.339 658.699 359.148 655.464 360.083C652.228 361.017 648.993 362.076 645.696 363.384C642.46 364.755 639.101 366.374 636.052 368.742C634.497 369.925 633.066 371.296 631.759 372.791C630.453 374.348 629.395 376.092 628.586 377.899C627.777 379.705 627.28 381.699 627.093 383.567C626.906 385.498 626.969 387.367 627.217 389.174C627.715 392.724 628.959 396.026 630.453 399.016C631.946 402.006 633.75 404.747 635.679 407.363C637.608 409.98 639.661 412.471 641.838 414.838C643.456 416.583 646.256 416.832 648.122 415.399C649.989 413.966 650.3 411.475 648.869 409.793V409.73C647.002 407.426 645.26 405.121 643.705 402.691C642.149 400.324 640.781 397.832 639.661 395.341C638.603 392.849 637.856 390.357 637.67 388.052C637.483 385.748 637.856 383.63 638.727 381.761C639.598 379.954 641.092 378.397 643.145 377.027C645.136 375.656 647.624 374.535 650.3 373.6C652.975 372.666 655.899 371.856 658.885 371.171C661.872 370.486 664.92 369.801 668.093 369.178C671.266 368.555 674.439 367.869 677.737 367.122C681.034 366.312 684.332 365.44 687.816 364.132C689.558 363.509 691.3 362.761 693.042 361.827C694.784 360.893 696.526 359.834 698.206 358.463C699.886 357.093 701.441 355.411 702.686 353.48C702.997 352.981 703.246 352.483 703.557 351.985C703.806 351.486 704.054 350.988 704.303 350.427C704.49 349.867 704.739 349.368 704.863 348.808C705.05 348.247 705.174 347.687 705.299 347.126C705.796 344.883 705.921 342.703 705.672 340.585Z" fill="#FFCC89" stroke="#FE6A31" stroke-width="1.5" stroke-linejoin="round"/>
<path d="M539.12 298.35L533.832 298.164C533.085 298.101 532.65 298.911 533.085 299.534L534.579 301.278C534.641 301.34 534.703 301.465 534.703 301.527L535.387 303.396C535.636 304.144 536.818 304.144 537.129 303.458L537.876 301.714C537.938 301.59 538.001 301.527 538.063 301.465L539.743 299.783C540.303 299.223 539.929 298.413 539.12 298.35Z" fill="#FE6A31" stroke="#F6821F"/>
<path d="M578.129 282.466L574.334 287.387L560.522 274.928L550.754 278.977L566.681 257.798L578.938 282.466" fill="#FFCC89"/>
<path d="M572.468 281.531L569.979 285.207L562.824 276.174L557.66 279.226L566.246 263.466L572.468 281.531Z" fill="#FE6A31" stroke="#FE6A31"/>
<path d="M551.064 279.04L566.556 258.421L578.626 282.653" stroke="#FF6633" stroke-width="1.5"/>
<path d="M201.51 318.275L201.85 318.217L202.081 317.962L202.081 317.962L202.081 317.962L202.082 317.961L202.082 317.961L202.083 317.96L202.098 317.944C202.113 317.928 202.137 317.903 202.169 317.87C202.235 317.803 202.336 317.705 202.467 317.584C202.731 317.343 203.115 317.02 203.589 316.697C204.554 316.041 205.801 315.451 207.121 315.451C208.554 315.451 209.835 315.838 210.736 316.33C211.187 316.577 211.513 316.834 211.712 317.051C211.86 317.213 211.895 317.304 211.902 317.32V318.132L212.732 318.275C221.369 319.765 231.883 322.676 239.954 329.215C247.964 335.703 253.663 345.838 252.586 362.039L252.549 362.602L253.012 362.925C269.241 374.258 274.151 383.097 274.983 384.594L274.991 384.608L275.865 384.122L274.991 384.608C275.023 384.667 275.058 384.73 275.089 384.784C275.238 385.126 275.287 385.336 275.301 385.45C275.174 385.481 274.954 385.506 274.605 385.501C274.187 385.494 273.7 385.449 273.135 385.396L273.114 385.394C272.464 385.333 271.725 385.264 271.008 385.264C270.616 385.264 270.192 385.142 269.638 384.855C269.072 384.561 268.45 384.136 267.646 383.585L267.641 383.582C265.792 382.315 263.264 380.582 259.237 379.181C255.213 377.78 249.738 376.724 241.968 376.724C239.474 376.724 236.115 377.679 232.544 378.979C228.946 380.291 224.993 382.007 221.266 383.626L221.249 383.633C218.138 384.984 215.189 386.265 212.69 387.208C210.142 388.171 208.228 388.715 207.121 388.715C201.61 388.715 197.473 386.42 194.693 384.102C193.303 382.942 192.26 381.782 191.567 380.914C191.221 380.481 190.963 380.122 190.794 379.876C190.71 379.752 190.647 379.657 190.607 379.595C190.587 379.563 190.573 379.54 190.564 379.526L190.555 379.511L190.554 379.51L190.554 379.51L190.554 379.509L190.554 379.509L190.263 379.024H189.697H161.657V377.724V377.697L161.656 377.671C160.404 353.71 166.191 339.655 174.258 331.215C182.347 322.751 192.888 319.762 201.51 318.275Z" fill="#E0EDFF" stroke="#F6821F" stroke-width="2"/>
<path d="M229.758 355.244L229.917 354.708C230.108 354.07 230.037 353.48 229.718 353.047C229.424 352.648 228.935 352.413 228.341 352.385L217.089 352.246C217.013 352.242 216.951 352.209 216.912 352.154C216.873 352.098 216.864 352.026 216.888 351.957C216.925 351.849 217.035 351.768 217.149 351.763L228.506 351.623C229.853 351.563 231.311 350.501 231.822 349.206L232.47 347.562C232.488 347.517 232.496 347.47 232.495 347.422C232.495 347.396 232.493 347.37 232.487 347.344C231.751 344.131 228.8 341.728 225.27 341.728C222.018 341.728 219.257 343.767 218.267 346.601C217.628 346.135 216.81 345.888 215.931 345.973C214.371 346.124 213.117 347.344 212.962 348.86C212.921 349.254 212.954 349.633 213.048 349.99C210.499 350.062 208.455 352.091 208.455 354.585C208.455 354.81 208.473 355.032 208.505 355.249C208.521 355.354 208.613 355.433 208.722 355.433L229.495 355.436C229.497 355.436 229.499 355.435 229.501 355.435C229.62 355.432 229.724 355.356 229.758 355.244Z" fill="#FD8639"/>
<path d="M233.145 347.635C233.037 347.635 232.93 347.638 232.823 347.643C232.805 347.644 232.789 347.648 232.772 347.654C232.717 347.672 232.672 347.716 232.655 347.772L232.198 349.292C232.001 349.945 232.074 350.548 232.404 350.992C232.708 351.401 233.214 351.641 233.828 351.669L236.308 351.812C236.381 351.816 236.445 351.85 236.485 351.904C236.526 351.962 236.535 352.037 236.51 352.108C236.472 352.218 236.358 352.301 236.241 352.306L233.664 352.449C232.265 352.511 230.757 353.598 230.229 354.923L230.042 355.391C230.009 355.476 230.072 355.566 230.165 355.571C230.167 355.571 230.169 355.571 230.172 355.571H239.039C239.145 355.571 239.239 355.505 239.268 355.407C239.422 354.88 239.504 354.325 239.504 353.751C239.503 350.373 236.657 347.635 233.145 347.635Z" fill="#FBAD41"/>
<path d="M206.733 318.078C186.61 331.13 186.61 360.836 188.44 379.74" stroke="#F6821F" stroke-width="2"/>
<path d="M201.746 318.078H212.174" stroke="#F6821F" stroke-width="2"/>
<path d="M225.776 321.705C248.774 329.575 247.539 346.642 248.495 360.697" stroke="#F6821F" stroke-width="2"/>
<path d="M189.957 378.382C189.957 378.382 204.466 361.49 220.335 359.791C236.204 358.093 248.899 357.071 262.954 370.674" stroke="#F6821F" stroke-width="2"/>
</g>
<defs>
<linearGradient id="paint0_linear_580_4845" x1="274.655" y1="203.919" x2="464.223" y2="203.919" gradientUnits="userSpaceOnUse">
<stop stop-color="#911475"/>
<stop offset="0.4751" stop-color="#CE2F55"/>
<stop offset="0.7812" stop-color="#FF6633"/>
<stop offset="0.9541" stop-color="#F6821F"/>
</linearGradient>
<linearGradient id="paint1_linear_580_4845" x1="304.655" y1="157.632" x2="425.049" y2="157.632" gradientUnits="userSpaceOnUse">
<stop stop-color="#911475"/>
<stop offset="0.3391" stop-color="#CE2F55"/>
<stop offset="0.6832" stop-color="#FF6633"/>
<stop offset="0.9541" stop-color="#F6821F"/>
</linearGradient>
<clipPath id="clip0_580_4845">
<rect width="740" height="420" fill="white"/>
</clipPath>
</defs>
</svg>
