<svg width="740" height="420" viewBox="0 0 740 420" fill="none" xmlns="http://www.w3.org/2000/svg">
<path d="M443.788 116.145C443.788 67.4036 399.158 35 363.777 35C325.733 35 288.81 57.913 279.282 93.9773C245.512 87.6729 209.99 113.975 209.99 152.209C209.99 188.409 242.219 211.051 263.588 211.051H456.259C480.221 211.051 502.01 188.748 502.01 165.699C502.01 132.55 476.788 112.009 443.788 116.145Z" stroke="#FF6633" stroke-width="1.81063"/>
<path d="M731.884 327.853H8V329.48H731.884V327.853Z" stroke="#FFCC89" stroke-width="2.41417" stroke-miterlimit="10"/>
<path d="M52.0664 316.057H71.4036C72.7348 314.566 73.9259 312.939 75.1169 311.244C85.9766 295.788 87.1676 278.163 87.1676 278.163C87.1676 278.163 69.7922 287.043 59.0026 302.567L52.0664 316.057Z" fill="#E0EDFF" stroke="#FF6633" stroke-width="1.81063"/>
<path d="M46.4599 305.55C38.3326 294.026 25.3711 287.586 25.3711 287.586C26.2819 296.398 29.3646 304.872 34.3391 312.261C35.2499 313.549 36.1607 314.702 37.1416 315.854H51.5043L46.4599 305.55Z" fill="#E0EDFF" stroke="#FF6633" stroke-width="1.81063"/>
<path d="M62.2942 316.057C63.6254 311.38 64.326 306.635 64.326 301.754C64.326 286.365 54.7275 273.96 54.7275 273.96C54.7275 273.96 44.4283 286.433 44.4984 301.821C44.4984 307.041 46.0398 311.922 47.2308 316.057H62.2942Z" fill="#E0EDFF" stroke="#FF6633" stroke-width="1.81063"/>
<path d="M70.3486 339.241H38.12C34.0564 339.241 30.6934 336.326 30.6934 332.801V315.379H77.7052V332.734C77.7753 336.326 74.4123 339.241 70.3486 339.241Z" fill="#FFCC89" stroke="#FBAD41" stroke-width="1.81063"/>
<path d="M681.99 322.868H701.327C702.659 321.376 703.85 319.749 705.041 318.055C715.9 302.598 717.091 284.973 717.091 284.973C717.091 284.973 699.716 293.854 688.926 309.377L681.99 322.868Z" fill="#E0EDFF" stroke="#FF6633" stroke-width="1.81063"/>
<path d="M676.386 312.36C668.258 300.836 655.297 294.396 655.297 294.396C656.208 303.209 659.29 311.682 664.265 319.072C665.176 320.36 666.086 321.512 667.067 322.664H681.43L676.386 312.36Z" fill="#E0EDFF" stroke="#FF6633" stroke-width="1.81063"/>
<path d="M692.22 322.868C693.551 318.19 694.252 313.445 694.252 308.564C694.252 293.176 684.653 280.77 684.653 280.77C684.653 280.77 674.354 293.243 674.424 308.632C674.424 313.852 675.966 318.733 677.157 322.868H692.22Z" fill="#E0EDFF" stroke="#FF6633" stroke-width="1.81063"/>
<path d="M700.274 346.052H668.046C663.982 346.052 660.619 343.137 660.619 339.612V322.19H707.631V339.544C707.701 343.137 704.338 346.052 700.274 346.052Z" fill="#FFCC89" stroke="#FBAD41" stroke-width="1.81063"/>
<path fill-rule="evenodd" clip-rule="evenodd" d="M429.625 370.463H119.977C103.899 370.463 93.0391 368.075 93.0391 365.823V358.932C93.1096 358.59 93.2506 358.249 93.5327 357.976C93.8148 357.772 94.2379 357.635 94.5905 357.703H454.941C455.294 357.635 455.717 357.772 455.999 357.976C456.281 358.181 456.493 358.522 456.493 358.932V365.823C456.563 367.597 448.171 370.463 429.625 370.463Z" fill="white"/>
<path d="M429.624 371.282H119.976C108.834 371.282 92.1914 369.781 92.1914 365.823V358.932C92.2619 358.386 92.544 357.84 92.9671 357.431C93.3902 357.021 94.0249 356.817 94.589 356.885H454.94C455.504 356.885 456.139 357.09 456.562 357.431C456.985 357.84 457.267 358.318 457.338 358.932V365.823C457.408 368.962 445.702 371.282 429.624 371.282ZM94.589 358.454C94.1659 358.454 93.8839 358.659 93.8839 358.864V365.755C94.1659 366.847 102.346 369.576 119.976 369.576H429.624C448.17 369.576 455.292 366.642 455.716 365.687V358.864C455.716 358.727 455.434 358.454 455.01 358.454H94.589Z" fill="#CD2F55"/>
<path d="M93.6738 358.795V365.755H455.858V358.795C455.858 358.659 455.788 358.522 455.717 358.386C455.576 358.249 455.435 358.249 455.294 358.249H94.238C94.0969 358.249 93.9559 358.318 93.8149 358.454C93.7443 358.522 93.6738 358.659 93.6738 358.795Z" stroke="#FF6633" stroke-width="1.81063" stroke-miterlimit="10"/>
<path fill-rule="evenodd" clip-rule="evenodd" d="M404.871 179.005H144.374C140.919 179.005 137.605 180.37 135.136 182.689C132.668 185.077 131.258 188.216 131.258 191.56V357.362H417.987V191.56C417.987 188.216 416.577 185.009 414.109 182.621C411.64 180.37 408.326 179.005 404.871 179.005Z" fill="white" stroke="#FF6633" stroke-width="1.81063" stroke-miterlimit="10"/>
<path d="M418.836 358.181H130.414V191.628C130.414 189.854 130.767 188.08 131.472 186.442C132.177 184.805 133.235 183.304 134.504 182.075C135.773 180.847 137.325 179.824 139.017 179.141C140.71 178.459 142.543 178.118 144.377 178.118H404.873C406.707 178.118 408.54 178.459 410.233 179.141C411.925 179.824 413.476 180.779 414.746 182.075C416.015 183.304 417.073 184.805 417.778 186.442C418.483 188.08 418.836 189.854 418.836 191.628V358.181ZM132.107 356.544H417.143V191.628C417.143 188.489 415.804 185.487 413.476 183.304C411.149 181.12 408.046 179.892 404.803 179.892H144.377C141.133 179.892 138.03 181.188 135.773 183.372C133.517 185.555 132.177 188.557 132.107 191.696V356.544Z" fill="#CD2F55"/>
<path d="M405.93 199.065H142.754V347.469H405.93V199.065Z" fill="url(#paint0_linear_580_4529)" stroke="#CD2F55" stroke-width="2.41417" stroke-miterlimit="10"/>
<path d="M274.624 191.628C275.893 191.628 276.951 190.604 276.951 189.376C276.951 188.148 275.893 187.125 274.624 187.125C273.355 187.125 272.297 188.148 272.297 189.376C272.297 190.604 273.355 191.628 274.624 191.628Z" fill="#FF6633"/>
<path fill-rule="evenodd" clip-rule="evenodd" d="M313.974 358.249V359.682C313.974 360.842 311.647 361.115 309.955 361.115H239.365C237.532 361.115 235.275 360.774 235.275 359.682V358.249H313.974Z" fill="#FF6633"/>
<path d="M405.226 199.747H143.107V210.664H405.296V199.747H405.226Z" fill="#FF6632" stroke="#CD2F55" stroke-width="2.41417" stroke-miterlimit="10"/>
<path d="M152.133 206.775C153.261 206.775 154.107 205.888 154.107 204.865C154.107 203.841 153.191 202.954 152.133 202.954C151.075 202.954 150.158 203.841 150.158 204.865C150.158 205.888 151.004 206.775 152.133 206.775Z" fill="white"/>
<path d="M158.551 206.775C159.679 206.775 160.525 205.888 160.525 204.865C160.525 203.841 159.608 202.954 158.551 202.954C157.422 202.954 156.576 203.841 156.576 204.865C156.576 205.888 157.493 206.775 158.551 206.775Z" fill="white"/>
<path d="M165.037 206.775C166.165 206.775 167.012 205.888 167.012 204.865C167.012 203.841 166.095 202.954 165.037 202.954C163.909 202.954 163.062 203.841 163.062 204.865C163.062 205.888 163.909 206.775 165.037 206.775Z" fill="white"/>
<path d="M320.813 221.923H174.346V338.394H320.813V221.923Z" fill="#FFF8EC" stroke="#CE2F55" stroke-width="2.41417"/>
<path d="M373.915 221.923H320.814V338.394H373.915V221.923Z" fill="#FFF8EC" stroke="#CD2F55" stroke-width="2.41417" stroke-miterlimit="10"/>
<mask id="mask0_580_4529" style="mask-type:alpha" maskUnits="userSpaceOnUse" x="322" y="224" width="52" height="37">
<rect x="322.961" y="224.161" width="50.5111" height="35.8401" fill="#D9D9D9"/>
</mask>
<g mask="url(#mask0_580_4529)">
<path d="M342.133 257.399C343.308 256.797 344.345 256.062 345.312 255.192V249.575L352.984 249.642V254.925C353.33 255.594 354.643 256.396 356.44 257.332C356.44 257.332 353.192 262.081 349.045 262.081C344.828 262.081 342.133 257.399 342.133 257.399Z" fill="#F5811E"/>
<path d="M349.045 267.565C354.506 267.565 359.759 265.558 363.837 262.014C361.556 260.141 359.067 258.536 356.441 257.333C356.441 257.333 353.123 262.014 349.045 262.014C344.967 262.014 342.203 257.399 342.203 257.399C339.714 258.804 336.604 260.074 334.254 261.947C338.194 265.558 343.516 267.565 349.045 267.565Z" fill="#F02E5C"/>
<path d="M345.795 247.034C345.795 247.167 344.827 247.234 344.827 247.368C344.827 247.502 345.657 247.836 345.657 247.97C345.657 248.104 344.689 247.97 344.62 248.037C344.551 248.104 345.311 248.705 345.242 248.839C345.173 248.973 344.344 248.505 344.275 248.639C344.205 248.705 344.758 249.441 344.62 249.575C344.551 249.642 343.86 249.04 343.722 249.107C343.583 249.174 343.929 250.043 343.791 250.11C343.652 250.177 343.238 249.374 343.099 249.441C342.961 249.441 343.03 250.377 342.892 250.377C342.754 250.377 342.547 249.508 342.408 249.508C342.27 249.508 342.063 250.377 341.924 250.377C341.786 250.377 341.855 249.441 341.717 249.441C341.579 249.374 341.095 250.177 341.026 250.11C340.888 250.043 341.233 249.174 341.095 249.107C340.957 249.04 340.335 249.642 340.197 249.575C340.058 249.508 340.611 248.772 340.542 248.639C340.473 248.572 339.644 248.973 339.574 248.839C339.505 248.705 340.266 248.17 340.197 248.037C340.127 247.903 339.229 248.104 339.16 247.97C339.16 247.836 339.989 247.502 339.989 247.368C339.989 247.234 339.021 247.167 339.021 247.034C339.021 246.9 339.989 246.833 339.989 246.699C339.989 246.565 339.16 246.231 339.16 246.097C339.229 245.964 340.127 246.164 340.197 246.03C340.266 245.897 339.505 245.362 339.574 245.228C339.644 245.094 340.473 245.562 340.542 245.428C340.611 245.295 340.058 244.559 340.197 244.492C340.335 244.425 340.957 245.027 341.095 244.96C341.233 244.893 340.888 244.024 341.026 243.957C341.164 243.89 341.579 244.693 341.717 244.626C341.855 244.559 341.786 243.69 341.924 243.69C342.063 243.69 342.27 244.559 342.408 244.559C342.547 244.559 342.754 243.69 342.892 243.69C343.03 243.69 342.961 244.626 343.099 244.626C343.238 244.626 343.722 243.89 343.791 243.957C343.929 244.024 343.583 244.893 343.722 244.96C343.86 245.027 344.482 244.425 344.62 244.492C344.758 244.559 344.136 245.295 344.275 245.428C344.344 245.495 345.173 245.094 345.242 245.228C345.311 245.362 344.551 245.897 344.62 246.03C344.689 246.164 345.588 245.964 345.657 246.097C345.726 246.231 344.827 246.565 344.827 246.699C344.897 246.766 345.795 246.9 345.795 247.034Z" fill="url(#paint1_linear_580_4529)"/>
<path d="M342.825 250.511C342.618 250.511 342.549 250.31 342.411 249.976V249.842C342.411 249.909 342.411 249.909 342.411 249.976C342.272 250.31 342.203 250.578 341.927 250.511C341.719 250.444 341.65 250.177 341.65 249.842C341.65 249.842 341.65 249.775 341.65 249.709C341.65 249.642 341.581 249.775 341.581 249.775C341.374 250.11 341.166 250.31 340.959 250.177C340.752 250.11 340.821 249.842 340.89 249.441V249.374L340.821 249.441C340.475 249.642 340.268 249.842 340.13 249.642C339.922 249.508 340.061 249.24 340.268 248.906L340.337 248.772H340.199C339.853 248.906 339.577 248.973 339.438 248.772C339.3 248.572 339.438 248.371 339.784 248.103L339.853 248.037H339.715C339.3 248.037 339.024 248.037 338.955 247.836C338.886 247.635 339.093 247.502 339.438 247.301L339.577 247.234H339.438C339.093 247.167 338.816 247.1 338.816 246.833C338.816 246.632 339.093 246.565 339.438 246.432H339.577L339.438 246.365C339.093 246.164 338.886 246.03 338.955 245.83C339.024 245.629 339.3 245.629 339.715 245.629H339.853L339.784 245.562C339.508 245.295 339.3 245.094 339.438 244.893C339.577 244.693 339.784 244.827 340.199 244.893H340.337L340.268 244.827C340.061 244.492 339.991 244.292 340.13 244.091C340.337 243.957 340.544 244.091 340.821 244.291L340.89 244.358C340.89 244.292 340.89 244.291 340.89 244.225C340.821 243.823 340.752 243.623 340.959 243.489C341.166 243.422 341.305 243.623 341.581 243.89C341.581 243.957 341.65 243.957 341.65 243.957C341.65 243.957 341.65 243.89 341.65 243.823C341.65 243.422 341.719 243.155 341.927 243.155C342.134 243.155 342.272 243.355 342.411 243.69C342.549 243.355 342.618 243.088 342.894 243.155C343.171 243.221 343.171 243.422 343.171 243.823C343.171 243.89 343.171 243.89 343.171 243.957L343.24 243.89C343.447 243.623 343.655 243.422 343.862 243.489C344.069 243.556 344 243.823 343.931 244.225C343.931 244.225 343.931 244.292 343.931 244.358L344 244.291C344.346 244.091 344.553 243.89 344.691 244.091C344.899 244.225 344.761 244.492 344.553 244.827C344.553 244.893 344.553 244.893 344.484 244.893H344.622C344.968 244.76 345.244 244.693 345.383 244.893C345.521 245.094 345.314 245.228 345.037 245.562L344.968 245.629H345.106C345.452 245.629 345.728 245.629 345.797 245.83C345.867 246.03 345.659 246.164 345.314 246.365L345.244 246.432H345.383C345.728 246.498 346.005 246.565 346.005 246.833C346.005 247.1 345.728 247.1 345.383 247.234H345.244L345.314 247.301C345.659 247.502 345.867 247.635 345.797 247.836C345.728 248.037 345.452 248.037 345.106 248.037H344.968L345.037 248.103C345.314 248.371 345.521 248.572 345.383 248.772C345.244 248.973 345.037 248.906 344.622 248.772H344.484C344.484 248.839 344.553 248.839 344.553 248.906C344.761 249.24 344.83 249.441 344.691 249.642C344.553 249.775 344.277 249.642 344 249.441L343.931 249.374C343.931 249.441 343.931 249.441 343.931 249.508C344 249.909 344.069 250.11 343.862 250.244C343.655 250.31 343.516 250.177 343.24 249.842L343.171 249.775C343.171 249.842 343.171 249.842 343.171 249.909C343.171 250.177 343.171 250.444 342.825 250.511ZM341.719 249.107C341.996 249.174 341.996 249.374 342.065 249.642C342.203 249.374 342.272 249.174 342.48 249.174C342.687 249.174 342.756 249.374 342.894 249.642C342.894 249.374 342.964 249.174 343.171 249.107C343.378 249.04 343.516 249.174 343.655 249.441C343.586 249.174 343.586 248.973 343.724 248.839C343.862 248.772 344.069 248.839 344.346 249.04C344.208 248.772 344.139 248.572 344.277 248.438C344.415 248.304 344.622 248.371 344.899 248.438C344.691 248.237 344.553 248.037 344.622 247.903C344.691 247.769 344.899 247.702 345.244 247.769C344.968 247.635 344.83 247.502 344.83 247.301C344.83 247.1 345.037 247.033 345.383 246.967C345.037 246.9 344.899 246.833 344.83 246.632C344.83 246.432 344.968 246.365 345.244 246.164C344.899 246.164 344.761 246.164 344.622 246.03C344.484 245.897 344.622 245.696 344.899 245.495C344.622 245.562 344.415 245.629 344.277 245.495C344.139 245.362 344.277 245.161 344.346 244.893C344.069 245.094 343.931 245.161 343.724 245.094C343.586 245.027 343.586 244.827 343.655 244.492C343.447 244.76 343.309 244.893 343.171 244.827C342.964 244.76 342.964 244.559 342.894 244.291C342.825 244.559 342.687 244.76 342.48 244.76C342.272 244.76 342.203 244.559 342.065 244.291C342.065 244.559 341.996 244.76 341.858 244.827C341.65 244.893 341.512 244.76 341.374 244.492C341.443 244.76 341.443 244.96 341.305 245.094C341.166 245.161 340.959 245.094 340.752 244.893C340.89 245.161 340.959 245.362 340.821 245.495C340.683 245.629 340.475 245.562 340.199 245.495C340.406 245.696 340.544 245.83 340.475 246.03C340.406 246.164 340.199 246.231 339.922 246.164C340.199 246.298 340.337 246.432 340.337 246.632C340.337 246.833 340.13 246.9 339.784 246.967C340.13 247.033 340.268 247.1 340.337 247.301C340.337 247.502 340.199 247.568 339.922 247.769C340.199 247.769 340.406 247.769 340.475 247.903C340.544 248.037 340.475 248.237 340.199 248.438C340.475 248.371 340.683 248.304 340.821 248.438C340.959 248.572 340.821 248.772 340.752 249.04C341.028 248.839 341.166 248.772 341.374 248.839C341.581 248.906 341.512 249.107 341.443 249.441C341.374 249.24 341.512 249.107 341.719 249.107Z" fill="url(#paint2_linear_580_4529)"/>
<path d="M358.999 247.034C358.999 247.167 358.031 247.234 358.031 247.368C358.031 247.502 358.861 247.836 358.861 247.97C358.861 248.104 357.893 247.97 357.824 248.037C357.755 248.104 358.515 248.705 358.446 248.839C358.377 248.973 357.548 248.505 357.409 248.639C357.34 248.705 357.893 249.441 357.755 249.575C357.617 249.709 356.995 249.04 356.856 249.107C356.718 249.174 357.064 250.043 356.925 250.11C356.787 250.177 356.372 249.374 356.234 249.441C356.096 249.441 356.165 250.377 356.027 250.377C355.889 250.377 355.681 249.508 355.543 249.508C355.405 249.508 355.197 250.377 355.059 250.377C354.921 250.377 354.99 249.441 354.852 249.441C354.714 249.374 354.23 250.177 354.161 250.11C354.022 250.043 354.368 249.174 354.23 249.107C354.092 249.04 353.47 249.642 353.331 249.575C353.193 249.508 353.746 248.772 353.677 248.639C353.608 248.572 352.778 248.973 352.709 248.839C352.64 248.705 353.4 248.17 353.331 248.037C353.262 247.903 352.364 248.104 352.294 247.97C352.294 247.836 353.124 247.502 353.124 247.368C353.124 247.234 352.156 247.167 352.156 247.034C352.156 246.9 353.124 246.833 353.124 246.699C353.124 246.565 352.225 246.231 352.294 246.097C352.364 245.964 353.262 246.164 353.331 246.03C353.4 245.897 352.64 245.362 352.709 245.228C352.778 245.094 353.608 245.562 353.746 245.428C353.884 245.295 353.262 244.559 353.4 244.492C353.539 244.425 354.161 245.027 354.299 244.96C354.437 244.893 354.092 244.024 354.23 243.957C354.368 243.89 354.783 244.693 354.921 244.626C355.059 244.559 354.99 243.69 355.128 243.69C355.267 243.69 355.474 244.559 355.612 244.559C355.75 244.559 355.958 243.69 356.096 243.69C356.234 243.69 356.165 244.626 356.303 244.626C356.442 244.626 356.925 243.89 356.995 243.957C357.133 244.024 356.787 244.893 356.925 244.96C357.064 245.027 357.686 244.425 357.824 244.492C357.962 244.559 357.34 245.295 357.478 245.428C357.547 245.495 358.377 245.094 358.515 245.228C358.653 245.362 357.824 245.897 357.893 246.03C357.962 246.164 358.861 245.964 358.93 246.097C358.999 246.231 358.1 246.565 358.1 246.699C358.1 246.766 358.999 246.9 358.999 247.034Z" fill="url(#paint3_linear_580_4529)"/>
<path d="M356.097 250.511C355.889 250.511 355.82 250.31 355.682 249.976C355.682 249.976 355.682 249.909 355.682 249.842C355.682 249.909 355.682 249.909 355.682 249.976C355.544 250.31 355.475 250.578 355.198 250.511C354.991 250.444 354.922 250.177 354.922 249.842C354.922 249.775 354.922 249.775 354.922 249.709L354.853 249.775C354.645 250.11 354.438 250.31 354.231 250.177C354.023 250.11 354.092 249.842 354.161 249.441C354.161 249.374 354.161 249.374 354.161 249.307L354.092 249.374C353.747 249.575 353.539 249.775 353.401 249.575C353.194 249.441 353.332 249.173 353.539 248.839C353.539 248.839 353.609 248.772 353.609 248.705H353.47C353.125 248.839 352.848 248.906 352.71 248.705C352.572 248.505 352.71 248.304 353.056 248.037L353.125 247.97H352.986C352.572 247.97 352.295 247.97 352.226 247.769C352.157 247.568 352.364 247.435 352.71 247.234L352.848 247.167H352.71C352.364 247.1 352.088 247.033 352.088 246.766C352.088 246.565 352.364 246.498 352.71 246.365H352.848L352.71 246.298C352.364 246.097 352.157 245.963 352.226 245.763C352.295 245.562 352.572 245.562 352.986 245.562H353.125L353.056 245.495C352.779 245.228 352.572 245.027 352.71 244.827C352.848 244.626 353.056 244.76 353.47 244.827H353.609C353.609 244.76 353.608 244.76 353.539 244.76C353.332 244.425 353.263 244.225 353.401 244.024C353.609 243.89 353.816 244.024 354.092 244.225L354.161 244.291C354.161 244.225 354.161 244.225 354.161 244.158C354.092 243.756 354.023 243.556 354.231 243.422C354.438 243.355 354.576 243.556 354.853 243.823L354.922 243.89C354.922 243.823 354.922 243.823 354.922 243.756C354.922 243.355 354.991 243.088 355.198 243.088C355.406 243.088 355.544 243.288 355.682 243.623C355.682 243.69 355.682 243.69 355.682 243.756C355.682 243.756 355.682 243.69 355.682 243.623C355.82 243.288 355.889 243.021 356.166 243.088C356.373 243.155 356.442 243.355 356.442 243.756V243.89L356.511 243.823C356.719 243.489 356.926 243.288 357.134 243.422C357.341 243.489 357.272 243.756 357.203 244.158C357.203 244.225 357.203 244.225 357.203 244.291L357.272 244.225C357.617 244.024 357.825 243.823 357.963 244.024C358.101 244.225 357.963 244.425 357.825 244.76L357.756 244.827H357.894C358.239 244.693 358.516 244.626 358.654 244.827C358.792 245.027 358.585 245.161 358.309 245.495L358.239 245.562H358.378C358.723 245.562 359.069 245.562 359.138 245.763C359.207 245.963 359 246.097 358.654 246.298L358.585 246.365H358.723C359.069 246.432 359.345 246.498 359.345 246.766C359.345 247.033 359.069 247.033 358.723 247.167H358.585L358.654 247.234C359 247.435 359.207 247.568 359.138 247.769C359.069 247.97 358.792 247.97 358.378 247.97H358.239L358.309 248.037C358.585 248.304 358.792 248.505 358.654 248.705C358.516 248.906 358.309 248.839 357.894 248.705H357.756L357.825 248.839C358.032 249.173 358.17 249.374 357.963 249.575C357.756 249.708 357.548 249.575 357.272 249.374L357.203 249.307C357.203 249.307 357.203 249.374 357.203 249.441C357.272 249.842 357.341 250.043 357.134 250.177C356.926 250.244 356.788 250.11 356.511 249.775L356.442 249.709V249.842C356.442 250.177 356.373 250.444 356.097 250.511ZM354.922 249.107H354.991C355.198 249.173 355.198 249.374 355.198 249.642C355.336 249.374 355.406 249.173 355.613 249.173C355.82 249.173 355.889 249.374 356.028 249.642C356.028 249.374 356.097 249.173 356.235 249.107C356.373 249.04 356.581 249.173 356.719 249.441C356.65 249.173 356.65 248.973 356.788 248.839C356.926 248.772 357.134 248.839 357.341 249.04C357.203 248.772 357.134 248.572 357.272 248.438C357.41 248.304 357.617 248.371 357.894 248.438C357.687 248.237 357.548 248.037 357.617 247.903C357.686 247.769 357.894 247.702 358.239 247.769C357.963 247.635 357.825 247.502 357.825 247.301C357.825 247.1 358.032 247.033 358.378 246.967C358.032 246.9 357.894 246.833 357.825 246.632C357.825 246.432 357.963 246.365 358.239 246.164C357.894 246.164 357.756 246.164 357.617 246.03C357.548 245.897 357.617 245.696 357.894 245.495C357.617 245.562 357.41 245.629 357.272 245.495C357.134 245.362 357.272 245.161 357.341 244.893C357.064 245.094 356.926 245.161 356.788 245.094C356.65 245.027 356.65 244.827 356.719 244.492C356.511 244.76 356.373 244.893 356.235 244.827C356.028 244.76 356.028 244.559 356.028 244.291C355.889 244.559 355.82 244.76 355.613 244.76C355.406 244.76 355.336 244.559 355.198 244.291C355.198 244.559 355.129 244.76 354.991 244.827C354.784 244.893 354.645 244.76 354.507 244.492C354.576 244.76 354.576 244.96 354.438 245.094C354.3 245.161 354.092 245.094 353.885 244.893C354.023 245.161 354.092 245.362 353.954 245.495C353.816 245.629 353.608 245.562 353.332 245.495C353.539 245.696 353.678 245.83 353.609 246.03C353.539 246.164 353.332 246.231 352.986 246.164C353.263 246.298 353.401 246.432 353.401 246.632C353.401 246.833 353.194 246.9 352.848 246.967C353.194 247.033 353.332 247.1 353.401 247.301C353.401 247.502 353.263 247.568 352.986 247.769C353.263 247.769 353.47 247.769 353.609 247.903C353.747 248.037 353.539 248.237 353.332 248.438C353.608 248.371 353.816 248.304 353.954 248.438C354.092 248.572 353.954 248.772 353.885 249.04C354.161 248.839 354.3 248.772 354.438 248.839C354.576 248.906 354.576 249.107 354.507 249.441C354.576 249.24 354.714 249.107 354.922 249.107Z" fill="url(#paint4_linear_580_4529)"/>
<path d="M356.306 242.419C356.376 242.285 356.445 242.085 356.514 242.018C356.652 241.884 356.721 241.817 356.929 241.683C357.067 241.616 357.274 241.55 357.412 241.55C357.551 241.55 357.758 241.55 357.896 241.616C358.864 241.884 358.311 245.228 355.615 245.094C355.892 244.225 356.168 243.355 356.306 242.419Z" fill="#F5811E"/>
<path d="M341.791 242.419C341.722 242.285 341.652 242.085 341.583 241.951C341.445 241.817 341.307 241.683 341.169 241.617C341.03 241.55 340.823 241.483 340.685 241.483C340.547 241.483 340.339 241.483 340.201 241.55C339.372 241.884 339.786 245.161 342.482 245.027C342.136 244.225 341.929 243.355 341.791 242.419Z" fill="#F5811E"/>
<path d="M356.649 239.878C356.511 242.686 355.889 245.495 354.645 248.037C353.677 249.775 351.189 251.715 349.046 251.715C346.903 251.715 344.622 249.775 343.447 248.037C341.927 245.83 341.443 241.75 341.443 239.878C341.374 238.874 341.581 237.871 341.927 237.002C342.272 236.066 342.825 235.263 343.586 234.527C344.277 233.792 345.175 233.257 346.074 232.856C347.042 232.454 348.009 232.254 349.046 232.254C350.083 232.254 351.05 232.454 352.018 232.856C352.986 233.257 353.815 233.792 354.506 234.527C355.198 235.263 355.75 236.066 356.165 237.002C356.511 237.938 356.718 238.941 356.649 239.878Z" fill="#F5811E" stroke="#901474" stroke-width="0.603542" stroke-miterlimit="10"/>
<path d="M356.305 241.817C355.959 238.874 352.987 234.996 349.738 234.996L349.185 232.588L348.771 235.062C345.868 235.464 342.135 238.941 341.79 242.419L341.651 242.285C341.513 241.282 341.375 240.212 341.375 239.209C341.444 237.269 342.274 235.397 343.725 234.059C345.177 232.722 347.112 231.986 349.116 231.986C351.121 231.986 353.125 232.722 354.508 234.126C355.959 235.531 356.788 237.403 356.788 239.343C356.719 240.346 356.581 241.349 356.374 242.352L356.305 241.817Z" fill="url(#paint5_linear_580_4529)"/>
<path d="M341.79 242.553H341.721C341.721 242.553 341.652 242.553 341.652 242.486L341.514 242.352C341.514 242.352 341.444 242.285 341.444 242.218C341.306 241.215 341.168 240.145 341.168 239.075C341.237 237.069 342.136 235.196 343.656 233.859C345.177 232.521 347.112 231.719 349.186 231.785C351.259 231.785 353.195 232.588 354.646 233.992C356.098 235.397 356.996 237.269 356.996 239.276C356.927 240.279 356.789 241.349 356.581 242.352C356.581 242.419 356.443 242.553 356.374 242.486C356.305 242.486 356.305 242.486 356.236 242.419C356.167 242.419 356.167 242.352 356.167 242.285L356.098 241.75C355.683 238.072 352.296 235.129 349.739 235.129C349.67 235.129 349.67 235.129 349.6 235.062C349.531 235.062 349.531 234.996 349.531 234.929L349.255 233.524L348.978 234.929C348.978 234.996 348.978 234.996 348.909 235.062C348.909 235.062 348.84 235.129 348.771 235.129C346.006 235.531 342.274 238.941 341.928 242.285C341.928 242.352 341.928 242.352 341.859 242.419L341.79 242.486V242.553ZM349.117 232.12C347.181 232.12 345.246 232.789 343.864 234.126C342.481 235.464 341.652 237.269 341.583 239.142C341.583 239.878 341.652 240.613 341.721 241.349C342.205 239.811 343.103 238.339 344.278 237.202C345.453 236.066 346.974 235.196 348.564 234.795L348.978 232.454C348.978 232.387 349.047 232.387 349.047 232.32C349.117 232.32 349.117 232.254 349.186 232.254C349.255 232.254 349.255 232.254 349.324 232.32C349.393 232.32 349.393 232.387 349.393 232.454L349.877 234.661C352.918 234.795 355.752 238.072 356.374 241.081C356.512 240.479 356.581 239.811 356.581 239.209C356.581 237.336 355.752 235.531 354.37 234.193C352.987 232.856 351.121 232.12 349.117 232.12Z" fill="#5D0B83"/>
</g>
<mask id="mask1_580_4529" style="mask-type:alpha" maskUnits="userSpaceOnUse" x="322" y="262" width="52" height="38">
<rect x="322.961" y="262.174" width="50.5111" height="36.9262" fill="#D9D9D9"/>
</mask>
<g mask="url(#mask1_580_4529)">
<path d="M352.57 298.127V288.698L343.516 288.631V298.127H352.57Z" fill="#863850"/>
<path d="M354.439 285.153C354.854 283.816 355.131 282.478 355.338 281.141L354.439 285.153Z" fill="white"/>
<path d="M355.129 281.141C355.198 280.539 356.166 279.269 357.133 279.937C358.17 280.606 357.064 285.354 354.23 285.154" fill="#863850"/>
<path d="M341.651 285.153C341.236 283.816 340.959 282.478 340.752 281.141L341.651 285.153Z" fill="white"/>
<path d="M340.752 281.141C340.683 280.539 339.715 279.269 338.748 279.937C337.711 280.606 338.817 285.354 341.651 285.154" fill="#863850"/>
<path d="M355.608 276.66C355.677 278.733 355.401 280.807 354.848 282.746C354.571 283.682 354.226 286.424 353.811 287.16C352.843 288.966 350.286 291.039 347.936 291.039C345.586 291.039 343.374 289.032 342.061 287.16C341.577 286.491 341.232 283.682 340.886 282.746C340.402 280.74 340.195 278.733 340.333 276.727C340.264 275.724 340.402 274.721 340.817 273.784C341.162 272.848 341.715 271.979 342.407 271.243C343.098 270.508 343.996 269.906 344.895 269.571C345.863 269.17 346.899 268.969 347.867 268.969C348.835 268.969 349.941 269.17 350.839 269.571C351.807 269.973 352.636 270.574 353.327 271.243C354.019 271.979 354.571 272.848 354.917 273.784C355.47 274.721 355.677 275.724 355.608 276.66Z" fill="#863850" stroke="#5D0B82" stroke-width="0.603542" stroke-miterlimit="10"/>
<path d="M348.008 305.417C353.675 305.417 359.136 303.277 363.214 299.465C359.412 296.523 354.159 296.055 352.57 294.516C350.703 295.921 345.727 295.921 343.515 294.516C341.925 295.653 336.672 296.255 333.078 299.733C337.087 303.344 342.478 305.417 348.008 305.417Z" fill="#FBAE41"/>
<path d="M340.056 278.934C340.056 278.131 340.056 277.329 340.056 276.794C339.987 275.791 340.125 274.721 340.54 273.718C340.885 272.714 341.508 271.845 342.199 271.109C342.959 270.374 343.858 269.772 344.825 269.371C345.793 268.969 346.899 268.769 347.936 268.769C349.041 268.769 350.078 268.969 351.046 269.371C352.014 269.772 352.912 270.374 353.672 271.109C354.433 271.845 354.986 272.781 355.331 273.718C355.677 274.721 355.884 275.724 355.815 276.794C355.815 277.329 355.815 278.065 355.815 278.867L353.672 277.262V274.386H342.13V277.262L340.056 278.934Z" fill="url(#paint6_linear_580_4529)"/>
</g>
<mask id="mask2_580_4529" style="mask-type:alpha" maskUnits="userSpaceOnUse" x="322" y="301" width="52" height="37">
<path d="M322.961 301.809H373.472V337.649H322.961V301.809Z" fill="#D9D9D9"/>
</mask>
<g mask="url(#mask2_580_4529)">
<path d="M354.853 319.01C354.576 318.007 354.369 317.004 354.3 316.001C350.153 316.001 346.075 314.931 342.48 312.858L342.688 312.59C346.282 314.597 350.291 315.667 354.438 315.6H354.576V315.733C354.645 316.803 354.853 317.807 355.129 318.81L354.853 319.01Z" fill="#005BD7"/>
<path d="M332.458 337.87C332.112 337.134 331.905 336.265 331.974 335.462C332.043 333.121 338.126 331.383 338.126 330.045C338.126 328.707 335.085 325.832 335.085 323.692C335.085 321.552 338.955 319.679 338.955 315.466C338.955 308.31 346.489 308.444 347.18 308.444C355.336 308.444 356.304 314.596 357.133 315.733C357.617 316.402 359.967 316.87 359.967 318.943C359.967 321.017 358.17 322.087 357.894 323.692C357.617 325.297 358.17 326.3 361.073 327.838C365.151 330.045 364.667 336.131 358.792 337.401C358.792 337.401 352.502 334.994 351.189 333.054V327.37L342.964 327.303V333.322C341.167 335.261 335.776 337.669 333.426 338.94L332.458 337.87Z" fill="url(#paint7_linear_580_4529)"/>
<path d="M339.576 335.663C340.82 334.994 341.926 334.191 342.963 333.255V327.236L351.188 327.303V332.988C351.534 333.723 352.985 334.593 354.851 335.596C352.432 336.866 349.737 337.535 346.903 337.602C344.345 337.669 341.788 337 339.576 335.663Z" fill="#FAAD41"/>
<path d="M354.854 319.612C354.923 319.412 354.992 319.278 355.061 319.144C355.2 319.011 355.338 318.877 355.476 318.81C355.614 318.743 355.822 318.676 355.96 318.676C356.167 318.676 356.306 318.676 356.513 318.743C357.55 319.011 356.928 322.622 354.094 322.488C354.439 321.552 354.716 320.616 354.854 319.612Z" fill="#FAAD41"/>
<path d="M339.23 319.612C339.161 319.412 339.092 319.278 338.954 319.144C338.815 319.011 338.677 318.877 338.539 318.81C338.401 318.743 338.193 318.676 337.986 318.676C337.778 318.676 337.64 318.676 337.433 318.743C336.534 319.077 337.018 322.622 339.852 322.488C339.645 321.552 339.368 320.616 339.23 319.612Z" fill="#FAAD41"/>
<path d="M347.868 344.022C352.775 344.022 357.614 342.417 361.484 339.475C359.48 338.003 357.268 336.666 354.987 335.596C352.499 336.866 349.803 337.602 346.969 337.602C344.343 337.602 341.855 336.933 339.643 335.663C337.777 336.666 335.565 337.669 333.561 338.873C337.431 342.216 342.546 344.022 347.868 344.022Z" fill="#BDD0FF"/>
<path d="M355.267 316.335C355.129 319.345 354.438 322.354 353.124 325.096C352.088 326.969 349.53 329.042 347.111 329.042C344.692 329.042 342.411 326.969 341.098 325.096C339.439 322.688 338.955 318.408 338.955 316.335C338.955 314.262 339.784 312.256 341.374 310.784C342.895 309.313 344.968 308.444 347.111 308.444C349.254 308.444 351.327 309.246 352.848 310.784C354.368 312.256 355.267 314.262 355.267 316.335Z" fill="#F9AA42" stroke="#CD2F55" stroke-width="0.603542" stroke-miterlimit="10"/>
<path d="M354.85 319.612C354.574 318.542 354.988 316.67 354.919 315.533C350.496 315.6 346.21 314.463 342.409 312.323C342.409 312.323 340.819 318.408 338.884 319.612C338.677 318.475 338.607 317.272 338.607 316.135C338.607 313.928 339.506 311.788 341.096 310.249C342.685 308.711 344.897 307.842 347.178 307.842C349.459 307.842 351.671 308.711 353.261 310.249C354.85 311.788 355.749 313.928 355.749 316.135C355.749 317.071 355.68 317.94 355.472 318.877L354.85 319.612Z" fill="url(#paint8_linear_580_4529)"/>
</g>
<mask id="mask3_580_4529" style="mask-type:alpha" maskUnits="userSpaceOnUse" x="173" y="222" width="148" height="116">
<path d="M318.815 224.161H174.707V336.508H318.885V224.161H318.815Z" fill="#FFF8EC" stroke="#CE2F55" stroke-width="2.41417"/>
</mask>
<g mask="url(#mask3_580_4529)">
<path d="M291.279 337.314C277.882 330.601 263.027 328.758 260.25 322.637C258.167 317.965 260.25 302.366 260.25 302.366L227.902 302.037C227.902 302.037 229.915 317.833 227.902 322.637C225.403 328.429 211.936 330.272 199.58 336.788" fill="#863850"/>
<path d="M245.741 353.373C262.47 353.373 278.644 347.713 291.278 337.314C277.881 330.601 263.026 328.758 260.249 322.637C259.763 321.321 259.486 320.005 259.416 318.623C254.349 319.61 249.212 320.136 244.006 320.202C238.869 320.136 233.663 319.61 228.595 318.623C228.526 320.005 228.248 321.321 227.832 322.637C225.333 328.429 211.866 330.272 199.51 336.788C212.282 347.516 228.734 353.373 245.741 353.373Z" fill="#FF6632"/>
<path d="M219.641 274.987C219.363 273.013 216.309 269.459 212.63 271.696C208.951 273.934 212.491 290.585 222.487 289.993" fill="#863850"/>
<path d="M268.162 274.987C268.44 273.013 271.494 269.459 275.173 271.696C278.853 273.934 275.312 290.585 265.316 289.993" fill="#863850"/>
<path d="M269.206 263.469C269.414 270.051 268.65 276.567 266.915 282.951C265.943 286.176 264.833 295.982 263.514 298.549C260.251 304.999 251.852 312.107 244.216 312.107C236.58 312.107 229.083 304.933 224.849 298.549C223.252 296.114 222.003 286.242 221.031 282.951C218.74 275.382 219.157 268.406 219.157 263.469C219.157 248.595 229.708 238.657 244.216 238.657C258.724 238.657 269.206 248.595 269.206 263.469Z" fill="#863850" stroke="#5D0B82" stroke-width="1.20708" stroke-miterlimit="10"/>
<path d="M265.663 259.586C265.663 259.586 238.798 261.956 226.512 253.597C226.512 253.597 222.902 267.879 218.598 274.921C218.598 274.921 213.253 253.268 221.028 250.372C221.028 250.372 220.403 238.328 234.356 235.3C234.356 235.3 233.662 238.328 235.952 238.196C238.312 238.13 256.916 227.995 270.175 235.893C283.433 243.856 273.298 255.44 273.298 255.44C273.298 255.44 273.645 267.747 270.452 272.881L269.272 276.369C269.272 276.501 265.94 265.378 265.663 259.586Z" fill="url(#paint9_linear_580_4529)"/>
</g>
<path d="M320.602 260.678H374.055" stroke="#CD2F55" stroke-width="2.41417" stroke-miterlimit="10"/>
<path d="M320.814 299.775H374.197" stroke="#CD2F55" stroke-width="2.41417" stroke-miterlimit="10"/>
<path d="M465.787 384.051H392.712C391.381 384.051 390.05 383.509 389.139 382.627C388.158 381.678 387.668 380.458 387.668 379.17V239.997C387.668 238.709 388.228 237.421 389.139 236.54C390.12 235.591 391.381 235.116 392.712 235.116H465.787C466.488 235.116 467.119 235.252 467.749 235.455C468.38 235.726 468.94 236.065 469.431 236.54C469.921 237.014 470.271 237.557 470.552 238.167C470.832 238.777 470.902 239.387 470.902 240.065V379.238C470.902 380.526 470.342 381.814 469.431 382.695C468.45 383.509 467.119 384.051 465.787 384.051Z" fill="#FFE9CB" stroke="#FF6633" stroke-width="1.81063" stroke-linejoin="round"/>
<path d="M465.788 384.864H392.713C391.172 384.864 389.63 384.254 388.509 383.17C387.388 382.085 386.758 380.661 386.758 379.102V239.997C386.758 238.506 387.388 237.014 388.509 235.93C389.63 234.845 391.102 234.235 392.713 234.235H465.788C467.329 234.235 468.871 234.845 469.992 235.93C471.113 237.014 471.743 238.438 471.743 239.997V379.17C471.743 380.661 471.113 382.153 469.992 383.237C468.871 384.254 467.4 384.864 465.788 384.864ZM392.713 235.862C391.592 235.862 390.541 236.269 389.7 237.082C388.86 237.896 388.439 238.912 388.439 239.997V379.17C388.439 380.255 388.86 381.271 389.7 382.085C390.541 382.898 391.592 383.305 392.713 383.305H465.788C466.909 383.305 467.96 382.898 468.801 382.085C469.571 381.339 470.062 380.255 470.062 379.17V239.929C470.062 238.845 469.642 237.828 468.801 237.014C468.03 236.269 466.909 235.794 465.788 235.794H392.713V235.862Z" fill="#0052ED"/>
<path d="M465.79 385H392.715C391.103 385 389.562 384.39 388.441 383.305C387.32 382.221 386.689 380.729 386.689 379.17V239.997C386.689 238.438 387.32 236.947 388.441 235.862C389.562 234.777 391.103 234.167 392.715 234.167H465.79C467.401 234.167 468.943 234.777 470.064 235.862C471.185 236.947 471.815 238.438 471.815 239.997V379.17C471.815 380.729 471.185 382.221 470.064 383.305C468.943 384.39 467.401 385 465.79 385ZM392.715 235.998C391.664 235.998 390.613 236.404 389.842 237.15C389.072 237.896 388.651 238.913 388.651 239.929V379.102C388.651 380.119 389.072 381.136 389.842 381.882C390.613 382.627 391.664 383.034 392.715 383.034H465.79C466.911 383.034 467.892 382.627 468.662 381.882C469.433 381.136 469.853 380.119 469.853 379.102V239.997C469.853 238.913 469.433 237.963 468.662 237.218C467.892 236.472 466.841 236.065 465.79 236.065H392.715V235.998Z" fill="#F02E5C"/>
<path d="M466.065 248.945H392.43V373.611H466.135V248.945H466.065Z" fill="url(#paint10_linear_580_4529)"/>
<path d="M435.379 243.929H421.647C421.507 243.929 421.366 243.929 421.226 243.861C421.086 243.793 421.016 243.726 420.876 243.658C420.806 243.59 420.736 243.454 420.666 243.319C420.596 243.183 420.596 243.048 420.596 242.912C420.596 242.641 420.736 242.37 420.876 242.234C421.086 242.031 421.296 241.963 421.577 241.963H435.309C435.589 241.963 435.869 242.099 436.009 242.234C436.22 242.438 436.29 242.641 436.29 242.912C436.29 243.183 436.15 243.454 436.009 243.59C435.939 243.793 435.659 243.929 435.379 243.929Z" fill="#F02E5C"/>
<path d="M416.744 244.607C417.725 244.607 418.495 243.861 418.495 242.912C418.495 241.963 417.725 241.217 416.744 241.217C415.763 241.217 414.992 241.963 414.992 242.912C414.992 243.861 415.763 244.607 416.744 244.607Z" fill="#F02E5C"/>
<path d="M429.148 336.462C444.071 336.462 456.192 324.735 456.192 310.295C456.192 295.856 444.071 284.129 429.148 284.129C414.224 284.129 402.104 295.856 402.104 310.295C402.104 324.735 414.224 336.462 429.148 336.462Z" fill="white"/>
<path d="M429.145 337.276C423.611 337.276 418.286 335.717 413.662 332.734C409.108 329.751 405.534 325.548 403.433 320.667C401.331 315.719 400.77 310.363 401.821 305.076C402.872 299.856 405.534 295.043 409.458 291.314C413.381 287.518 418.286 285.01 423.681 283.925C429.075 282.908 434.68 283.451 439.795 285.484C444.909 287.518 449.253 290.975 452.266 295.382C455.349 299.788 456.96 305.008 456.96 310.363C456.96 317.481 454.018 324.328 448.833 329.412C443.578 334.429 436.502 337.276 429.145 337.276ZM429.145 285.01C423.961 285.01 418.916 286.501 414.573 289.281C410.299 292.06 406.936 295.992 404.904 300.669C402.942 305.279 402.382 310.363 403.433 315.312C404.413 320.193 406.936 324.735 410.579 328.26C414.222 331.785 418.916 334.225 423.961 335.174C429.005 336.123 434.33 335.649 439.094 333.751C443.859 331.853 447.992 328.599 450.865 324.396C453.737 320.261 455.279 315.312 455.279 310.295C455.279 303.584 452.476 297.144 447.572 292.399C442.738 287.721 436.082 285.01 429.145 285.01Z" fill="url(#paint11_linear_580_4529)"/>
<path d="M417.935 297.754L417.305 296.805C423.47 293.009 433.489 293.009 439.584 296.805L438.954 297.754C433.139 294.094 423.75 294.094 417.935 297.754Z" fill="#FF6632"/>
<path d="M413.661 306.364L412.68 305.754C414.431 303.245 416.813 301.212 419.546 299.856C422.278 298.432 425.361 297.687 428.514 297.687C431.667 297.687 434.679 298.432 437.482 299.856C440.214 301.279 442.596 303.313 444.348 305.754L443.367 306.364C441.685 304.059 439.443 302.161 436.851 300.873C434.259 299.585 431.316 298.907 428.374 298.907C425.501 298.975 422.629 299.652 420.106 300.94C417.514 302.228 415.342 304.059 413.661 306.364Z" fill="#FF6632"/>
<path d="M433.698 326.768C431.036 326.158 428.654 324.87 426.762 323.04C425.641 322.091 424.8 320.871 424.17 319.583C423.539 318.295 423.259 316.871 423.189 315.447C423.189 311.719 425.711 309.821 428.023 309.685C428.654 309.617 429.284 309.753 429.845 309.956C430.405 310.16 430.966 310.431 431.386 310.838C431.877 311.244 432.227 311.719 432.507 312.261C432.788 312.804 432.928 313.414 432.928 313.956C432.928 314.566 433.138 315.176 433.418 315.719C433.698 316.261 434.119 316.735 434.609 317.142C435.66 317.752 436.851 317.888 437.972 317.684H438.042C438.182 317.684 441.055 317.346 440.775 313.278C440.564 310.295 439.093 307.516 436.781 305.55C434.469 303.584 431.456 302.567 428.374 302.703C426.272 302.635 424.24 303.11 422.348 303.991C420.457 304.94 418.915 306.296 417.724 307.923C416.463 309.821 415.692 311.99 415.482 314.295C415.272 316.532 415.622 318.837 416.533 320.938L415.412 321.345C414.431 319.108 414.081 316.6 414.291 314.159C414.501 311.719 415.342 309.346 416.743 307.313C418.004 305.482 419.756 303.991 421.788 302.974C423.82 301.957 426.062 301.483 428.374 301.55C431.737 301.415 435.03 302.567 437.552 304.737C440.074 306.906 441.615 309.956 441.896 313.21C442.176 318.091 438.673 318.769 438.182 318.837C436.711 319.176 435.17 318.905 433.909 318.159C433.278 317.684 432.717 317.074 432.367 316.396C432.017 315.719 431.807 314.973 431.737 314.159C431.737 313.685 431.596 313.278 431.456 312.871C431.246 312.465 430.966 312.058 430.616 311.787C430.265 311.448 429.845 311.244 429.425 311.109C429.004 310.973 428.514 310.905 428.023 310.905C426.202 310.973 424.31 312.465 424.31 315.515C424.31 320.938 429.845 324.938 433.909 325.684L433.698 326.768Z" fill="#FF6632"/>
<path d="M424.381 326.023C422.139 324.531 420.387 322.294 419.476 319.786C418.566 317.278 418.495 314.498 419.266 311.922C420.527 307.923 423.75 305.482 427.674 305.482C434.82 305.482 437.412 310.702 437.412 315.244H436.221C436.221 313.821 435.801 306.635 427.674 306.635C424.171 306.635 421.508 308.736 420.387 312.329C419.687 314.634 419.757 317.142 420.527 319.447C421.368 321.752 422.909 323.718 425.011 325.142L424.381 326.023Z" fill="#FF6632"/>
<path d="M437.972 323.447C435.099 323.515 432.297 322.565 430.195 320.735C429.284 319.854 428.584 318.837 428.163 317.752C427.673 316.6 427.463 315.38 427.533 314.227H428.724C428.654 315.312 428.864 316.329 429.284 317.346C429.705 318.362 430.265 319.244 431.106 319.989C432.157 320.871 433.348 321.549 434.679 321.955C436.01 322.362 437.341 322.498 438.743 322.43V323.582L437.972 323.447Z" fill="#FF6632"/>
<path d="M618.801 266.3L595.4 256.199C599.254 247.996 601.846 239.319 603.037 230.371L623.285 239.184C624.266 248.471 622.725 257.826 618.801 266.3Z" fill="#FFE7CA"/>
<path d="M595.33 256.199L618.731 266.3C614.807 274.841 608.642 282.23 600.795 287.654L580.547 278.909C582.158 277.146 583.77 275.248 585.241 273.214C589.235 267.859 592.598 262.164 595.33 256.199Z" fill="#FFF8EC"/>
<path d="M623.287 239.184L603.039 230.439C605.141 213.898 601.007 200.408 591.059 196.137C599.886 199.933 607.453 205.967 613.128 213.491C618.803 221.016 622.306 229.896 623.287 239.184Z" fill="#FFF8EC"/>
<path d="M580.549 278.976L600.867 287.721C593.09 293.212 583.912 296.602 574.314 297.551C564.715 298.5 555.047 297.008 546.219 293.212C556.027 297.483 569.199 291.45 580.549 278.976Z" fill="#FFE7CA"/>
<path d="M595.33 256.199L568.566 244.607L579.776 220.338L602.967 230.371C601.776 239.319 599.184 247.996 595.33 256.199Z" fill="#FFF8EC"/>
<path d="M568.571 244.607L595.335 256.199C592.603 262.164 589.17 267.927 585.246 273.214C583.705 275.248 582.163 277.146 580.552 278.909L557.361 268.808L568.571 244.607Z" fill="#FFE7CA"/>
<path d="M603.038 230.371L579.848 220.338L591.058 196.069C600.936 200.34 605.07 213.898 603.038 230.371Z" fill="#FFE7CA"/>
<path d="M557.358 268.943L580.549 279.044C569.199 291.517 556.027 297.551 546.148 293.28L557.358 268.943Z" fill="#FFF8EC"/>
<path d="M557.359 268.943L546.219 293.28C536.34 289.009 532.207 275.451 534.238 258.978L557.359 268.943Z" fill="#FFE7CA"/>
<path d="M568.569 244.607L557.359 268.876L534.168 258.843C535.359 249.894 537.951 241.217 541.805 233.015L568.569 244.607Z" fill="#FFF8EC"/>
<path d="M579.849 220.338L568.639 244.607L541.875 233.015C545.658 224.744 550.633 217.084 556.658 210.305L579.849 220.338Z" fill="#FFE7CA"/>
<path d="M591.059 196.069L579.849 220.338L556.658 210.237C567.938 197.832 581.11 191.798 591.059 196.069Z" fill="#FFF8EC"/>
<path d="M591.059 196.069C581.11 191.798 568.008 197.764 556.658 210.305L536.41 201.56C544.257 196.069 553.365 192.68 563.034 191.731C572.562 190.714 582.231 192.273 591.059 196.069Z" fill="#FFE7CA"/>
<path d="M534.164 258.911C532.062 275.451 536.196 288.942 546.145 293.212C537.317 289.416 529.68 283.383 524.075 275.858C518.4 268.266 514.897 259.385 513.916 250.098L534.164 258.911Z" fill="#FFF8EC"/>
<path d="M534.169 258.91L513.851 250.098C512.87 240.811 514.412 231.455 518.405 222.914L541.806 233.015C537.953 241.217 535.36 249.962 534.169 258.91Z" fill="#FFE7CA"/>
<path d="M536.341 201.56L556.659 210.305C550.563 217.152 545.589 224.812 541.875 233.015L518.475 222.914C522.328 214.372 528.494 206.983 536.341 201.56Z" fill="#FFF8EC"/>
<path d="M568.501 298.636C555.259 298.568 542.438 293.958 532.419 285.62C522.33 277.282 515.744 265.69 513.712 253.013C511.68 240.336 514.343 227.388 521.349 216.474C528.285 205.56 539.075 197.425 551.686 193.493C564.297 189.561 577.959 190.104 590.22 195.052C602.481 200.001 612.5 209.017 618.455 220.406C624.481 231.862 626.022 244.946 622.869 257.419C619.716 269.893 612.15 280.875 601.36 288.399L600.379 287.043C610.048 280.264 617.124 270.638 620.557 259.588C623.99 248.539 623.5 236.675 619.296 225.897C615.022 215.118 607.245 205.967 597.086 199.933C586.927 193.9 575.017 191.256 563.106 192.409C551.265 193.561 540.126 198.51 531.438 206.441C522.75 214.373 517.075 224.812 515.183 236.201C513.292 247.59 515.323 259.25 520.998 269.418C526.674 279.587 535.642 287.654 546.501 292.331C555.189 296.06 564.717 297.551 574.176 296.602C583.634 295.653 592.672 292.331 600.379 286.908L601.36 288.264C591.761 295.043 580.341 298.636 568.501 298.636Z" fill="#FBAD41"/>
<path d="M552.877 295.381C550.425 295.381 547.973 294.907 545.731 293.958C535.852 289.687 531.088 276.197 533.259 258.775C535.852 240.675 543.699 223.66 555.89 209.763C567.87 196.544 581.392 191.053 591.271 195.323C601.15 199.594 605.914 213.084 603.742 230.506C602.481 239.522 599.889 248.335 596.035 256.606C593.233 262.639 589.87 268.401 585.806 273.756C584.265 275.79 582.653 277.688 581.042 279.519C571.864 289.755 561.635 295.381 552.877 295.381ZM584.195 195.459C575.927 195.459 566.189 200.882 557.221 210.779C545.24 224.473 537.533 241.149 534.941 258.91C532.839 275.587 537.253 288.399 546.431 292.399C555.609 296.398 568.501 290.975 579.851 278.366C581.462 276.604 583.004 274.705 584.475 272.74C588.399 267.452 591.762 261.825 594.494 255.928C598.347 247.793 600.87 239.184 602.061 230.371C604.163 213.694 599.749 200.882 590.57 196.883C588.609 196.001 586.437 195.527 584.195 195.459Z" fill="#FBAD41"/>
<path d="M518.683 222.168L517.982 223.66L618.382 267.113L619.082 265.622L518.683 222.168Z" fill="#FBAD41"/>
<path d="M590.289 195.73L545.379 292.873L546.92 293.551L591.83 196.408L590.289 195.73Z" fill="#FBAD41"/>
<path d="M536.619 200.747L535.918 202.238L622.865 239.861L623.566 238.37L536.619 200.747Z" fill="#FBAD41"/>
<path d="M600.516 288.467L513.568 250.844L514.269 249.352L601.216 286.976L600.516 288.467Z" fill="#FBAD41"/>
<path d="M548.252 342.157H556.659V309.211H548.252V342.157Z" fill="#FFCC89" stroke="#FBAD41" stroke-width="1.81063"/>
<path d="M599.955 182.172C635.827 199.12 650.75 241.014 633.165 275.722C615.649 310.431 572.35 324.87 536.479 307.855L539.701 302.025C572.28 317.413 611.655 304.33 627.56 272.807C643.464 241.285 629.942 203.187 597.363 187.799L599.955 182.172Z" fill="#FFCC89" stroke="#FBAD41" stroke-width="1.81063"/>
<path d="M519.455 342.767V350.902H585.454V342.767H519.455Z" fill="#FFCC89" stroke="#FBAD41" stroke-width="1.81063"/>
<path d="M530.453 334.971V343.106H574.452V334.971H530.453Z" fill="#FFCC89" stroke="#FBAD41" stroke-width="1.81063"/>
<path d="M620.5 30L630.94 62.1307H664.724L637.392 81.9886L647.832 114.119L620.5 94.2614L593.168 114.119L603.608 81.9886L576.276 62.1307H610.06L620.5 30Z" fill="#F9AB40"/>
<defs>
<linearGradient id="paint0_linear_580_4529" x1="208.26" y1="384.053" x2="334.032" y2="158.908" gradientUnits="userSpaceOnUse">
<stop stop-color="#CE2F55"/>
<stop offset="0.4605" stop-color="#FF6633"/>
<stop offset="0.8859" stop-color="#FBAD41"/>
</linearGradient>
<linearGradient id="paint1_linear_580_4529" x1="342.408" y1="243.69" x2="342.408" y2="250.377" gradientUnits="userSpaceOnUse">
<stop stop-color="#5D0B83"/>
<stop offset="1" stop-color="#3E74FF"/>
</linearGradient>
<linearGradient id="paint2_linear_580_4529" x1="342.411" y1="243.144" x2="342.411" y2="250.521" gradientUnits="userSpaceOnUse">
<stop stop-color="#5D0B83"/>
<stop offset="1" stop-color="#3E74FF"/>
</linearGradient>
<linearGradient id="paint3_linear_580_4529" x1="355.578" y1="243.69" x2="355.578" y2="250.377" gradientUnits="userSpaceOnUse">
<stop stop-color="#5D0B83"/>
<stop offset="1" stop-color="#3E74FF"/>
</linearGradient>
<linearGradient id="paint4_linear_580_4529" x1="355.717" y1="243.077" x2="355.717" y2="250.521" gradientUnits="userSpaceOnUse">
<stop stop-color="#5D0B83"/>
<stop offset="1" stop-color="#3E74FF"/>
</linearGradient>
<linearGradient id="paint5_linear_580_4529" x1="341.322" y1="241.27" x2="360.219" y2="234.295" gradientUnits="userSpaceOnUse">
<stop stop-color="#5D0B83"/>
<stop offset="1" stop-color="#3E74FF"/>
</linearGradient>
<linearGradient id="paint6_linear_580_4529" x1="328.397" y1="287.99" x2="356.518" y2="272.074" gradientUnits="userSpaceOnUse">
<stop offset="0.812986" stop-color="#CE2F55"/>
<stop offset="1" stop-color="#F1B059"/>
</linearGradient>
<linearGradient id="paint7_linear_580_4529" x1="332.482" y1="334.71" x2="364.8" y2="320.792" gradientUnits="userSpaceOnUse">
<stop offset="0.368406" stop-color="#CE2F55"/>
<stop offset="0.788143" stop-color="#FF6633"/>
<stop offset="0.896705" stop-color="#F6821F"/>
<stop offset="1" stop-color="#FCB42F"/>
</linearGradient>
<linearGradient id="paint8_linear_580_4529" x1="337.921" y1="320.891" x2="357.476" y2="313.225" gradientUnits="userSpaceOnUse">
<stop stop-color="#CE2F55"/>
<stop offset="0.702012" stop-color="#FF6633"/>
<stop offset="0.817667" stop-color="#F6821F"/>
<stop offset="1" stop-color="#FFD43C"/>
</linearGradient>
<linearGradient id="paint9_linear_580_4529" x1="213.469" y1="272.197" x2="286.445" y2="247.755" gradientUnits="userSpaceOnUse">
<stop stop-color="#5D0C83"/>
<stop offset="0.586241" stop-color="#3E74FF"/>
<stop offset="1" stop-color="#61A3E0"/>
</linearGradient>
<linearGradient id="paint10_linear_580_4529" x1="392.146" y1="249.112" x2="462.75" y2="375.5" gradientUnits="userSpaceOnUse">
<stop offset="0.3897" stop-color="#F9AB41"/>
<stop offset="1" stop-color="#F6821F"/>
</linearGradient>
<linearGradient id="paint11_linear_580_4529" x1="401.307" y1="310.355" x2="456.983" y2="310.355" gradientUnits="userSpaceOnUse">
<stop offset="0.0432724" stop-color="#FD6632"/>
<stop offset="0.5774" stop-color="#F5811E"/>
<stop offset="1" stop-color="#FAAB42"/>
</linearGradient>
</defs>
</svg>
